<svg width="386" height="624" viewBox="0 0 386 624" fill="none" xmlns="http://www.w3.org/2000/svg">
<g clip-path="url(#clip0_1461_187210)">
<rect width="386" height="624" rx="16" fill="#CCDADE"/>
<path d="M43.072 74H47.264L37.824 50.48H33.728L24.224 74H28.352L30.592 68.272H40.896L43.072 74ZM31.904 64.88L35.776 54.928L39.584 64.88H31.904ZM67.9808 56.784C65.4848 56.784 63.6288 57.904 62.6688 59.664C61.7088 57.872 60.0448 56.784 57.7408 56.784C55.9808 56.784 54.1248 57.456 53.0048 59.504V57.36H49.3248V74H53.0048V64.912C53.0688 62.032 54.2528 60.144 56.6208 60.144C58.6048 60.144 59.7568 61.392 59.7568 63.984V74H63.4368V64.688C63.4368 61.808 64.6528 60.144 66.9888 60.144C69.0688 60.144 70.1888 61.392 70.1888 63.952V74H73.8688V63.312C73.8688 59.056 71.6288 56.784 67.9808 56.784ZM92.2508 74L91.6748 70.704V62.544C91.6748 58.832 88.9548 56.816 84.6348 56.816C80.7628 56.816 77.8188 58.992 77.3388 62.128L80.6028 63.408C80.6028 61.04 82.2668 59.696 84.6348 59.696C86.5868 59.696 88.0908 60.432 88.0908 62.064C88.0908 63.6 87.3548 63.728 82.5548 64.56C79.1948 65.168 77.0188 66.8 77.0188 69.648C77.0188 72.624 79.3548 74.448 82.6828 74.448C84.9868 74.448 87.0668 73.616 88.2828 71.952L88.9868 74H92.2508ZM83.5148 71.664C81.8508 71.664 80.8908 70.704 80.8908 69.456C80.8908 67.984 82.0108 67.344 83.5788 67.024C86.6188 66.448 87.5788 66.32 88.0908 65.872V67.312C88.0908 69.776 86.5228 71.664 83.5148 71.664ZM99.9713 70.736L109.603 60.752V57.36H95.4273V60.624H104.867L95.2353 70.608V74H109.795V70.736H99.9713ZM121.303 56.784C116.151 56.784 112.279 60.432 112.279 65.648C112.279 70.832 116.151 74.48 121.303 74.48C126.423 74.48 130.327 70.832 130.327 65.648C130.327 60.432 126.423 56.784 121.303 56.784ZM121.303 60.176C124.311 60.176 126.487 62.288 126.487 65.648C126.487 68.976 124.311 71.088 121.303 71.088C118.327 71.088 116.087 68.976 116.087 65.648C116.087 62.288 118.295 60.176 121.303 60.176ZM142.317 56.784C139.885 56.784 138.157 57.712 137.037 59.568V57.36H133.357V74H137.037V65.136C137.037 62 138.573 60.176 141.293 60.176C143.725 60.176 144.845 61.552 144.845 64.56V74H148.525V64.048C148.525 59.376 146.349 56.784 142.317 56.784ZM175.565 53.936V50.48H159.917V74H163.725V64.208H174.413V60.816H163.725V53.936H175.565ZM187.251 56.976C185.715 56.976 183.731 57.584 182.515 59.984V57.36H178.835V74H182.515V65.968C182.515 62.288 184.275 60.56 186.835 60.56C187.539 60.56 188.083 60.656 188.723 60.848V57.2C188.211 57.008 187.827 56.976 187.251 56.976ZM206.093 65.36C206.093 60.272 203.021 56.784 198.125 56.784C193.293 56.784 189.773 60.56 189.773 65.712C189.773 70.864 193.101 74.48 198.349 74.48C201.421 74.48 204.269 73.296 205.837 70.768L203.181 68.4C202.285 70.448 200.781 71.376 198.445 71.376C195.917 71.376 194.029 70 193.645 66.832H205.997C206.061 66.256 206.093 65.84 206.093 65.36ZM198.061 59.888C200.621 59.888 202.125 61.584 202.125 64.144H193.677C194.125 61.264 195.885 59.888 198.061 59.888ZM215.59 56.784C211.878 56.784 208.742 58.992 208.742 62.064C208.742 68.752 219.174 65.968 219.174 69.488C219.174 70.864 217.734 71.536 215.974 71.536C213.67 71.536 211.91 70.448 211.782 67.984L208.23 69.488C208.806 72.592 211.718 74.48 215.974 74.48C220.038 74.48 223.11 72.752 223.11 69.264C223.11 62.64 212.518 65.264 212.518 61.84C212.518 60.592 213.638 59.696 215.59 59.696C217.894 59.696 219.302 60.88 219.43 62.896L222.918 61.584C222.374 58.672 219.59 56.784 215.59 56.784ZM235.275 56.784C232.747 56.784 231.051 57.808 230.027 59.536V50.48H226.347V74H230.027V65.136C230.027 61.968 231.627 60.176 234.251 60.176C236.715 60.176 237.835 61.552 237.835 64.56V74H241.515V64.048C241.515 59.376 239.339 56.784 235.275 56.784ZM30.528 107.448V87.48H26.72V111H41.952V107.448H30.528ZM59.0708 111L58.4948 107.704V99.544C58.4948 95.832 55.7748 93.816 51.4548 93.816C47.5828 93.816 44.6388 95.992 44.1588 99.128L47.4228 100.408C47.4228 98.04 49.0868 96.696 51.4548 96.696C53.4068 96.696 54.9108 97.432 54.9108 99.064C54.9108 100.6 54.1748 100.728 49.3748 101.56C46.0148 102.168 43.8388 103.8 43.8388 106.648C43.8388 109.624 46.1748 111.448 49.5028 111.448C51.8068 111.448 53.8868 110.616 55.1028 108.952L55.8068 111H59.0708ZM50.3348 108.664C48.6708 108.664 47.7108 107.704 47.7108 106.456C47.7108 104.984 48.8308 104.344 50.3988 104.024C53.4388 103.448 54.3988 103.32 54.9108 102.872V104.312C54.9108 106.776 53.3428 108.664 50.3348 108.664ZM75.7833 87.48V96.376C74.4713 94.808 72.5513 93.784 69.9913 93.784C64.9673 93.784 61.5753 97.656 61.5753 102.68C61.5753 107.672 64.9993 111.48 69.9913 111.48C72.5833 111.48 74.5033 110.456 75.8153 108.888V111H79.4633V87.48H75.7833ZM70.6633 108.12C67.5273 108.12 65.3833 105.848 65.3833 102.68C65.3833 99.448 67.5273 97.112 70.6633 97.112C73.6713 97.112 75.9113 99.416 75.9113 102.68C75.9113 105.912 73.6713 108.12 70.6633 108.12ZM98.9815 102.36C98.9815 97.272 95.9095 93.784 91.0135 93.784C86.1815 93.784 82.6615 97.56 82.6615 102.712C82.6615 107.864 85.9895 111.48 91.2375 111.48C94.3095 111.48 97.1575 110.296 98.7255 107.768L96.0695 105.4C95.1735 107.448 93.6695 108.376 91.3335 108.376C88.8055 108.376 86.9175 107 86.5335 103.832H98.8855C98.9495 103.256 98.9815 102.84 98.9815 102.36ZM90.9495 96.888C93.5095 96.888 95.0135 98.584 95.0135 101.144H86.5655C87.0135 98.264 88.7735 96.888 90.9495 96.888ZM110.687 93.976C109.151 93.976 107.167 94.584 105.951 96.984V94.36H102.271V111H105.951V102.968C105.951 99.288 107.711 97.56 110.271 97.56C110.975 97.56 111.519 97.656 112.159 97.848V94.2C111.647 94.008 111.263 93.976 110.687 93.976ZM129.041 111L128.465 107.704V99.544C128.465 95.832 125.745 93.816 121.425 93.816C117.553 93.816 114.609 95.992 114.129 99.128L117.393 100.408C117.393 98.04 119.057 96.696 121.425 96.696C123.377 96.696 124.881 97.432 124.881 99.064C124.881 100.6 124.145 100.728 119.345 101.56C115.985 102.168 113.809 103.8 113.809 106.648C113.809 109.624 116.145 111.448 119.473 111.448C121.777 111.448 123.857 110.616 125.073 108.952L125.777 111H129.041ZM120.305 108.664C118.641 108.664 117.681 107.704 117.681 106.456C117.681 104.984 118.801 104.344 120.369 104.024C123.409 103.448 124.369 103.32 124.881 102.872V104.312C124.881 106.776 123.313 108.664 120.305 108.664ZM154.795 87.48V97.624H143.851V87.48H140.043V111H143.851V101.048H154.795V111H158.635V87.48H154.795ZM178.538 102.36C178.538 97.272 175.466 93.784 170.57 93.784C165.738 93.784 162.218 97.56 162.218 102.712C162.218 107.864 165.546 111.48 170.794 111.48C173.866 111.48 176.714 110.296 178.282 107.768L175.626 105.4C174.73 107.448 173.226 108.376 170.89 108.376C168.362 108.376 166.474 107 166.09 103.832H178.442C178.506 103.256 178.538 102.84 178.538 102.36ZM170.506 96.888C173.066 96.888 174.57 98.584 174.57 101.144H166.122C166.57 98.264 168.33 96.888 170.506 96.888ZM181.667 87.48V91.352H185.635V87.48H181.667ZM181.827 94.36V111H185.507V94.36H181.827ZM202.307 94.36V96.216C201.027 94.744 199.171 93.784 196.803 93.784C191.811 93.784 188.547 97.464 188.547 102.264C188.547 107 191.811 110.648 196.803 110.648C199.171 110.648 201.027 109.688 202.307 108.248V110.328C202.307 113.336 200.291 115.224 197.091 115.224C194.403 115.224 192.579 113.976 191.779 111.544L188.643 113.592C189.923 116.696 192.803 118.36 197.059 118.36C202.531 118.36 205.987 115.352 205.987 110.552V94.36H202.307ZM197.443 107.288C194.339 107.288 192.355 105.176 192.355 102.264C192.355 99.288 194.339 97.112 197.443 97.112C200.419 97.112 202.435 99.192 202.435 102.264C202.435 105.176 200.419 107.288 197.443 107.288ZM219.119 93.784C216.591 93.784 214.895 94.808 213.871 96.536V87.48H210.191V111H213.871V102.136C213.871 98.968 215.471 97.176 218.095 97.176C220.559 97.176 221.679 98.552 221.679 101.56V111H225.359V101.048C225.359 96.376 223.183 93.784 219.119 93.784ZM239.226 97.528V94.36H234.49V89.368H230.81V94.36H227.834V97.528H230.81V106.104C230.81 109.912 232.794 111.416 236.41 111.416C236.954 111.416 238.426 111.288 238.97 111.064V107.832C238.426 107.96 237.466 108.088 236.954 108.088C235.29 108.088 234.49 107.672 234.49 105.624V97.528H239.226ZM248.568 93.784C244.856 93.784 241.72 95.992 241.72 99.064C241.72 105.752 252.152 102.968 252.152 106.488C252.152 107.864 250.712 108.536 248.952 108.536C246.648 108.536 244.888 107.448 244.76 104.984L241.208 106.488C241.784 109.592 244.696 111.48 248.952 111.48C253.016 111.48 256.088 109.752 256.088 106.264C256.088 99.64 245.496 102.264 245.496 98.84C245.496 97.592 246.616 96.696 248.568 96.696C250.872 96.696 252.28 97.88 252.408 99.896L255.896 98.584C255.352 95.672 252.568 93.784 248.568 93.784Z" fill="#242320"/>
<rect opacity="0.2" x="175" y="8" width="40" height="4" rx="2" fill="#242320"/>
<path d="M343.01 54.9902L350 48M356.99 41.0098L350 48M350 48L343.01 41.0098M350 48L356.99 54.9902" stroke="#242320" stroke-width="2" stroke-linecap="square"/>
<rect x="24" y="209.947" width="48" height="48" rx="24" fill="#20DB70"/>
<path d="M54 229.947H55C56.0609 229.947 57.0783 230.369 57.8284 231.119C58.5786 231.869 59 232.886 59 233.947C59 235.008 58.5786 236.026 57.8284 236.776C57.0783 237.526 56.0609 237.947 55 237.947H54" stroke="#242320" stroke-width="1.5" stroke-linecap="square"/>
<path d="M38 229.947H54V238.947C54 240.008 53.5786 241.026 52.8284 241.776C52.0783 242.526 51.0609 242.947 50 242.947H42C40.9391 242.947 39.9217 242.526 39.1716 241.776C38.4214 241.026 38 240.008 38 238.947V229.947Z" stroke="#242320" stroke-width="1.5" stroke-linecap="square"/>
<path d="M42 222.947V225.947" stroke="#242320" stroke-width="1.5"/>
<path d="M46 222.947V225.947" stroke="#242320" stroke-width="1.5"/>
<path d="M50 222.947V225.947" stroke="#242320" stroke-width="1.5"/>
<rect x="76" y="209.947" width="48" height="48" rx="24" fill="#20DB70"/>
<path d="M107.261 231.643L108.646 240.643C108.832 241.855 107.895 242.947 106.669 242.947H93.3312C92.1055 242.947 91.1681 241.855 91.3545 240.643L92.7391 231.643C92.8892 230.667 93.7287 229.947 94.7158 229.947H105.284C106.271 229.947 107.111 230.667 107.261 231.643Z" stroke="#242320" stroke-width="1.5" stroke-linecap="square" stroke-linejoin="round"/>
<path d="M102 226.947C102 225.843 101.105 224.947 100 224.947C98.8954 224.947 98 225.843 98 226.947" stroke="#242320" stroke-width="1.5" stroke-linecap="square" stroke-linejoin="round"/>
<path d="M26.992 149.555V139.187H25.472V150.947H32.912V149.555H26.992ZM38.2718 142.355C35.7758 142.355 33.8398 144.163 33.8398 146.771C33.8398 149.379 35.7758 151.187 38.2718 151.187C40.7838 151.187 42.7358 149.379 42.7358 146.771C42.7358 144.163 40.7838 142.355 38.2718 142.355ZM38.2718 143.715C39.9838 143.715 41.2158 144.931 41.2158 146.771C41.2158 148.627 39.9838 149.827 38.2718 149.827C36.5918 149.827 35.3438 148.627 35.3438 146.771C35.3438 144.931 36.5598 143.715 38.2718 143.715ZM48.2673 142.355C45.7233 142.355 43.8673 144.179 43.8673 146.771C43.8673 149.427 45.6753 151.187 48.2673 151.187C49.9633 151.187 51.4353 150.243 51.9953 148.963L50.7473 148.163C50.4593 149.107 49.4353 149.827 48.2673 149.827C46.4753 149.827 45.3713 148.627 45.3713 146.771C45.3713 144.931 46.5393 143.715 48.2673 143.715C49.3713 143.715 50.3953 144.307 50.6993 145.395L51.9953 144.595C51.4673 143.299 49.9953 142.355 48.2673 142.355ZM60.6179 150.947L60.3619 149.395V145.155C60.3619 143.347 59.0659 142.371 56.9539 142.371C55.0659 142.371 53.5779 143.443 53.4019 145.027L54.7459 145.555C54.7459 144.227 55.7059 143.555 56.9539 143.555C57.9939 143.555 58.9059 143.923 58.9059 144.883C58.9059 145.731 58.5539 145.843 55.9299 146.307C54.2979 146.595 53.2259 147.395 53.2259 148.819C53.2259 150.243 54.3779 151.187 56.0099 151.187C57.1939 151.187 58.2979 150.771 58.9699 149.843L59.3379 150.947H60.6179ZM56.3299 150.019C55.3539 150.019 54.7939 149.459 54.7939 148.739C54.7939 147.891 55.4499 147.539 56.3459 147.363C58.1379 147.011 58.6339 146.947 58.9059 146.691V147.587C58.9059 148.963 57.9779 150.019 56.3299 150.019ZM67.0884 143.939V142.627H64.7044V140.131H63.2324V142.627H61.7604V143.939H63.2324V148.691C63.2324 150.483 64.1604 151.155 65.8404 151.155C66.0804 151.155 66.6724 151.091 66.9284 150.995V149.699C66.6884 149.747 66.2884 149.811 66.0644 149.811C65.1684 149.811 64.7044 149.635 64.7044 148.499V143.939H67.0884ZM76.2958 146.643C76.2958 144.099 74.7918 142.355 72.3118 142.355C69.9278 142.355 68.1998 144.259 68.1998 146.803C68.1998 149.379 69.8798 151.187 72.4238 151.187C73.9278 151.187 75.4318 150.579 76.1838 149.219L75.0798 148.275C74.5998 149.379 73.7358 149.907 72.4558 149.907C71.0158 149.907 69.8958 149.027 69.7198 147.267H76.2638C76.2958 147.043 76.2958 146.835 76.2958 146.643ZM72.2798 143.651C73.7518 143.651 74.7118 144.595 74.7118 146.115H69.7518C69.9758 144.483 71.0318 143.651 72.2798 143.651ZM84.915 139.187V143.843C84.243 142.947 83.187 142.355 81.779 142.355C79.235 142.355 77.571 144.307 77.571 146.787C77.571 149.251 79.235 151.187 81.779 151.187C83.187 151.187 84.243 150.595 84.915 149.699V150.947H86.387V139.187H84.915ZM82.019 149.843C80.179 149.843 79.075 148.499 79.075 146.787C79.075 145.059 80.179 143.699 82.019 143.699C83.795 143.699 84.963 145.059 84.963 146.787C84.963 148.515 83.795 149.843 82.019 149.843ZM92.0104 139.187V140.883H93.7384V139.187H92.0104ZM92.1224 142.627V150.947H93.5944V142.627H92.1224ZM100.014 142.371C98.7345 142.371 97.8385 142.851 97.2625 143.811V142.627H95.7905V150.947H97.2625V146.467C97.2625 144.707 98.1745 143.715 99.6785 143.715C101.022 143.715 101.71 144.483 101.71 146.035V150.947H103.182V145.811C103.182 143.651 102.03 142.371 100.014 142.371ZM113.44 142.627H110.944V141.683C110.944 140.659 111.488 140.243 112.368 140.243C112.672 140.243 113.024 140.275 113.296 140.339V139.059C112.944 138.963 112.464 138.915 112.096 138.915C110.496 138.915 109.472 140.051 109.472 141.635V142.627H108V143.923H109.472V150.947H110.944V143.923H113.44V142.627ZM119.11 142.467C118.246 142.467 117.11 142.819 116.47 144.051V142.627H114.998V150.947H116.47V146.915C116.47 144.755 117.526 143.939 118.95 143.939C119.206 143.939 119.446 143.971 119.702 144.035V142.531C119.494 142.483 119.334 142.467 119.11 142.467ZM124.586 142.355C122.09 142.355 120.154 144.163 120.154 146.771C120.154 149.379 122.09 151.187 124.586 151.187C127.098 151.187 129.05 149.379 129.05 146.771C129.05 144.163 127.098 142.355 124.586 142.355ZM124.586 143.715C126.298 143.715 127.53 144.931 127.53 146.771C127.53 148.627 126.298 149.827 124.586 149.827C122.906 149.827 121.658 148.627 121.658 146.771C121.658 144.931 122.874 143.715 124.586 143.715ZM134.918 142.371C133.638 142.371 132.742 142.851 132.166 143.811V142.627H130.694V150.947H132.166V146.467C132.166 144.707 133.078 143.715 134.582 143.715C135.926 143.715 136.614 144.483 136.614 146.035V150.947H138.086V145.811C138.086 143.651 136.934 142.371 134.918 142.371ZM144.75 143.939V142.627H142.366V140.131H140.894V142.627H139.422V143.939H140.894V148.691C140.894 150.483 141.822 151.155 143.502 151.155C143.742 151.155 144.334 151.091 144.59 150.995V149.699C144.35 149.747 143.95 149.811 143.726 149.811C142.83 149.811 142.366 149.635 142.366 148.499V143.939H144.75ZM153.805 142.355C151.309 142.355 149.373 144.163 149.373 146.771C149.373 149.379 151.309 151.187 153.805 151.187C156.317 151.187 158.269 149.379 158.269 146.771C158.269 144.163 156.317 142.355 153.805 142.355ZM153.805 143.715C155.517 143.715 156.749 144.931 156.749 146.771C156.749 148.627 155.517 149.827 153.805 149.827C152.125 149.827 150.877 148.627 150.877 146.771C150.877 144.931 152.093 143.715 153.805 143.715ZM164.601 142.627H162.105V141.683C162.105 140.659 162.649 140.243 163.529 140.243C163.833 140.243 164.185 140.275 164.457 140.339V139.059C164.105 138.963 163.625 138.915 163.257 138.915C161.657 138.915 160.633 140.051 160.633 141.635V142.627H159.161V143.923H160.633V150.947H162.105V143.923H164.601V142.627ZM174.216 143.939V142.627H171.832V140.131H170.36V142.627H168.888V143.939H170.36V148.691C170.36 150.483 171.288 151.155 172.968 151.155C173.208 151.155 173.8 151.091 174.056 150.995V149.699C173.816 149.747 173.416 149.811 173.192 149.811C172.296 149.811 171.832 149.635 171.832 148.499V143.939H174.216ZM180.158 142.371C178.782 142.371 177.934 142.979 177.422 143.811V139.187H175.95V150.947H177.422V146.467C177.422 144.691 178.366 143.715 179.838 143.715C181.182 143.715 181.87 144.483 181.87 146.035V150.947H183.342V145.811C183.342 143.651 182.19 142.371 180.158 142.371ZM193.029 146.643C193.029 144.099 191.525 142.355 189.045 142.355C186.661 142.355 184.933 144.259 184.933 146.803C184.933 149.379 186.613 151.187 189.157 151.187C190.661 151.187 192.165 150.579 192.917 149.219L191.813 148.275C191.333 149.379 190.469 149.907 189.189 149.907C187.749 149.907 186.629 149.027 186.453 147.267H192.997C193.029 147.043 193.029 146.835 193.029 146.643ZM189.013 143.651C190.485 143.651 191.445 144.595 191.445 146.115H186.485C186.709 144.483 187.765 143.651 189.013 143.651ZM206.857 150.947H208.505L203.705 139.187H202.089L197.257 150.947H198.905L200.185 147.731H205.593L206.857 150.947ZM200.729 146.403L202.905 140.947L205.065 146.403H200.729ZM218.917 142.355C217.589 142.355 216.645 143.011 216.165 143.891C215.701 142.963 214.821 142.355 213.589 142.355C212.581 142.355 211.653 142.787 211.109 143.779V142.627H209.637V150.947H211.109V146.435C211.125 144.787 211.829 143.699 213.205 143.699C214.341 143.699 215.013 144.387 215.013 145.891V150.947H216.485V146.227C216.485 144.659 217.205 143.699 218.565 143.699C219.733 143.699 220.389 144.387 220.389 145.859V150.947H221.861V145.571C221.861 143.475 220.693 142.355 218.917 142.355ZM230.969 150.947L230.713 149.395V145.155C230.713 143.347 229.417 142.371 227.305 142.371C225.417 142.371 223.929 143.443 223.753 145.027L225.097 145.555C225.097 144.227 226.057 143.555 227.305 143.555C228.345 143.555 229.257 143.923 229.257 144.883C229.257 145.731 228.905 145.843 226.281 146.307C224.649 146.595 223.577 147.395 223.577 148.819C223.577 150.243 224.729 151.187 226.361 151.187C227.545 151.187 228.649 150.771 229.321 149.843L229.689 150.947H230.969ZM226.681 150.019C225.705 150.019 225.145 149.459 225.145 148.739C225.145 147.891 225.801 147.539 226.697 147.363C228.489 147.011 228.985 146.947 229.257 146.691V147.587C229.257 148.963 228.329 150.019 226.681 150.019ZM234.496 149.619L239.744 144.051V142.627H232.736V143.955H237.904L232.64 149.555V150.947H239.824V149.619H234.496ZM245.686 142.355C243.19 142.355 241.254 144.163 241.254 146.771C241.254 149.379 243.19 151.187 245.686 151.187C248.198 151.187 250.15 149.379 250.15 146.771C250.15 144.163 248.198 142.355 245.686 142.355ZM245.686 143.715C247.398 143.715 248.63 144.931 248.63 146.771C248.63 148.627 247.398 149.827 245.686 149.827C244.006 149.827 242.758 148.627 242.758 146.771C242.758 144.931 243.974 143.715 245.686 143.715ZM256.018 142.371C254.738 142.371 253.842 142.851 253.266 143.811V142.627H251.794V150.947H253.266V146.467C253.266 144.707 254.178 143.715 255.682 143.715C257.026 143.715 257.714 144.483 257.714 146.035V150.947H259.186V145.811C259.186 143.651 258.034 142.371 256.018 142.371ZM272.723 140.563V139.187H265.059V150.947H266.579V145.763H272.163V144.403H266.579V140.563H272.723ZM278.598 142.467C277.734 142.467 276.598 142.819 275.958 144.051V142.627H274.486V150.947H275.958V146.915C275.958 144.755 277.014 143.939 278.438 143.939C278.694 143.939 278.934 143.971 279.19 144.035V142.531C278.982 142.483 278.822 142.467 278.598 142.467ZM287.738 146.643C287.738 144.099 286.234 142.355 283.754 142.355C281.37 142.355 279.642 144.259 279.642 146.803C279.642 149.379 281.322 151.187 283.866 151.187C285.37 151.187 286.874 150.579 287.626 149.219L286.522 148.275C286.042 149.379 285.178 149.907 283.898 149.907C282.458 149.907 281.338 149.027 281.162 147.267H287.706C287.738 147.043 287.738 146.835 287.738 146.643ZM283.722 143.651C285.194 143.651 286.154 144.595 286.154 146.115H281.194C281.418 144.483 282.474 143.651 283.722 143.651ZM292.565 142.355C290.757 142.355 289.237 143.427 289.237 144.915C289.237 148.243 294.581 146.787 294.581 148.739C294.581 149.603 293.765 149.971 292.709 149.971C291.365 149.971 290.469 149.283 290.405 148.019L288.965 148.627C289.221 150.131 290.565 151.187 292.709 151.187C294.789 151.187 296.165 150.275 296.165 148.643C296.165 145.379 290.757 146.787 290.757 144.819C290.757 144.115 291.429 143.571 292.565 143.571C293.829 143.571 294.581 144.243 294.645 145.315L296.053 144.787C295.845 143.331 294.501 142.355 292.565 142.355ZM302.153 142.371C300.777 142.371 299.929 142.979 299.417 143.811V139.187H297.945V150.947H299.417V146.467C299.417 144.691 300.361 143.715 301.833 143.715C303.177 143.715 303.865 144.483 303.865 146.035V150.947H305.337V145.811C305.337 143.651 304.185 142.371 302.153 142.371ZM29.776 166.355C28.368 166.355 27.328 166.947 26.64 167.843V166.627H25.168V178.387H26.64V173.715C27.312 174.595 28.336 175.187 29.776 175.187C32.32 175.187 33.984 173.251 33.984 170.787C33.984 168.307 32.32 166.355 29.776 166.355ZM29.536 173.843C27.76 173.843 26.592 172.515 26.592 170.787C26.592 169.059 27.76 167.699 29.536 167.699C31.376 167.699 32.48 169.059 32.48 170.787C32.48 172.499 31.376 173.843 29.536 173.843ZM42.6566 174.947L42.4006 173.395V169.155C42.4006 167.347 41.1046 166.371 38.9926 166.371C37.1046 166.371 35.6166 167.443 35.4406 169.027L36.7846 169.555C36.7846 168.227 37.7446 167.555 38.9926 167.555C40.0326 167.555 40.9446 167.923 40.9446 168.883C40.9446 169.731 40.5926 169.843 37.9686 170.307C36.3366 170.595 35.2646 171.395 35.2646 172.819C35.2646 174.243 36.4166 175.187 38.0486 175.187C39.2326 175.187 40.3366 174.771 41.0086 173.843L41.3766 174.947H42.6566ZM38.3686 174.019C37.3926 174.019 36.8326 173.459 36.8326 172.739C36.8326 171.891 37.4886 171.539 38.3846 171.363C40.1766 171.011 40.6726 170.947 40.9446 170.691V171.587C40.9446 172.963 40.0166 174.019 38.3686 174.019ZM48.6631 166.467C47.7991 166.467 46.6631 166.819 46.0231 168.051V166.627H44.5511V174.947H46.0231V170.915C46.0231 168.755 47.0791 167.939 48.5031 167.939C48.7591 167.939 48.9991 167.971 49.2551 168.035V166.531C49.0471 166.483 48.8871 166.467 48.6631 166.467ZM56.3386 174.947H58.1146L54.3866 169.987L57.8586 166.627H55.9066L52.1306 170.291V163.187H50.6586V174.947H52.1306V172.163L53.3626 170.979L56.3386 174.947ZM59.2754 163.187V164.883H61.0034V163.187H59.2754ZM59.3874 166.627V174.947H60.8594V166.627H59.3874ZM67.2795 166.371C65.9995 166.371 65.1035 166.851 64.5275 167.811V166.627H63.0555V174.947H64.5275V170.467C64.5275 168.707 65.4395 167.715 66.9435 167.715C68.2875 167.715 68.9755 168.483 68.9755 170.035V174.947H70.4475V169.811C70.4475 167.651 69.2955 166.371 67.2795 166.371ZM79.1441 166.627V167.763C78.4721 166.915 77.4641 166.355 76.1681 166.355C73.6401 166.355 72.0241 168.227 72.0241 170.595C72.0241 172.947 73.6401 174.819 76.1681 174.819C77.4641 174.819 78.4721 174.259 79.1441 173.427V174.659C79.1441 176.307 78.0561 177.347 76.2961 177.347C74.7921 177.347 73.8161 176.659 73.3841 175.299L72.1041 176.163C72.7441 177.795 74.1521 178.627 76.2961 178.627C78.9521 178.627 80.6161 177.123 80.6161 174.739V166.627H79.1441ZM76.4081 173.475C74.6001 173.475 73.5281 172.211 73.5281 170.595C73.5281 168.979 74.6001 167.699 76.4081 167.699C78.1521 167.699 79.1921 168.947 79.1921 170.595C79.1921 172.211 78.1521 173.475 76.4081 173.475ZM86.3743 163.187V174.947H87.8463V163.187H86.3743ZM94.0386 166.355C91.5426 166.355 89.6066 168.163 89.6066 170.771C89.6066 173.379 91.5426 175.187 94.0386 175.187C96.5506 175.187 98.5026 173.379 98.5026 170.771C98.5026 168.163 96.5506 166.355 94.0386 166.355ZM94.0386 167.715C95.7506 167.715 96.9826 168.931 96.9826 170.771C96.9826 172.627 95.7506 173.827 94.0386 173.827C92.3586 173.827 91.1106 172.627 91.1106 170.771C91.1106 168.931 92.3266 167.715 94.0386 167.715ZM104.722 167.939V166.627H102.338V164.131H100.866V166.627H99.3941V167.939H100.866V172.691C100.866 174.483 101.794 175.155 103.474 175.155C103.714 175.155 104.306 175.091 104.562 174.995V173.699C104.322 173.747 103.922 173.811 103.698 173.811C102.802 173.811 102.338 173.635 102.338 172.499V167.939H104.722ZM116.865 174.947L116.609 173.395V169.155C116.609 167.347 115.313 166.371 113.201 166.371C111.313 166.371 109.825 167.443 109.649 169.027L110.993 169.555C110.993 168.227 111.953 167.555 113.201 167.555C114.241 167.555 115.153 167.923 115.153 168.883C115.153 169.731 114.801 169.843 112.177 170.307C110.545 170.595 109.473 171.395 109.473 172.819C109.473 174.243 110.625 175.187 112.257 175.187C113.441 175.187 114.545 174.771 115.217 173.843L115.585 174.947H116.865ZM112.577 174.019C111.601 174.019 111.041 173.459 111.041 172.739C111.041 171.891 111.697 171.539 112.593 171.363C114.385 171.011 114.881 170.947 115.153 170.691V171.587C115.153 172.963 114.225 174.019 112.577 174.019ZM122.648 166.355C120.104 166.355 118.248 168.179 118.248 170.771C118.248 173.427 120.056 175.187 122.648 175.187C124.344 175.187 125.816 174.243 126.376 172.963L125.128 172.163C124.84 173.107 123.816 173.827 122.648 173.827C120.856 173.827 119.752 172.627 119.752 170.771C119.752 168.931 120.92 167.715 122.648 167.715C123.752 167.715 124.776 168.307 125.08 169.395L126.376 168.595C125.848 167.299 124.376 166.355 122.648 166.355ZM132.103 166.467C131.239 166.467 130.103 166.819 129.463 168.051V166.627H127.991V174.947H129.463V170.915C129.463 168.755 130.519 167.939 131.943 167.939C132.199 167.939 132.439 167.971 132.695 168.035V166.531C132.487 166.483 132.327 166.467 132.103 166.467ZM137.579 166.355C135.083 166.355 133.147 168.163 133.147 170.771C133.147 173.379 135.083 175.187 137.579 175.187C140.091 175.187 142.043 173.379 142.043 170.771C142.043 168.163 140.091 166.355 137.579 166.355ZM137.579 167.715C139.291 167.715 140.523 168.931 140.523 170.771C140.523 172.627 139.291 173.827 137.579 173.827C135.899 173.827 134.651 172.627 134.651 170.771C134.651 168.931 135.867 167.715 137.579 167.715ZM146.726 166.355C144.918 166.355 143.398 167.427 143.398 168.915C143.398 172.243 148.742 170.787 148.742 172.739C148.742 173.603 147.926 173.971 146.87 173.971C145.526 173.971 144.63 173.283 144.566 172.019L143.126 172.627C143.382 174.131 144.726 175.187 146.87 175.187C148.95 175.187 150.326 174.275 150.326 172.643C150.326 169.379 144.918 170.787 144.918 168.819C144.918 168.115 145.59 167.571 146.726 167.571C147.99 167.571 148.742 168.243 148.806 169.315L150.214 168.787C150.006 167.331 148.662 166.355 146.726 166.355ZM155.066 166.355C153.258 166.355 151.738 167.427 151.738 168.915C151.738 172.243 157.082 170.787 157.082 172.739C157.082 173.603 156.266 173.971 155.21 173.971C153.866 173.971 152.97 173.283 152.906 172.019L151.466 172.627C151.722 174.131 153.066 175.187 155.21 175.187C157.29 175.187 158.666 174.275 158.666 172.643C158.666 169.379 153.258 170.787 153.258 168.819C153.258 168.115 153.93 167.571 155.066 167.571C156.33 167.571 157.082 168.243 157.146 169.315L158.554 168.787C158.346 167.331 157.002 166.355 155.066 166.355ZM168.535 166.627H166.039V165.683C166.039 164.659 166.583 164.243 167.463 164.243C167.767 164.243 168.119 164.275 168.391 164.339V163.059C168.039 162.963 167.559 162.915 167.191 162.915C165.591 162.915 164.567 164.051 164.567 165.635V166.627H163.095V167.923H164.567V174.947H166.039V167.923H168.535V166.627ZM174.205 166.467C173.341 166.467 172.205 166.819 171.565 168.051V166.627H170.093V174.947H171.565V170.915C171.565 168.755 172.621 167.939 174.045 167.939C174.301 167.939 174.541 167.971 174.797 168.035V166.531C174.589 166.483 174.429 166.467 174.205 166.467ZM179.681 166.355C177.185 166.355 175.249 168.163 175.249 170.771C175.249 173.379 177.185 175.187 179.681 175.187C182.193 175.187 184.145 173.379 184.145 170.771C184.145 168.163 182.193 166.355 179.681 166.355ZM179.681 167.715C181.393 167.715 182.625 168.931 182.625 170.771C182.625 172.627 181.393 173.827 179.681 173.827C178.001 173.827 176.753 172.627 176.753 170.771C176.753 168.931 177.969 167.715 179.681 167.715ZM195.069 166.355C193.741 166.355 192.797 167.011 192.317 167.891C191.853 166.963 190.973 166.355 189.741 166.355C188.733 166.355 187.805 166.787 187.261 167.779V166.627H185.789V174.947H187.261V170.435C187.277 168.787 187.981 167.699 189.357 167.699C190.493 167.699 191.165 168.387 191.165 169.891V174.947H192.637V170.227C192.637 168.659 193.357 167.699 194.717 167.699C195.885 167.699 196.541 168.387 196.541 169.859V174.947H198.013V169.571C198.013 167.475 196.845 166.355 195.069 166.355ZM208.17 167.939V166.627H205.786V164.131H204.314V166.627H202.842V167.939H204.314V172.691C204.314 174.483 205.242 175.155 206.922 175.155C207.162 175.155 207.754 175.091 208.01 174.995V173.699C207.77 173.747 207.37 173.811 207.146 173.811C206.25 173.811 205.786 173.635 205.786 172.499V167.939H208.17ZM214.112 166.371C212.736 166.371 211.888 166.979 211.376 167.811V163.187H209.904V174.947H211.376V170.467C211.376 168.691 212.32 167.715 213.792 167.715C215.136 167.715 215.824 168.483 215.824 170.035V174.947H217.296V169.811C217.296 167.651 216.144 166.371 214.112 166.371ZM226.983 170.643C226.983 168.099 225.479 166.355 222.999 166.355C220.615 166.355 218.887 168.259 218.887 170.803C218.887 173.379 220.567 175.187 223.111 175.187C224.615 175.187 226.119 174.579 226.871 173.219L225.767 172.275C225.287 173.379 224.423 173.907 223.143 173.907C221.703 173.907 220.583 173.027 220.407 171.267H226.951C226.983 171.043 226.983 170.835 226.983 170.643ZM222.967 167.651C224.439 167.651 225.399 168.595 225.399 170.115H220.439C220.663 168.483 221.719 167.651 222.967 167.651ZM235.291 166.355C233.483 166.355 231.963 167.427 231.963 168.915C231.963 172.243 237.307 170.787 237.307 172.739C237.307 173.603 236.491 173.971 235.435 173.971C234.091 173.971 233.195 173.283 233.131 172.019L231.691 172.627C231.947 174.131 233.291 175.187 235.435 175.187C237.515 175.187 238.891 174.275 238.891 172.643C238.891 169.379 233.483 170.787 233.483 168.819C233.483 168.115 234.155 167.571 235.291 167.571C236.555 167.571 237.307 168.243 237.371 169.315L238.779 168.787C238.571 167.331 237.227 166.355 235.291 166.355ZM245.167 167.939V166.627H242.783V164.131H241.311V166.627H239.839V167.939H241.311V172.691C241.311 174.483 242.239 175.155 243.919 175.155C244.159 175.155 244.751 175.091 245.007 174.995V173.699C244.767 173.747 244.367 173.811 244.143 173.811C243.247 173.811 242.783 173.635 242.783 172.499V167.939H245.167ZM250.71 166.355C248.214 166.355 246.278 168.163 246.278 170.771C246.278 173.379 248.214 175.187 250.71 175.187C253.222 175.187 255.174 173.379 255.174 170.771C255.174 168.163 253.222 166.355 250.71 166.355ZM250.71 167.715C252.422 167.715 253.654 168.931 253.654 170.771C253.654 172.627 252.422 173.827 250.71 173.827C249.03 173.827 247.782 172.627 247.782 170.771C247.782 168.931 248.998 167.715 250.71 167.715ZM260.929 166.467C260.065 166.467 258.929 166.819 258.289 168.051V166.627H256.817V174.947H258.289V170.915C258.289 168.755 259.345 167.939 260.769 167.939C261.025 167.939 261.265 167.971 261.521 168.035V166.531C261.313 166.483 261.153 166.467 260.929 166.467ZM270.07 170.643C270.07 168.099 268.566 166.355 266.086 166.355C263.702 166.355 261.974 168.259 261.974 170.803C261.974 173.379 263.654 175.187 266.198 175.187C267.702 175.187 269.206 174.579 269.958 173.219L268.854 172.275C268.374 173.379 267.51 173.907 266.23 173.907C264.79 173.907 263.67 173.027 263.494 171.267H270.038C270.07 171.043 270.07 170.835 270.07 170.643ZM266.054 167.651C267.526 167.651 268.486 168.595 268.486 170.115H263.526C263.75 168.483 264.806 167.651 266.054 167.651ZM276.545 166.627H274.049V165.683C274.049 164.659 274.593 164.243 275.473 164.243C275.777 164.243 276.129 164.275 276.401 164.339V163.059C276.049 162.963 275.569 162.915 275.201 162.915C273.601 162.915 272.577 164.051 272.577 165.635V166.627H271.105V167.923H272.577V174.947H274.049V167.923H276.545V166.627ZM282.215 166.467C281.351 166.467 280.215 166.819 279.575 168.051V166.627H278.103V174.947H279.575V170.915C279.575 168.755 280.631 167.939 282.055 167.939C282.311 167.939 282.551 167.971 282.807 168.035V166.531C282.599 166.483 282.439 166.467 282.215 166.467ZM287.691 166.355C285.195 166.355 283.259 168.163 283.259 170.771C283.259 173.379 285.195 175.187 287.691 175.187C290.203 175.187 292.155 173.379 292.155 170.771C292.155 168.163 290.203 166.355 287.691 166.355ZM287.691 167.715C289.403 167.715 290.635 168.931 290.635 170.771C290.635 172.627 289.403 173.827 287.691 173.827C286.011 173.827 284.763 172.627 284.763 170.771C284.763 168.931 285.979 167.715 287.691 167.715ZM298.023 166.371C296.743 166.371 295.847 166.851 295.271 167.811V166.627H293.799V174.947H295.271V170.467C295.271 168.707 296.183 167.715 297.687 167.715C299.031 167.715 299.719 168.483 299.719 170.035V174.947H301.191V169.811C301.191 167.651 300.039 166.371 298.023 166.371ZM307.855 167.939V166.627H305.471V164.131H303.999V166.627H302.527V167.939H303.999V172.691C303.999 174.483 304.927 175.155 306.607 175.155C306.847 175.155 307.439 175.091 307.695 174.995V173.699C307.455 173.747 307.055 173.811 306.831 173.811C305.935 173.811 305.471 173.635 305.471 172.499V167.939H307.855ZM309.43 173.027V174.947H311.35V173.027H309.43Z" fill="#242320"/>
<line opacity="0.1" y1="285.447" x2="390" y2="285.447" stroke="#242320"/>
<rect x="186" y="209.551" width="180" height="48" rx="7.06" fill="#242320"/>
<path d="M242.207 233.314L241.266 234.438H245.804C245.728 236.577 244.195 238.125 242.07 238.125C239.612 238.125 237.76 236.486 237.76 233.451C237.76 230.431 239.855 228.807 242.146 228.807C243.831 228.807 245.333 229.596 246.016 231.053L247.033 230.294C246.077 228.564 244.119 227.654 242.161 227.654C239.141 227.654 236.47 229.824 236.47 233.466C236.47 237.078 238.899 239.279 241.797 239.279C243.937 239.279 245.136 238.186 245.804 237.093V239.051H247.079V233.314H242.207ZM255.483 234.969C255.483 232.556 254.057 230.917 251.674 230.917C249.443 230.917 247.804 232.723 247.804 235.105C247.804 237.579 249.413 239.279 251.795 239.279C253.207 239.279 254.664 238.702 255.362 237.367L254.406 236.562C253.935 237.655 253.07 238.171 251.811 238.171C250.369 238.171 249.246 237.276 249.094 235.515H255.453C255.468 235.333 255.483 235.136 255.483 234.969ZM251.674 232.024C253.146 232.024 254.133 232.965 254.133 234.513H249.109C249.322 232.89 250.399 232.024 251.674 232.024ZM260.465 232.298V231.159H258.188V228.245L256.944 229.186V231.159H255.563V232.298H256.944V236.987C256.944 238.642 257.794 239.249 259.342 239.249C259.569 239.249 260.07 239.203 260.298 239.112V238.004C260.085 238.05 259.736 238.095 259.539 238.095C258.674 238.095 258.188 237.959 258.188 236.835V232.298H260.465ZM267.572 227.896H263.793V239.051H267.572C270.79 239.051 272.748 236.927 272.748 233.33C272.748 229.733 270.79 227.896 267.572 227.896ZM267.466 237.898H265.068V229.05H267.466C269.925 229.05 271.488 230.325 271.488 233.33C271.488 236.289 269.925 237.898 267.466 237.898ZM273.415 227.896V229.414H274.948V227.896H273.415ZM273.552 231.159V239.051H274.796V231.159H273.552ZM279.879 231.023C278.772 231.023 278.058 231.524 277.664 231.918L277.269 233.876V231.159H276.025V239.051H277.269V235.227C277.269 233.041 278.316 232.282 279.743 232.282C279.955 232.282 280.168 232.313 280.365 232.358V231.068C280.183 231.038 280.062 231.023 279.879 231.023ZM287.514 234.969C287.514 232.556 286.087 230.917 283.704 230.917C281.473 230.917 279.834 232.723 279.834 235.105C279.834 237.579 281.443 239.279 283.826 239.279C285.237 239.279 286.694 238.702 287.392 237.367L286.436 236.562C285.966 237.655 285.1 238.171 283.841 238.171C282.399 238.171 281.276 237.276 281.124 235.515H287.483C287.498 235.333 287.514 235.136 287.514 234.969ZM283.704 232.024C285.176 232.024 286.163 232.965 286.163 234.513H281.139C281.352 232.89 282.429 232.024 283.704 232.024ZM291.994 230.917C289.596 230.917 287.821 232.647 287.821 235.105C287.821 237.625 289.536 239.279 291.994 239.279C293.557 239.279 294.954 238.414 295.485 237.2L294.422 236.502C294.149 237.427 293.148 238.125 291.994 238.125C290.188 238.125 289.095 236.927 289.095 235.105C289.095 233.284 290.249 232.07 291.994 232.07C293.057 232.07 294.073 232.632 294.377 233.694L295.47 233.011C294.969 231.782 293.588 230.917 291.994 230.917ZM300.437 232.298V231.159H298.16V228.245L296.916 229.186V231.159H295.535V232.298H296.916V236.987C296.916 238.642 297.766 239.249 299.314 239.249C299.541 239.249 300.042 239.203 300.27 239.112V238.004C300.057 238.05 299.708 238.095 299.511 238.095C298.646 238.095 298.16 237.959 298.16 236.835V232.298H300.437ZM300.971 227.896V229.414H302.504V227.896H300.971ZM301.108 231.159V239.051H302.352V231.159H301.108ZM307.254 230.917C304.901 230.917 303.065 232.616 303.065 235.105C303.065 237.579 304.901 239.279 307.254 239.279C309.606 239.279 311.458 237.579 311.458 235.105C311.458 232.616 309.606 230.917 307.254 230.917ZM307.254 232.07C308.969 232.07 310.183 233.269 310.183 235.105C310.183 236.927 308.969 238.125 307.254 238.125C305.584 238.125 304.34 236.927 304.34 235.105C304.34 233.269 305.554 232.07 307.254 232.07ZM316.045 230.932C314.786 230.932 314.164 231.417 313.799 231.842L313.405 233.542V231.159H312.16V239.051H313.405V234.771C313.405 233.026 314.33 232.055 315.803 232.055C317.138 232.055 317.836 232.829 317.836 234.301V239.051H319.081V234.119C319.081 232.131 317.973 230.932 316.045 230.932ZM323.044 230.917C321.359 230.917 319.933 231.918 319.933 233.299C319.933 236.456 325.047 235.045 325.047 236.987C325.047 237.852 324.243 238.232 323.165 238.232C321.815 238.232 320.949 237.518 320.904 236.304L319.659 236.82C319.887 238.217 321.116 239.279 323.165 239.279C325.153 239.279 326.398 238.383 326.398 236.896C326.398 233.831 321.223 235.181 321.223 233.223C321.223 232.51 321.89 231.964 323.044 231.964C324.304 231.964 325.032 232.632 325.108 233.679L326.292 233.239C326.125 231.858 324.85 230.917 323.044 230.917Z" fill="#CCDADE"/>
<path d="M225.813 239.387V234.561C225.813 234.15 225.908 233.847 226.097 233.653C226.209 233.549 226.343 233.469 226.488 233.419C226.634 233.368 226.789 233.348 226.943 233.36H230.464L227.629 236.137L228.451 236.947L232.371 233.09V232.414L228.451 228.555L227.629 229.381L230.45 232.128L226.897 232.159C226.144 232.17 225.57 232.374 225.174 232.774C224.779 233.173 224.58 233.758 224.579 234.531V239.396L225.813 239.387Z" fill="#CCDADE"/>
<path d="M30.0578 312.648C27.0575 312.648 24.5715 314.791 24.5715 318.134C24.5715 321.42 26.9289 323.635 30.0435 323.635C32.1723 323.635 33.9153 322.635 34.844 320.863L33.2581 319.806C32.8009 321.12 31.5151 321.892 30.0149 321.892C27.9861 321.892 26.5288 320.42 26.5288 318.148C26.5288 315.82 28.029 314.391 30.0435 314.391C31.5579 314.391 32.7438 315.205 33.201 316.434L34.7868 315.377C33.9153 313.605 32.0723 312.648 30.0578 312.648ZM40.3186 315.72C39.2756 315.72 38.5184 316.134 38.0469 316.905V312.919H36.1896V323.42H38.0469V319.491C38.0469 318.191 38.6755 317.434 39.7614 317.434C40.79 317.434 41.2329 318.006 41.2329 319.334V323.42H43.0903V319.063C43.0903 316.891 42.133 315.72 40.3186 315.72ZM51.4812 323.42L51.224 321.906V318.348C51.224 316.648 49.9668 315.734 47.9951 315.734C46.2378 315.734 44.952 316.72 44.6805 318.12L46.3235 318.748C46.3235 317.777 46.9807 317.177 47.9951 317.177C48.8381 317.177 49.4096 317.506 49.4096 318.148C49.4096 318.777 49.0953 318.806 47.0522 319.163C45.5377 319.434 44.5662 320.163 44.5662 321.449C44.5662 322.806 45.6092 323.62 47.1093 323.62C48.1094 323.62 49.0095 323.22 49.5096 322.549L49.8239 323.42H51.4812ZM47.5379 322.235C46.8807 322.235 46.5093 321.849 46.5093 321.349C46.5093 320.763 46.9379 320.492 47.5808 320.363C48.7952 320.149 49.1953 320.077 49.4096 319.906V320.449C49.4096 321.463 48.8095 322.235 47.5379 322.235ZM56.9131 315.805C56.2845 315.805 55.4701 316.048 54.9415 317.105V315.991H53.0842V323.42H54.9415V319.834C54.9415 318.377 55.6416 317.591 56.6988 317.591C57.056 317.591 57.3132 317.634 57.6561 317.734V315.92C57.3989 315.82 57.1989 315.805 56.9131 315.805ZM64.4325 315.991V316.691C63.8753 316.091 63.1037 315.72 62.1036 315.72C59.8891 315.72 58.4461 317.348 58.4461 319.506C58.4461 321.62 59.8891 323.235 62.1036 323.235C63.1037 323.235 63.8753 322.863 64.4325 322.277V323.078C64.4325 324.349 63.6038 325.149 62.2608 325.149C61.1321 325.149 60.3606 324.606 60.032 323.62L58.4604 324.621C59.0319 325.978 60.3463 326.706 62.2322 326.706C64.7325 326.706 66.2898 325.349 66.2898 323.206V315.991H64.4325ZM62.4608 321.549C61.2178 321.549 60.3749 320.734 60.3749 319.506C60.3749 318.248 61.2178 317.405 62.4608 317.405C63.6324 317.405 64.5039 318.191 64.5039 319.506C64.5039 320.72 63.6324 321.549 62.4608 321.549ZM75.0112 319.563C75.0112 317.291 73.6397 315.72 71.4823 315.72C69.2821 315.72 67.7105 317.405 67.7105 319.734C67.7105 322.006 69.1821 323.635 71.568 323.635C72.9682 323.635 74.1826 323.12 74.9112 322.049L73.5968 320.849C73.2111 321.706 72.5967 322.092 71.6252 322.092C70.5965 322.092 69.8536 321.577 69.6821 320.277H74.9684C75.0112 319.991 75.0112 319.791 75.0112 319.563ZM71.4252 317.263C72.4538 317.263 73.0396 317.948 73.0396 318.963H69.6964C69.8821 317.777 70.5536 317.263 71.4252 317.263ZM80.367 315.805C79.7384 315.805 78.924 316.048 78.3954 317.105V315.991H76.5381V323.42H78.3954V319.834C78.3954 318.377 79.0955 317.591 80.1527 317.591C80.5099 317.591 80.7671 317.634 81.11 317.734V315.92C80.8528 315.82 80.6528 315.805 80.367 315.805ZM85.1432 315.72C83.4573 315.72 82.0143 316.734 82.0143 318.134C82.0143 321.12 86.6148 319.92 86.6148 321.377C86.6148 321.906 86.029 322.177 85.3432 322.177C84.4146 322.177 83.6431 321.777 83.5716 320.692L81.8143 321.449C82.0858 322.863 83.4573 323.635 85.3432 323.635C87.1291 323.635 88.5864 322.892 88.5864 321.263C88.5864 318.277 83.9145 319.406 83.9145 318.02C83.9145 317.506 84.3717 317.163 85.1432 317.163C86.1005 317.163 86.7005 317.634 86.7577 318.506L88.5007 317.848C88.215 316.548 86.972 315.72 85.1432 315.72Z" fill="#242320"/>
<g opacity="0.7">
<path d="M103.472 326.154C107.171 326.154 110.169 323.156 110.169 319.457C110.169 315.758 107.171 312.76 103.472 312.76C99.7734 312.76 96.775 315.758 96.775 319.457C96.775 323.156 99.7734 326.154 103.472 326.154Z" stroke="#81856D" stroke-width="1.33943" stroke-linecap="round" stroke-linejoin="round"/>
<path d="M103.472 322.136V319.457" stroke="#81856D" stroke-width="1.33943" stroke-linecap="square" stroke-linejoin="round"/>
<path d="M103.472 316.778H103.479" stroke="#81856D" stroke-width="1.33943" stroke-linecap="round" stroke-linejoin="round"/>
</g>
<path d="M35.7851 497.517C41.3297 497.517 45.8245 492.92 45.8245 487.248C45.8245 484.584 44.8324 482.157 43.2055 480.332H28.3646C26.7377 482.157 25.7456 484.584 25.7456 487.248C25.7456 492.92 30.2404 497.517 35.7851 497.517Z" stroke="#242320" stroke-width="1.7859"/>
<ellipse cx="33.166" cy="492.606" rx="2.18249" ry="2.23238" fill="#242320"/>
<ellipse cx="35.7851" cy="488.142" rx="2.18249" ry="2.23238" fill="#242320"/>
<ellipse cx="30.5473" cy="488.142" rx="2.18249" ry="2.23238" fill="#242320"/>
<ellipse cx="33.1663" cy="483.677" rx="1.30949" ry="1.33943" fill="#242320"/>
<ellipse cx="38.404" cy="483.677" rx="1.30949" ry="1.33943" fill="#242320"/>
<ellipse cx="41.0233" cy="488.142" rx="2.18249" ry="2.23238" fill="#242320"/>
<ellipse cx="38.4042" cy="492.606" rx="2.18249" ry="2.23238" fill="#242320"/>
<rect x="24" y="527.514" width="342" height="65.1854" rx="7.1436" fill="#B6C9CE"/>
<circle cx="31.1436" cy="534.658" r="7.1436" fill="#00C2FF"/>
<path d="M145.099 554.909V565.41H147.042V554.909H145.099ZM153.269 557.709C152.198 557.709 151.441 558.123 150.955 558.938V557.981H149.097V565.41H150.955V561.481C150.955 560.195 151.569 559.424 152.684 559.424C153.698 559.424 154.141 559.995 154.141 561.324V565.41H155.998V561.052C155.998 558.881 155.041 557.709 153.269 557.709ZM161.184 554.909V561.795C161.184 564.195 162.67 565.624 165.113 565.624C167.527 565.624 169.042 564.238 169.042 561.795V554.909H167.113V561.695C167.113 563.024 166.456 563.881 165.113 563.881C163.784 563.881 163.127 563.024 163.127 561.695V554.909H161.184ZM173.873 557.709C172.188 557.709 170.745 558.723 170.745 560.124C170.745 563.11 175.345 561.91 175.345 563.367C175.345 563.895 174.759 564.167 174.073 564.167C173.145 564.167 172.373 563.767 172.302 562.681L170.544 563.438C170.816 564.853 172.188 565.624 174.073 565.624C175.859 565.624 177.317 564.881 177.317 563.253C177.317 560.267 172.645 561.395 172.645 560.009C172.645 559.495 173.102 559.152 173.873 559.152C174.831 559.152 175.431 559.624 175.488 560.495L177.231 559.838C176.945 558.538 175.702 557.709 173.873 557.709ZM185.605 561.552C185.605 559.281 184.233 557.709 182.076 557.709C179.876 557.709 178.304 559.395 178.304 561.724C178.304 563.995 179.776 565.624 182.162 565.624C183.562 565.624 184.776 565.11 185.505 564.038L184.19 562.838C183.805 563.695 183.19 564.081 182.219 564.081C181.19 564.081 180.447 563.567 180.276 562.267H185.562C185.605 561.981 185.605 561.781 185.605 561.552ZM182.019 559.252C183.047 559.252 183.633 559.938 183.633 560.952H180.29C180.476 559.766 181.147 559.252 182.019 559.252Z" fill="#242320"/>
<path d="M55.5333 547.654C49.6041 547.654 46.4967 552.369 46.4967 561.406C46.4967 570.371 49.6041 575.05 55.5333 575.05C61.4268 575.05 64.5343 570.371 64.5343 561.406C64.5343 552.369 61.4268 547.654 55.5333 547.654ZM55.5333 551.119C58.9265 551.119 60.6767 554.548 60.6767 561.406C60.6767 568.157 58.9265 571.586 55.5333 571.586C52.1044 571.586 50.3542 568.157 50.3542 561.406C50.3542 554.548 52.1044 551.119 55.5333 551.119ZM76.4094 557.691C74.1949 557.691 72.7304 558.441 71.4446 559.584L71.8732 551.655H83.803V548.262H68.4443L67.6585 562.763L70.9445 563.513C71.9804 561.942 73.6591 560.906 75.8022 560.906C78.8739 560.906 80.8741 563.013 80.8741 566.299C80.8741 569.442 78.7668 571.621 75.6236 571.621C72.5518 571.621 70.5874 569.657 70.4445 566.514L66.8727 567.907C67.4442 572.371 70.8374 575.05 75.6236 575.05C81.0527 575.05 84.696 571.55 84.696 566.299C84.696 561.049 81.3742 557.691 76.4094 557.691Z" fill="#242320"/>
<rect x="25.7457" y="364.003" width="20.0789" height="8.03655" rx="4.01828" stroke="#242320" stroke-width="1.7859"/>
<path d="M35.7851 364.003C41.3297 364.003 45.8245 359.405 45.8245 353.734C45.8245 351.07 44.8324 348.642 43.2055 346.817H28.3646C26.7377 348.642 25.7456 351.07 25.7456 353.734C25.7456 359.405 30.2404 364.003 35.7851 364.003Z" stroke="#242320" stroke-width="1.7859"/>
<ellipse cx="29.6739" cy="368.021" rx="2.18249" ry="2.23238" fill="#242320"/>
<ellipse cx="33.166" cy="359.092" rx="2.18249" ry="2.23238" fill="#242320"/>
<ellipse cx="35.7851" cy="354.627" rx="2.18249" ry="2.23238" fill="#242320"/>
<ellipse cx="30.5473" cy="354.627" rx="2.18249" ry="2.23238" fill="#242320"/>
<ellipse cx="33.1663" cy="350.162" rx="1.30949" ry="1.33943" fill="#242320"/>
<ellipse cx="38.404" cy="350.162" rx="1.30949" ry="1.33943" fill="#242320"/>
<ellipse cx="41.0233" cy="354.627" rx="2.18249" ry="2.23238" fill="#242320"/>
<ellipse cx="38.4042" cy="359.092" rx="2.18249" ry="2.23238" fill="#242320"/>
<ellipse cx="41.8961" cy="368.021" rx="2.18249" ry="2.23238" fill="#242320"/>
<path d="M65.8041 346.287C62.8895 346.287 60.3464 348.359 60.3464 351.759C60.3464 355.131 62.8038 357.246 65.7755 357.246C67.8472 357.246 69.5474 356.26 70.4618 354.602L69.2045 353.745C68.6616 355.088 67.3329 355.86 65.7898 355.86C63.6468 355.86 61.9037 354.345 61.9037 351.774C61.9037 349.145 63.6896 347.673 65.8041 347.673C67.3329 347.673 68.6187 348.445 69.1759 349.745L70.4189 348.873C69.5331 347.187 67.7186 346.287 65.8041 346.287ZM76.9939 346.287C74.0793 346.287 71.5362 348.359 71.5362 351.759C71.5362 355.131 73.9936 357.246 76.9653 357.246C79.037 357.246 80.7372 356.26 81.6515 354.602L80.3943 353.745C79.8514 355.088 78.5226 355.86 76.9796 355.86C74.8365 355.86 73.0935 354.345 73.0935 351.774C73.0935 349.145 74.8794 347.673 76.9939 347.673C78.5226 347.673 79.8085 348.445 80.3657 349.745L81.6087 348.873C80.7229 347.187 78.9084 346.287 76.9939 346.287ZM86.8978 346.287C84.8262 346.287 83.026 347.459 83.026 349.373C83.026 353.488 89.4267 351.331 89.4267 354.174C89.4267 355.245 88.4123 355.917 86.9979 355.917C85.2405 355.917 84.2404 354.845 84.2404 353.231L82.7831 353.931C83.0403 356.003 84.7119 357.246 86.9979 357.246C89.2838 357.246 90.9983 356.088 90.9983 354.088C90.9983 349.888 84.5833 351.931 84.5833 349.273C84.5833 348.23 85.5548 347.616 86.8978 347.616C88.4837 347.616 89.441 348.559 89.441 349.873L90.8554 349.273C90.6982 347.645 89.2124 346.287 86.8978 346.287ZM94.4972 355.66L96.6974 353.617C98.1261 352.274 99.1262 350.988 99.1262 349.373C99.1262 347.559 97.7404 346.287 95.8116 346.287C93.7543 346.287 92.3255 347.73 92.3255 349.516C92.3255 349.688 92.3398 349.902 92.3684 350.102L93.8971 350.359C93.8543 350.131 93.84 349.916 93.84 349.716C93.84 348.53 94.54 347.673 95.7687 347.673C96.8974 347.673 97.5975 348.345 97.5975 349.33C97.5975 350.616 96.426 351.874 95.3116 352.945L92.4255 355.674V357.031H99.1548V355.66H94.4972ZM65.8041 360.287C62.8895 360.287 60.3464 362.359 60.3464 365.759C60.3464 369.131 62.8038 371.246 65.7755 371.246C67.8472 371.246 69.5474 370.26 70.4618 368.602L69.2045 367.745C68.6616 369.088 67.3329 369.86 65.7898 369.86C63.6468 369.86 61.9037 368.345 61.9037 365.774C61.9037 363.145 63.6896 361.673 65.8041 361.673C67.3329 361.673 68.6187 362.445 69.1759 363.745L70.4189 362.873C69.5331 361.187 67.7186 360.287 65.8041 360.287ZM75.8652 363.359C74.6794 363.359 73.9222 363.859 73.465 364.616V360.53H71.9791V371.031H73.465V367.045C73.465 365.559 74.2365 364.716 75.4795 364.716C76.6367 364.716 77.1939 365.374 77.1939 366.731V371.031H78.6798V366.516C78.6798 364.516 77.6797 363.359 75.8652 363.359ZM86.986 371.031L86.7431 369.603V365.888C86.7431 364.245 85.5573 363.359 83.6428 363.359C81.9426 363.359 80.6282 364.331 80.4282 365.745L81.7712 366.259C81.7712 365.145 82.5713 364.545 83.6428 364.545C84.5572 364.545 85.2858 364.873 85.2858 365.659C85.2858 366.374 84.9715 366.459 82.7284 366.845C81.2569 367.117 80.2853 367.831 80.2853 369.102C80.2853 370.403 81.314 371.246 82.7999 371.246C83.8286 371.246 84.8001 370.874 85.3573 370.088L85.6859 371.031H86.986ZM83.1285 370.088C82.3141 370.088 81.8569 369.631 81.8569 369.031C81.8569 368.317 82.3998 368.031 83.1428 367.874C84.6143 367.602 85.0573 367.531 85.2858 367.331V368.045C85.2858 369.202 84.5286 370.088 83.1285 370.088ZM92.4771 363.445C91.7485 363.445 90.7912 363.73 90.234 364.831V363.602H88.7481V371.031H90.234V367.431C90.234 365.659 91.0913 364.902 92.3057 364.902C92.5771 364.902 92.8057 364.945 93.0629 365.016V363.516C92.8486 363.459 92.7057 363.445 92.4771 363.445ZM100.144 363.602V364.516C99.5579 363.816 98.6864 363.359 97.5862 363.359C95.3431 363.359 93.9001 365.016 93.9001 367.145C93.9001 369.245 95.3431 370.888 97.5862 370.888C98.6864 370.888 99.5579 370.431 100.144 369.731V370.746C100.144 372.16 99.215 373.046 97.7148 373.046C96.4433 373.046 95.6003 372.446 95.2288 371.303L93.9573 372.16C94.5288 373.574 95.8003 374.317 97.7005 374.317C100.115 374.317 101.63 372.974 101.63 370.846V363.602H100.144ZM97.8434 369.545C96.3575 369.545 95.4289 368.502 95.4289 367.145C95.4289 365.745 96.3575 364.702 97.8434 364.702C99.2721 364.702 100.201 365.716 100.201 367.145C100.201 368.502 99.2721 369.545 97.8434 369.545ZM110.464 367.188C110.464 364.916 109.107 363.359 106.907 363.359C104.764 363.359 103.206 365.045 103.206 367.331C103.206 369.631 104.692 371.246 107.007 371.246C108.364 371.246 109.664 370.717 110.364 369.545L109.264 368.588C108.85 369.531 108.135 369.974 107.035 369.974C105.849 369.974 104.921 369.274 104.764 367.788H110.436C110.464 367.559 110.464 367.374 110.464 367.188ZM106.878 364.631C108.107 364.631 108.864 365.431 108.864 366.674H104.778C104.978 365.302 105.835 364.631 106.878 364.631ZM115.861 363.445C115.133 363.445 114.175 363.73 113.618 364.831V363.602H112.132V371.031H113.618V367.431C113.618 365.659 114.475 364.902 115.69 364.902C115.961 364.902 116.19 364.945 116.447 365.016V363.516C116.233 363.459 116.09 363.445 115.861 363.445Z" fill="#242320"/>
<path d="M68.3758 481.83H60.075V483.245H63.461V492.332H65.004V483.245H68.3758V481.83ZM74.2377 484.902L72.0518 490.46L69.7658 484.902H68.0942L71.2374 492.217L69.9373 495.403H71.5374L75.8807 484.902H74.2377ZM81.2841 484.659C80.084 484.659 79.1839 485.145 78.5838 485.888V484.902H77.0979V495.403H78.5838V491.317C79.1696 492.06 80.0411 492.546 81.2698 492.546C83.5272 492.546 85.0416 490.831 85.0416 488.617C85.0416 486.388 83.5272 484.659 81.2841 484.659ZM81.0269 491.189C79.5553 491.189 78.5409 490.103 78.5409 488.617C78.5409 487.117 79.5553 486.002 81.0269 486.002C82.5414 486.002 83.4986 487.131 83.4986 488.617C83.4986 490.088 82.5414 491.189 81.0269 491.189ZM93.4145 488.488C93.4145 486.217 92.0572 484.659 89.857 484.659C87.7139 484.659 86.1566 486.345 86.1566 488.631C86.1566 490.931 87.6425 492.546 89.957 492.546C91.3143 492.546 92.6144 492.017 93.3145 490.846L92.2144 489.888C91.8 490.831 91.0857 491.274 89.9856 491.274C88.7997 491.274 87.8711 490.574 87.7139 489.088H93.3859C93.4145 488.86 93.4145 488.674 93.4145 488.488ZM89.8284 485.931C91.0571 485.931 91.8143 486.731 91.8143 487.974H87.7282C87.9282 486.602 88.7854 485.931 89.8284 485.931ZM100.148 490.96L102.348 488.917C103.777 487.574 104.777 486.288 104.777 484.674C104.777 482.859 103.391 481.588 101.462 481.588C99.405 481.588 97.9762 483.031 97.9762 484.816C97.9762 484.988 97.9905 485.202 98.0191 485.402L99.5478 485.659C99.505 485.431 99.4907 485.217 99.4907 485.016C99.4907 483.831 100.191 482.973 101.419 482.973C102.548 482.973 103.248 483.645 103.248 484.631C103.248 485.917 102.077 487.174 100.962 488.245L98.0762 490.974V492.332H104.806V490.96H100.148ZM65.8041 495.588C62.8895 495.588 60.3464 497.659 60.3464 501.06C60.3464 504.431 62.8038 506.546 65.7755 506.546C67.8472 506.546 69.5474 505.56 70.4618 503.903L69.2045 503.045C68.6616 504.388 67.3329 505.16 65.7898 505.16C63.6468 505.16 61.9037 503.646 61.9037 501.074C61.9037 498.445 63.6896 496.973 65.8041 496.973C67.3329 496.973 68.6187 497.745 69.1759 499.045L70.4189 498.174C69.5331 496.488 67.7186 495.588 65.8041 495.588ZM75.8652 498.659C74.6794 498.659 73.9222 499.159 73.465 499.917V495.83H71.9791V506.332H73.465V502.345C73.465 500.86 74.2365 500.017 75.4795 500.017C76.6367 500.017 77.1939 500.674 77.1939 502.031V506.332H78.6798V501.817C78.6798 499.817 77.6797 498.659 75.8652 498.659ZM86.986 506.332L86.7431 504.903V501.188C86.7431 499.545 85.5573 498.659 83.6428 498.659C81.9426 498.659 80.6282 499.631 80.4282 501.045L81.7712 501.56C81.7712 500.445 82.5713 499.845 83.6428 499.845C84.5572 499.845 85.2858 500.174 85.2858 500.96C85.2858 501.674 84.9715 501.76 82.7284 502.145C81.2569 502.417 80.2853 503.131 80.2853 504.403C80.2853 505.703 81.314 506.546 82.7999 506.546C83.8286 506.546 84.8001 506.174 85.3573 505.389L85.6859 506.332H86.986ZM83.1285 505.389C82.3141 505.389 81.8569 504.931 81.8569 504.331C81.8569 503.617 82.3998 503.331 83.1428 503.174C84.6143 502.903 85.0573 502.831 85.2858 502.631V503.346C85.2858 504.503 84.5286 505.389 83.1285 505.389ZM92.4771 498.745C91.7485 498.745 90.7912 499.031 90.234 500.131V498.902H88.7481V506.332H90.234V502.731C90.234 500.96 91.0913 500.202 92.3057 500.202C92.5771 500.202 92.8057 500.245 93.0629 500.317V498.816C92.8486 498.759 92.7057 498.745 92.4771 498.745ZM100.144 498.902V499.817C99.5579 499.117 98.6864 498.659 97.5862 498.659C95.3431 498.659 93.9001 500.317 93.9001 502.445C93.9001 504.546 95.3431 506.189 97.5862 506.189C98.6864 506.189 99.5579 505.731 100.144 505.031V506.046C100.144 507.46 99.215 508.346 97.7148 508.346C96.4433 508.346 95.6003 507.746 95.2288 506.603L93.9573 507.46C94.5288 508.875 95.8003 509.618 97.7005 509.618C100.115 509.618 101.63 508.275 101.63 506.146V498.902H100.144ZM97.8434 504.846C96.3575 504.846 95.4289 503.803 95.4289 502.445C95.4289 501.045 96.3575 500.002 97.8434 500.002C99.2721 500.002 100.201 501.017 100.201 502.445C100.201 503.803 99.2721 504.846 97.8434 504.846ZM110.464 502.488C110.464 500.217 109.107 498.659 106.907 498.659C104.764 498.659 103.206 500.345 103.206 502.631C103.206 504.931 104.692 506.546 107.007 506.546C108.364 506.546 109.664 506.017 110.364 504.846L109.264 503.888C108.85 504.831 108.135 505.274 107.035 505.274C105.849 505.274 104.921 504.574 104.764 503.088H110.436C110.464 502.86 110.464 502.674 110.464 502.488ZM106.878 499.931C108.107 499.931 108.864 500.731 108.864 501.974H104.778C104.978 500.602 105.835 499.931 106.878 499.931ZM115.861 498.745C115.133 498.745 114.175 499.031 113.618 500.131V498.902H112.132V506.332H113.618V502.731C113.618 500.96 114.475 500.202 115.69 500.202C115.961 500.202 116.19 500.245 116.447 500.317V498.816C116.233 498.759 116.09 498.745 115.861 498.745Z" fill="#242320"/>
<rect x="267.775" y="346.817" width="98.2245" height="23.2167" rx="7.1436" fill="#CCDADE"/>
<path d="M274.319 353.299V358.453C274.319 360.275 275.412 361.336 277.191 361.336C278.948 361.336 280.052 360.285 280.052 358.453V353.299H278.905V358.389C278.905 359.535 278.348 360.275 277.191 360.275C276.023 360.275 275.476 359.535 275.476 358.389V353.299H274.319ZM283.772 355.421C282.539 355.421 281.5 356.149 281.5 357.157C281.5 359.396 285.036 358.442 285.036 359.685C285.036 360.2 284.533 360.435 283.879 360.435C283.043 360.435 282.454 360.028 282.411 359.182L281.329 359.643C281.511 360.66 282.454 361.336 283.879 361.336C285.261 361.336 286.236 360.735 286.236 359.61C286.236 357.414 282.647 358.314 282.647 357.092C282.647 356.642 283.065 356.31 283.772 356.31C284.575 356.31 285.058 356.728 285.111 357.435L286.161 357.039C286.001 356.064 285.09 355.421 283.772 355.421ZM292.528 358.292C292.528 356.589 291.51 355.421 289.86 355.421C288.253 355.421 287.085 356.685 287.085 358.4C287.085 360.125 288.199 361.336 289.935 361.336C290.953 361.336 291.928 360.939 292.453 360.06L291.628 359.342C291.318 360.05 290.782 360.382 289.957 360.382C289.067 360.382 288.371 359.857 288.253 358.742H292.507C292.528 358.571 292.528 358.432 292.528 358.292ZM289.839 356.374C290.76 356.374 291.328 356.974 291.328 357.907H288.264C288.414 356.878 289.057 356.374 289.839 356.374ZM298.28 353.299V356.353C297.83 355.785 297.165 355.421 296.265 355.421C294.572 355.421 293.447 356.717 293.447 358.389C293.447 360.05 294.583 361.336 296.265 361.336C297.165 361.336 297.841 360.971 298.291 360.403V361.175H299.394V353.299H298.28ZM296.458 360.318C295.322 360.318 294.594 359.492 294.594 358.389C294.594 357.274 295.322 356.428 296.458 356.428C297.551 356.428 298.323 357.264 298.323 358.389C298.323 359.503 297.551 360.318 296.458 360.318ZM305.196 353.299L303.128 355.839V357.435L305.089 355.056V361.175H306.225V353.299H305.196ZM310.821 353.117C309.043 353.117 308.11 354.531 308.11 357.242C308.11 359.932 309.043 361.336 310.821 361.336C312.589 361.336 313.522 359.932 313.522 357.242C313.522 354.531 312.589 353.117 310.821 353.117ZM310.821 354.156C311.839 354.156 312.364 355.185 312.364 357.242C312.364 359.267 311.839 360.296 310.821 360.296C309.793 360.296 309.268 359.267 309.268 357.242C309.268 355.185 309.793 354.156 310.821 354.156ZM323.487 355.421C322.63 355.421 321.998 355.828 321.676 356.417C321.355 355.806 320.787 355.421 319.994 355.421C319.351 355.421 318.729 355.678 318.365 356.364V355.603H317.251V361.175H318.365V358.142C318.387 357.103 318.815 356.439 319.672 356.439C320.38 356.439 320.798 356.867 320.798 357.799V361.175H321.912V358.035C321.912 357.028 322.351 356.439 323.198 356.439C323.937 356.439 324.344 356.867 324.344 357.789V361.175H325.459V357.585C325.459 356.171 324.687 355.421 323.487 355.421ZM326.855 353.299V354.521H328.109V353.299H326.855ZM326.92 355.603V361.175H328.034V355.603H326.92ZM332.472 355.421C331.636 355.421 331.036 355.742 330.661 356.374V355.603H329.546V361.175H330.661V358.185C330.661 357.082 331.229 356.439 332.182 356.439C333.04 356.439 333.457 356.932 333.457 357.949V361.175H334.572V357.789C334.572 356.289 333.822 355.421 332.472 355.421ZM335.938 359.782V361.175H337.331V359.782H335.938ZM345.972 361.175L345.79 360.103V357.317C345.79 356.085 344.901 355.421 343.465 355.421C342.19 355.421 341.204 356.149 341.054 357.21L342.061 357.596C342.061 356.76 342.661 356.31 343.465 356.31C344.15 356.31 344.697 356.556 344.697 357.146C344.697 357.682 344.461 357.746 342.779 358.035C341.675 358.239 340.947 358.775 340.947 359.728C340.947 360.703 341.718 361.336 342.832 361.336C343.604 361.336 344.333 361.057 344.751 360.468L344.997 361.175H345.972ZM343.079 360.468C342.468 360.468 342.125 360.125 342.125 359.675C342.125 359.139 342.532 358.925 343.09 358.807C344.193 358.603 344.525 358.55 344.697 358.4V358.935C344.697 359.803 344.129 360.468 343.079 360.468ZM351.644 355.603V356.289C351.205 355.764 350.551 355.421 349.726 355.421C348.044 355.421 346.961 356.664 346.961 358.26C346.961 359.835 348.044 361.068 349.726 361.068C350.551 361.068 351.205 360.725 351.644 360.2V360.96C351.644 362.021 350.948 362.686 349.823 362.686C348.869 362.686 348.237 362.236 347.958 361.378L347.004 362.021C347.433 363.082 348.387 363.639 349.812 363.639C351.623 363.639 352.759 362.632 352.759 361.036V355.603H351.644ZM349.919 360.06C348.805 360.06 348.108 359.278 348.108 358.26C348.108 357.21 348.805 356.428 349.919 356.428C350.99 356.428 351.687 357.189 351.687 358.26C351.687 359.278 350.99 360.06 349.919 360.06ZM356.931 355.421C355.238 355.421 353.941 356.631 353.941 358.378C353.941 360.125 355.238 361.336 356.931 361.336C358.635 361.336 359.942 360.125 359.942 358.378C359.942 356.631 358.635 355.421 356.931 355.421ZM356.931 356.439C358.013 356.439 358.785 357.199 358.785 358.378C358.785 359.557 358.013 360.307 356.931 360.307C355.881 360.307 355.088 359.557 355.088 358.378C355.088 357.199 355.859 356.439 356.931 356.439Z" fill="#242320"/>
<rect x="272.24" y="477.653" width="93.7598" height="23.2167" rx="7.1436" fill="#CCDADE"/>
<path d="M282.942 483.952C280.757 483.952 278.849 485.506 278.849 488.056C278.849 490.585 280.692 492.171 282.921 492.171C284.475 492.171 285.75 491.432 286.436 490.189L285.493 489.546C285.086 490.553 284.089 491.132 282.932 491.132C281.324 491.132 280.017 489.996 280.017 488.067C280.017 486.095 281.357 484.992 282.942 484.992C284.089 484.992 285.053 485.57 285.471 486.545L286.404 485.892C285.739 484.627 284.378 483.952 282.942 483.952ZM291.271 486.438V489.481C291.271 490.553 290.735 491.207 289.792 491.207C288.988 491.207 288.581 490.757 288.581 489.846V486.438H287.467V489.996C287.467 491.357 288.249 492.171 289.545 492.171C290.285 492.171 290.885 491.914 291.271 491.282V492.01H292.385V486.438H291.271ZM296.679 486.32C296.133 486.32 295.415 486.535 294.997 487.36V486.438H293.882V492.01H294.997V489.31C294.997 487.981 295.64 487.413 296.551 487.413C296.754 487.413 296.926 487.445 297.118 487.499V486.374C296.958 486.331 296.851 486.32 296.679 486.32ZM300.875 486.32C300.329 486.32 299.611 486.535 299.193 487.36V486.438H298.079V492.01H299.193V489.31C299.193 487.981 299.836 487.413 300.747 487.413C300.95 487.413 301.122 487.445 301.315 487.499V486.374C301.154 486.331 301.047 486.32 300.875 486.32ZM307.198 489.128C307.198 487.424 306.18 486.256 304.53 486.256C302.922 486.256 301.754 487.52 301.754 489.235C301.754 490.96 302.869 492.171 304.605 492.171C305.622 492.171 306.598 491.775 307.123 490.896L306.298 490.178C305.987 490.885 305.451 491.217 304.626 491.217C303.737 491.217 303.04 490.692 302.922 489.578H307.176C307.198 489.406 307.198 489.267 307.198 489.128ZM304.508 487.21C305.43 487.21 305.998 487.81 305.998 488.742H302.933C303.083 487.713 303.726 487.21 304.508 487.21ZM311.374 486.256C310.538 486.256 309.938 486.578 309.563 487.21V486.438H308.449V492.01H309.563V489.021C309.563 487.917 310.131 487.274 311.085 487.274C311.942 487.274 312.36 487.767 312.36 488.785V492.01H313.474V488.624C313.474 487.124 312.724 486.256 311.374 486.256ZM318.13 487.413V486.438H316.544V484.349L315.43 485.195V486.438H314.433V487.413H315.43V490.435C315.43 491.667 316.062 492.15 317.241 492.15C317.412 492.15 317.862 492.107 318.034 492.042V491.057C317.862 491.099 317.573 491.132 317.402 491.132C316.823 491.132 316.544 491.003 316.544 490.285V487.413H318.13ZM319.364 484.134V492.01H320.479V484.134H319.364ZM326.06 486.438L324.421 490.607L322.706 486.438H321.452L323.81 491.925L322.835 494.314H324.035L327.292 486.438H326.06ZM330.579 484.134V485.356H331.833V484.134H330.579ZM330.643 486.438V492.01H331.758V486.438H330.643ZM336.195 486.256C335.359 486.256 334.759 486.578 334.384 487.21V486.438H333.27V492.01H334.384V489.021C334.384 487.917 334.952 487.274 335.906 487.274C336.763 487.274 337.181 487.767 337.181 488.785V492.01H338.295V488.624C338.295 487.124 337.545 486.256 336.195 486.256ZM345.925 486.438V489.481C345.925 490.553 345.39 491.207 344.447 491.207C343.643 491.207 343.236 490.757 343.236 489.846V486.438H342.121V489.996C342.121 491.357 342.904 492.171 344.2 492.171C344.94 492.171 345.54 491.914 345.925 491.282V492.01H347.04V486.438H345.925ZM350.605 486.256C349.373 486.256 348.334 486.985 348.334 487.992C348.334 490.231 351.87 489.278 351.87 490.521C351.87 491.035 351.366 491.271 350.712 491.271C349.877 491.271 349.287 490.864 349.244 490.017L348.162 490.478C348.344 491.496 349.287 492.171 350.712 492.171C352.095 492.171 353.07 491.571 353.07 490.446C353.07 488.249 349.48 489.149 349.48 487.928C349.48 487.478 349.898 487.145 350.605 487.145C351.409 487.145 351.891 487.563 351.945 488.271L352.995 487.874C352.834 486.899 351.923 486.256 350.605 486.256ZM359.362 489.128C359.362 487.424 358.344 486.256 356.694 486.256C355.087 486.256 353.919 487.52 353.919 489.235C353.919 490.96 355.033 492.171 356.769 492.171C357.787 492.171 358.762 491.775 359.287 490.896L358.462 490.178C358.151 490.885 357.615 491.217 356.79 491.217C355.901 491.217 355.204 490.692 355.087 489.578H359.341C359.362 489.406 359.362 489.267 359.362 489.128ZM356.672 487.21C357.594 487.21 358.162 487.81 358.162 488.742H355.097C355.247 487.713 355.89 487.21 356.672 487.21Z" fill="#242320"/>
<path d="M107.491 403.394L107.491 454.292" stroke="#CCDADE" stroke-width="0.89295"/>
<line x1="107.446" y1="534.658" x2="107.446" y2="585.556" stroke="#242320" stroke-width="0.89295"/>
<rect x="224.914" y="527.514" width="141.086" height="65.1854" rx="7.1436" fill="#93A6AB"/>
<rect x="24" y="390.25" width="342" height="65.1854" rx="7.1436" fill="#B6C9CE"/>
<line x1="107.446" y1="397.658" x2="107.446" y2="448.556" stroke="#242320" stroke-width="0.89295"/>
<circle cx="31.1436" cy="397.394" r="7.1436" fill="#FFD93E"/>
<path d="M142.311 428.146H144.426L140.254 417.645H138.182L133.982 428.146H136.082L136.968 425.803H141.425L142.311 428.146ZM137.625 424.074L139.211 419.888L140.782 424.074H137.625ZM150.17 420.717L148.198 425.974L146.212 420.717H144.169L147.212 428.146H149.169L152.155 420.717H150.17ZM159.856 428.146L159.599 426.632V423.074C159.599 421.374 158.342 420.459 156.37 420.459C154.613 420.459 153.327 421.445 153.056 422.845L154.699 423.474C154.699 422.503 155.356 421.902 156.37 421.902C157.213 421.902 157.785 422.231 157.785 422.874C157.785 423.503 157.47 423.531 155.427 423.888C153.913 424.16 152.941 424.889 152.941 426.174C152.941 427.532 153.984 428.346 155.484 428.346C156.485 428.346 157.385 427.946 157.885 427.274L158.199 428.146H159.856ZM155.913 426.96C155.256 426.96 154.884 426.574 154.884 426.074C154.884 425.489 155.313 425.217 155.956 425.089C157.17 424.874 157.57 424.803 157.785 424.631V425.174C157.785 426.189 157.185 426.96 155.913 426.96ZM161.431 417.645V419.502H163.36V417.645H161.431ZM161.459 420.717V428.146H163.317V420.717H161.459ZM165.214 417.645V428.146H167.071V417.645H165.214ZM175.581 428.146L175.323 426.632V423.074C175.323 421.374 174.066 420.459 172.095 420.459C170.337 420.459 169.051 421.445 168.78 422.845L170.423 423.474C170.423 422.503 171.08 421.902 172.095 421.902C172.938 421.902 173.509 422.231 173.509 422.874C173.509 423.503 173.195 423.531 171.152 423.888C169.637 424.16 168.666 424.889 168.666 426.174C168.666 427.532 169.709 428.346 171.209 428.346C172.209 428.346 173.109 427.946 173.609 427.274L173.923 428.146H175.581ZM171.637 426.96C170.98 426.96 170.609 426.574 170.609 426.074C170.609 425.489 171.037 425.217 171.68 425.089C172.895 424.874 173.295 424.803 173.509 424.631V425.174C173.509 426.189 172.909 426.96 171.637 426.96ZM181.584 420.445C180.498 420.445 179.684 420.86 179.112 421.502V417.645H177.255V428.146H179.098V427.303C179.67 427.946 180.484 428.36 181.57 428.36C183.784 428.36 185.327 426.674 185.327 424.431C185.327 422.16 183.784 420.445 181.584 420.445ZM181.213 426.674C180.027 426.674 179.055 425.803 179.055 424.431C179.055 423.031 180.027 422.131 181.213 422.131C182.47 422.131 183.399 423.06 183.399 424.431C183.399 425.774 182.47 426.674 181.213 426.674ZM186.812 417.645V428.146H188.67V417.645H186.812ZM197.45 424.288C197.45 422.017 196.079 420.445 193.921 420.445C191.721 420.445 190.15 422.131 190.15 424.46C190.15 426.732 191.621 428.36 194.007 428.36C195.407 428.36 196.622 427.846 197.35 426.774L196.036 425.574C195.65 426.432 195.036 426.817 194.064 426.817C193.036 426.817 192.293 426.303 192.121 425.003H197.407C197.45 424.717 197.45 424.517 197.45 424.288ZM193.864 421.988C194.893 421.988 195.479 422.674 195.479 423.688H192.135C192.321 422.503 192.993 421.988 193.864 421.988Z" fill="#242320"/>
<path d="M55.8298 409.391C49.9006 409.391 46.7932 414.105 46.7932 423.142C46.7932 432.107 49.9006 436.786 55.8298 436.786C61.7233 436.786 64.8308 432.107 64.8308 423.142C64.8308 414.105 61.7233 409.391 55.8298 409.391ZM55.8298 412.855C59.223 412.855 60.9732 416.284 60.9732 423.142C60.9732 429.893 59.223 433.322 55.8298 433.322C52.4009 433.322 50.6507 429.893 50.6507 423.142C50.6507 416.284 52.4009 412.855 55.8298 412.855ZM72.5983 432.822L78.0989 427.714C81.6707 424.356 84.1709 421.142 84.1709 417.106C84.1709 412.569 80.7063 409.391 75.8844 409.391C70.741 409.391 67.1692 412.998 67.1692 417.463C67.1692 417.891 67.2049 418.427 67.2763 418.927L71.0982 419.57C70.991 418.999 70.9553 418.463 70.9553 417.963C70.9553 414.998 72.7055 412.855 75.7772 412.855C78.5989 412.855 80.3491 414.534 80.3491 416.998C80.3491 420.213 77.4202 423.356 74.6342 426.035L67.4192 432.857V436.25H84.2424V432.822H72.5983Z" fill="#242320"/>
<rect x="224.914" y="390.25" width="141.086" height="65.1854" rx="7.1436" fill="#FFD93E"/>
<path d="M268.476 417.373C265.475 417.373 262.989 419.517 262.989 422.86C262.989 426.146 265.347 428.36 268.461 428.36C270.59 428.36 272.333 427.36 273.262 425.589L271.676 424.531C271.219 425.846 269.933 426.617 268.433 426.617C266.404 426.617 264.947 425.146 264.947 422.874C264.947 420.545 266.447 419.116 268.461 419.116C269.976 419.116 271.162 419.931 271.619 421.16L273.205 420.102C272.333 418.331 270.49 417.373 268.476 417.373ZM278.737 420.445C277.694 420.445 276.936 420.86 276.465 421.631V417.645H274.608V428.146H276.465V424.217C276.465 422.917 277.093 422.16 278.179 422.16C279.208 422.16 279.651 422.731 279.651 424.06V428.146H281.508V423.788C281.508 421.617 280.551 420.445 278.737 420.445ZM290.171 424.288C290.171 422.017 288.799 420.445 286.642 420.445C284.441 420.445 282.87 422.131 282.87 424.46C282.87 426.732 284.341 428.36 286.727 428.36C288.128 428.36 289.342 427.846 290.071 426.774L288.756 425.574C288.37 426.432 287.756 426.817 286.785 426.817C285.756 426.817 285.013 426.303 284.842 425.003H290.128C290.171 424.717 290.171 424.517 290.171 424.288ZM286.585 421.988C287.613 421.988 288.199 422.674 288.199 423.688H284.856C285.042 422.503 285.713 421.988 286.585 421.988ZM295.284 420.445C292.955 420.445 291.283 422.074 291.283 424.403C291.283 426.746 292.898 428.36 295.284 428.36C296.941 428.36 298.241 427.446 298.741 426.26L297.141 425.331C296.927 426.074 296.169 426.66 295.284 426.66C294.055 426.66 293.212 425.831 293.212 424.403C293.212 422.974 294.069 422.145 295.284 422.145C296.198 422.145 296.969 422.674 297.141 423.517L298.784 422.56C298.298 421.36 296.927 420.445 295.284 420.445ZM305.167 428.146H307.439L304.167 423.817L307.367 420.717H304.881L302.095 423.446V417.645H300.238V428.146H302.095V425.817L302.867 425.074L305.167 428.146ZM307.963 425.26H313.263V423.474H307.963V425.26ZM314.941 417.645V419.502H316.87V417.645H314.941ZM314.97 420.717V428.146H316.827V420.717H314.97ZM322.825 420.445C321.754 420.445 320.997 420.86 320.511 421.674V420.717H318.653V428.146H320.511V424.217C320.511 422.931 321.125 422.16 322.24 422.16C323.254 422.16 323.697 422.731 323.697 424.06V428.146H325.554V423.788C325.554 421.617 324.597 420.445 322.825 420.445Z" fill="#242320"/>
<path d="M265.254 554.474C262.254 554.474 259.768 556.617 259.768 559.96C259.768 563.246 262.125 565.461 265.24 565.461C267.369 565.461 269.112 564.461 270.04 562.689L268.454 561.632C267.997 562.946 266.711 563.718 265.211 563.718C263.182 563.718 261.725 562.246 261.725 559.975C261.725 557.646 263.225 556.217 265.24 556.217C266.754 556.217 267.94 557.031 268.397 558.26L269.983 557.203C269.112 555.431 267.268 554.474 265.254 554.474ZM275.515 557.546C274.472 557.546 273.715 557.96 273.243 558.732V554.745H271.386V565.247H273.243V561.318C273.243 560.017 273.872 559.26 274.958 559.26C275.986 559.26 276.429 559.832 276.429 561.16V565.247H278.287V560.889C278.287 558.717 277.329 557.546 275.515 557.546ZM286.949 561.389C286.949 559.117 285.577 557.546 283.42 557.546C281.22 557.546 279.648 559.232 279.648 561.56C279.648 563.832 281.12 565.461 283.506 565.461C284.906 565.461 286.12 564.947 286.849 563.875L285.534 562.675C285.149 563.532 284.534 563.918 283.563 563.918C282.534 563.918 281.791 563.404 281.62 562.103H286.906C286.949 561.818 286.949 561.618 286.949 561.389ZM283.363 559.089C284.391 559.089 284.977 559.775 284.977 560.789H281.634C281.82 559.603 282.491 559.089 283.363 559.089ZM292.062 557.546C289.733 557.546 288.061 559.175 288.061 561.503C288.061 563.846 289.676 565.461 292.062 565.461C293.719 565.461 295.019 564.547 295.519 563.361L293.919 562.432C293.705 563.175 292.948 563.761 292.062 563.761C290.833 563.761 289.99 562.932 289.99 561.503C289.99 560.075 290.847 559.246 292.062 559.246C292.976 559.246 293.748 559.775 293.919 560.618L295.562 559.66C295.076 558.46 293.705 557.546 292.062 557.546ZM301.945 565.247H304.217L300.945 560.918L304.146 557.817H301.66L298.874 560.546V554.745H297.016V565.247H298.874V562.918L299.645 562.175L301.945 565.247ZM304.741 562.361H310.042V560.575H304.741V562.361ZM316.963 554.474C313.934 554.474 311.405 556.674 311.405 559.96C311.405 563.261 313.92 565.461 316.963 565.461C320.006 565.461 322.507 563.261 322.507 559.96C322.507 556.674 319.992 554.474 316.963 554.474ZM316.963 556.217C319.049 556.217 320.563 557.689 320.563 559.96C320.563 562.232 319.063 563.718 316.963 563.718C314.877 563.718 313.363 562.232 313.363 559.96C313.363 557.689 314.891 556.217 316.963 556.217ZM328.841 557.817V561.861C328.841 563.061 328.27 563.861 327.156 563.861C326.241 563.861 325.798 563.346 325.798 562.303V557.817H323.941V562.532C323.941 564.361 324.998 565.461 326.698 565.461C327.598 565.461 328.356 565.147 328.841 564.404V565.247H330.699V557.817H328.841ZM337.238 559.389V557.817H335.152V554.988L333.294 556.389V557.817H331.951V559.389H333.294V562.961C333.294 564.718 334.209 565.432 335.909 565.432C336.152 565.432 336.895 565.361 337.152 565.261V563.646C336.881 563.704 336.423 563.761 336.166 563.761C335.452 563.761 335.152 563.546 335.152 562.703V559.389H337.238Z" fill="#B6C9CE"/>
</g>
<defs>
<clipPath id="clip0_1461_187210">
<rect width="386" height="624" rx="16" fill="white"/>
</clipPath>
</defs>
</svg>
