<svg width="343" height="321" viewBox="0 0 343 321" fill="none" xmlns="http://www.w3.org/2000/svg">
<g clip-path="url(#clip0_1468_185043)">
<rect y="0.921875" width="343" height="320" rx="12" fill="#0E0E0E"/>
<path d="M209.315 0.921875H56.7272L28.2319 29.2704L56.7272 57.619H209.315C229.648 57.6434 249.141 65.69 263.519 79.9938C277.897 94.2975 285.985 113.691 286.01 133.919L286.01 320.987H343L343 133.919C343 60.5814 283.032 0.921875 209.315 0.921875Z" fill="#FF5C00"/>
<path d="M67.9541 12.7174H68.7017V19.1816H67.8838V13.9927L66.2743 15.9451V14.7842L67.9541 12.7174ZM72.528 12.5679C73.9615 12.5679 74.7267 13.7464 74.7267 15.9539C74.7267 18.1438 73.9615 19.3136 72.528 19.3136C71.0944 19.3136 70.3292 18.1438 70.3292 15.9539C70.3292 13.7464 71.0944 12.5679 72.528 12.5679ZM72.528 13.3243C71.6309 13.3243 71.1648 14.2213 71.1648 15.9539C71.1648 17.6689 71.6309 18.5572 72.528 18.5572C73.4162 18.5572 73.8912 17.6689 73.8912 15.9539C73.8912 14.2213 73.4162 13.3243 72.528 13.3243ZM77.8358 12.5679C79.2694 12.5679 80.0345 13.7464 80.0345 15.9539C80.0345 18.1438 79.2694 19.3136 77.8358 19.3136C76.4022 19.3136 75.6371 18.1438 75.6371 15.9539C75.6371 13.7464 76.4022 12.5679 77.8358 12.5679ZM77.8358 13.3243C76.9387 13.3243 76.4726 14.2213 76.4726 15.9539C76.4726 17.6689 76.9387 18.5572 77.8358 18.5572C78.7241 18.5572 79.199 17.6689 79.199 15.9539C79.199 14.2213 78.7241 13.3243 77.8358 13.3243ZM86.6792 12.7174H87.9105V19.1816H87.0925V13.7288L85.0697 19.1201H84.1287L82.1146 13.7288V19.1816H81.2967V12.7174H82.5368L84.6124 18.2318L86.6792 12.7174ZM96.0113 12.7174V13.4826H93.9005V19.1816H93.065V13.4826H90.9542V12.7174H96.0113ZM101.173 12.7174H102.009V19.1816H101.173V16.3321H97.884V19.1816H97.0485V12.7174H97.884V15.5845H101.173V12.7174ZM103.627 12.7174H104.454V19.1816H103.627V12.7174ZM108.23 12.5679C109.655 12.5679 110.561 13.421 110.631 14.406L109.857 14.7402C109.857 13.9047 109.241 13.2979 108.23 13.2979C107.35 13.2979 106.717 13.6936 106.717 14.3884C106.717 16.0946 110.728 14.8106 110.728 17.3875C110.728 18.6012 109.69 19.3136 108.283 19.3136C106.858 19.3136 105.855 18.522 105.723 17.238L106.515 16.8422C106.515 17.8888 107.139 18.5924 108.283 18.5924C109.215 18.5924 109.875 18.1526 109.875 17.4315C109.875 15.5757 105.864 16.9653 105.864 14.4412C105.864 13.2627 106.981 12.5679 108.23 12.5679ZM120.863 12.7174H121.751L120.01 19.1816H119.007L117.521 14.0542L116.017 19.1816H115.014L113.264 12.7174H114.144L115.56 18.0207L117.072 12.8054H117.952L119.473 18.0207L120.863 12.7174ZM127.104 19.1816L126.409 17.4139H123.436L122.733 19.1816H121.827L124.483 12.7174H125.371L128.01 19.1816H127.104ZM123.735 16.6839H126.119L124.931 13.6848L123.735 16.6839ZM132.377 12.7174H133.327L130.838 16.4992V19.1816H130.011V16.5168L127.549 12.7174H128.499L130.425 15.7516L132.377 12.7174Z" fill="#242320"/>
<path d="M76.7999 31.1167H68.9196V36.0418H76.0816V37.7861H68.9196V44.4351H66.9701V29.3519H76.7999V31.1167ZM91.0957 44.4351H89.1051L87.7713 40.3718L87.566 42.978C86.7452 43.9836 85.4523 44.7429 83.6054 44.7429C80.3425 44.7429 78.2083 42.2598 78.2083 39.0995C78.2083 35.9187 80.3425 33.4151 83.6054 33.4151C85.4113 33.4151 86.7657 34.1744 87.6276 35.3236V33.7639H89.5156V39.8178L91.0957 44.4351ZM83.9132 43.0191C86.1911 43.0191 87.6892 41.3158 87.6892 39.0995C87.6892 36.8832 86.1911 35.1389 83.9132 35.1389C81.5533 35.1389 80.1373 36.8832 80.1373 39.0995C80.1373 41.2953 81.5533 43.0191 83.9132 43.0191ZM96.9126 33.4151C99.3956 33.4151 101.119 34.6669 101.386 36.5343L99.5803 37.2115C99.4983 35.8366 98.5337 34.9747 96.9126 34.9747C95.4555 34.9747 94.5936 35.6724 94.5936 36.5754C94.5936 39.0995 101.53 37.2936 101.53 41.48C101.53 43.5732 99.765 44.7429 97.0973 44.7429C94.3474 44.7429 92.6236 43.3885 92.2953 41.4595L94.1422 40.6796C94.2243 42.3008 95.3735 43.1833 97.0973 43.1833C98.4517 43.1833 99.4983 42.7113 99.4983 41.6031C99.4983 39.0995 92.6441 40.9669 92.6441 36.6985C92.6441 34.79 94.5936 33.4151 96.9126 33.4151ZM109.785 35.4467H106.727V41.2953C106.727 42.7523 107.322 42.978 108.471 42.978C108.759 42.978 109.272 42.896 109.579 42.8344V44.4966C109.251 44.6198 108.492 44.7018 108.184 44.7018C106.029 44.7018 104.839 43.8399 104.839 41.5415V35.4467H102.951V33.7639H104.839V31.2193L106.727 29.8033V33.7639H109.785V35.4467ZM124.025 29.003C126.734 29.003 129.32 30.2753 130.592 32.6558L129.033 33.7845C128.171 31.8555 126.262 30.7678 124.066 30.7678C120.947 30.7678 118.197 32.9226 118.197 36.8832C118.197 40.7823 120.886 42.978 124.046 42.978C126.283 42.978 128.232 41.8904 129.074 39.9204L130.654 41.0285C129.34 43.3269 126.919 44.7429 123.984 44.7429C119.819 44.7429 116.227 41.7673 116.227 36.8627C116.227 31.9581 119.921 29.003 124.025 29.003ZM138.333 33.4356C140.96 33.4356 142.437 35.0773 142.437 37.8477V44.4351H140.549V38.135C140.549 36.1444 139.667 35.1594 137.882 35.1594C136.035 35.1594 134.844 36.4112 134.844 38.6891V44.4351H132.956V29.3519H134.844V36.9858L135.398 34.6874C135.911 34.0512 136.691 33.4356 138.333 33.4356ZM157.57 44.4351H155.579L154.245 40.3718L154.04 42.978C153.219 43.9836 151.926 44.7429 150.079 44.7429C146.817 44.7429 144.682 42.2598 144.682 39.0995C144.682 35.9187 146.817 33.4151 150.079 33.4151C151.885 33.4151 153.24 34.1744 154.102 35.3236V33.7639H155.99V39.8178L157.57 44.4351ZM150.387 43.0191C152.665 43.0191 154.163 41.3158 154.163 39.0995C154.163 36.8832 152.665 35.1389 150.387 35.1389C148.027 35.1389 146.611 36.8832 146.611 39.0995C146.611 41.2953 148.027 43.0191 150.387 43.0191ZM164.761 33.5587C165.049 33.5587 165.254 33.5793 165.521 33.6408V35.5698C165.192 35.4877 164.885 35.4467 164.556 35.4467C162.73 35.4467 161.375 36.4933 161.375 39.2637V44.4351H159.488V33.7639H161.375V37.4578L161.93 34.7285C162.422 34.2154 163.366 33.5587 164.761 33.5587ZM175.899 33.7639H177.787V44.1683C177.787 47.226 175.653 49.155 172.246 49.155C169.496 49.155 167.69 48.0879 166.869 45.9947L168.511 44.8865C169.065 46.6308 170.317 47.5133 172.246 47.5133C174.503 47.5133 175.899 46.1794 175.899 44.0657V40.6181L175.181 43.2243C174.75 43.6347 173.58 44.2709 172.082 44.2709C168.839 44.2709 166.767 41.8699 166.767 38.8532C166.767 35.8161 168.839 33.4151 172.082 33.4151C173.744 33.4151 175.037 34.1333 175.899 35.221V33.7639ZM172.39 42.5471C174.626 42.5471 175.96 40.9259 175.96 38.8532C175.96 36.7395 174.626 35.1389 172.39 35.1389C170.071 35.1389 168.696 36.7806 168.696 38.8532C168.696 40.9259 170.071 42.5471 172.39 42.5471ZM190.538 38.9148C190.538 39.1611 190.538 39.4278 190.497 39.7151H182.103C182.329 41.9725 183.766 43.1012 185.612 43.1012C187.254 43.1012 188.362 42.424 188.978 41.008L190.394 42.2188C189.429 43.9631 187.5 44.7429 185.571 44.7429C182.309 44.7429 180.154 42.424 180.154 39.12C180.154 35.8571 182.37 33.4151 185.428 33.4151C188.609 33.4151 190.538 35.6519 190.538 38.9148ZM185.387 35.0773C183.786 35.0773 182.432 36.1444 182.144 38.2376H188.506C188.506 36.2881 187.275 35.0773 185.387 35.0773ZM198.309 33.5587C198.596 33.5587 198.802 33.5793 199.068 33.6408V35.5698C198.74 35.4877 198.432 35.4467 198.104 35.4467C196.277 35.4467 194.923 36.4933 194.923 39.2637V44.4351H193.035V33.7639H194.923V37.4578L195.477 34.7285C195.97 34.2154 196.914 33.5587 198.309 33.5587Z" fill="#242320"/>
<path d="M242.973 313.543L239.687 311.374C235.198 308.396 229.922 306.805 224.525 306.801H188.694C184.301 303.231 180.718 298.778 178.179 293.734L103.369 144.93C101.954 146.445 100.585 147.97 99.2617 149.503L138.964 228.472L94.6481 155.187C93.3797 156.84 92.1508 158.493 90.9744 160.172L136.223 235.005L86.9325 166.261C85.8219 168.032 84.7506 169.822 83.7385 171.619L133.982 241.709L80.3473 178.054C79.4141 179.949 78.5203 181.85 77.7185 183.764L132.346 248.588L74.9714 190.474C74.2222 192.469 73.5233 194.472 72.8749 196.485L131.156 255.572L70.8573 203.358C70.3096 205.444 69.8167 207.528 69.3786 209.61L130.61 262.609L68.0641 216.562C67.7158 218.705 67.4069 220.854 67.1703 222.997L130.571 269.678L66.5197 229.909C66.3751 232.098 66.2765 234.28 66.2371 236.443L131.064 276.701L66.2568 243.244C66.3225 245.452 66.4277 247.654 66.5854 249.836L132.083 283.659L67.2426 256.441C67.5055 258.65 67.8341 260.845 68.1956 263.02L133.673 290.506L69.3786 269.345C69.8474 271.523 70.3644 273.7 70.9296 275.878L135.756 297.19L72.6646 281.843C73.3349 284.021 74.0513 286.151 74.8136 288.233L138.313 303.691L77.0021 293.845C77.8828 295.949 78.7898 298.026 79.7624 300.058L141.376 309.943L82.3912 305.239C83.4888 307.297 84.6455 309.283 85.8416 311.237L144.188 315.889H29.2889V321.586H266.291L242.973 313.543ZM214.161 315.876C208.616 315.87 203.132 314.725 198.053 312.511H224.519C228.645 312.508 232.687 313.68 236.164 315.889L214.161 315.876Z" fill="#00C2FF"/>
</g>
<defs>
<clipPath id="clip0_1468_185043">
<rect y="0.921875" width="343" height="320" rx="12" fill="white"/>
</clipPath>
</defs>
</svg>
