<svg width="349" height="516" viewBox="0 0 349 516" fill="none" xmlns="http://www.w3.org/2000/svg">
<rect x="46" y="456" width="258" height="60" rx="30" fill="#111111"/>
<path d="M82.0328 482.931C82.0328 482.02 83.0353 481.601 84.1653 481.601C85.6781 481.601 86.6805 482.403 87.1726 483.861L89.0681 482.767C88.2662 480.562 86.6258 479.487 84.22 479.487C81.559 479.487 79.7364 480.872 79.7364 482.986C79.7364 485.137 81.4132 486.376 83.7279 486.813C85.7874 487.233 86.881 487.743 86.881 488.928C86.881 489.948 85.9697 490.641 84.5116 490.641C82.5614 490.641 81.6319 489.493 81.2856 487.597L79.1713 488.673C79.6634 491.005 81.3585 492.755 84.5298 492.755C87.5007 492.755 89.2869 490.933 89.2869 488.837C89.2869 486.668 87.9017 485.501 85.1131 484.918C82.9806 484.48 82.0328 483.934 82.0328 482.931ZM90.2516 485.319H91.655V489.875C91.655 492.117 92.9855 492.755 94.5529 492.755C95.0815 492.755 95.6647 492.646 96.0839 492.5L95.8652 490.604C95.6647 490.659 95.446 490.714 95.0997 490.714C94.3889 490.714 93.9515 490.368 93.9515 489.438V485.319H95.9199V483.46H93.9515V481.018H91.655V483.46H90.2516V485.319ZM106.166 492.5C105.728 491.862 105.564 491.297 105.564 490.258V486.485C105.564 484.28 104.161 483.205 101.609 483.205C99.1849 483.205 97.7997 484.572 97.7997 485.975C97.7997 486.248 97.8544 486.504 97.9638 486.741L100.023 486.048C99.9687 485.92 99.9869 485.902 99.9869 485.829C99.9869 485.264 100.534 484.809 101.609 484.809C102.721 484.809 103.268 485.301 103.268 486.176V486.522L100.552 486.941C98.8569 487.178 97.3259 488.089 97.3259 489.93C97.3259 491.643 98.5835 492.755 100.37 492.755C101.682 492.755 102.757 492.208 103.395 491.06C103.395 491.844 103.687 492.3 103.833 492.5H106.166ZM100.916 490.896C100.114 490.896 99.5677 490.532 99.5677 489.803C99.5677 489.092 100.078 488.636 101.08 488.472L103.268 488.107V488.272C103.268 490.021 102.247 490.896 100.916 490.896ZM113.431 483.314C113.194 483.241 112.921 483.205 112.648 483.205C111.481 483.205 110.643 483.861 110.132 484.9V483.46H107.836V492.5H110.132V488.035C110.132 486.504 110.934 485.355 112.319 485.355C112.593 485.355 112.83 485.392 113.067 485.483L113.431 483.314ZM114.458 485.319H115.862V489.875C115.862 492.117 117.192 492.755 118.76 492.755C119.288 492.755 119.871 492.646 120.291 492.5L120.072 490.604C119.871 490.659 119.653 490.714 119.306 490.714C118.595 490.714 118.158 490.368 118.158 489.438V485.319H120.126V483.46H118.158V481.018H115.862V483.46H114.458V485.319ZM127.205 492.5H129.538V484.699L129.885 485.793L130.158 486.649L132.655 492.5H134.951L137.448 486.649L137.722 485.793L138.068 484.699V492.5H140.401V479.742H137.868L133.803 489.875L129.739 479.742H127.205V492.5ZM152.108 487.98C152.108 484.827 149.647 483.205 147.169 483.205C144.69 483.205 142.229 484.827 142.229 487.98C142.229 491.133 144.69 492.755 147.169 492.755C149.647 492.755 152.108 491.133 152.108 487.98ZM147.169 490.604C145.82 490.604 144.562 489.657 144.562 487.98C144.562 486.303 145.82 485.355 147.169 485.355C148.517 485.355 149.775 486.303 149.775 487.98C149.775 489.657 148.517 490.604 147.169 490.604ZM153.9 492.5H156.196V491.388C156.761 492.135 157.691 492.755 159.13 492.755C161.518 492.755 163.486 490.987 163.486 487.98C163.486 484.973 161.573 483.205 159.167 483.205C157.946 483.205 156.87 483.715 156.196 484.572V479.742H153.9V492.5ZM158.602 490.604C157.126 490.604 156.05 489.511 156.05 487.98C156.05 486.449 157.126 485.355 158.602 485.355C160.078 485.355 161.154 486.449 161.154 487.98C161.154 489.511 160.078 490.604 158.602 490.604ZM165.255 492.5H167.551V483.46H165.255V492.5ZM165.145 482.148H167.661V479.742H165.145V482.148ZM169.83 492.5H172.126V479.742H169.83V492.5ZM183.079 488.527V487.725C183.079 485.1 181.238 483.205 178.668 483.205C176.044 483.205 173.911 485.137 173.911 487.98C173.911 490.823 176.044 492.755 178.559 492.755C180.619 492.755 181.949 491.88 182.806 490.112L181.093 489.128C180.582 490.149 179.853 490.787 178.596 490.787C177.229 490.787 176.263 489.912 176.117 488.527H183.079ZM178.596 484.954C179.908 484.954 180.746 485.683 180.965 486.85H176.117C176.463 485.775 177.356 484.954 178.596 484.954ZM200.04 487.98C199.128 489.675 197.834 490.532 196.176 490.532C193.898 490.532 192.075 488.745 192.075 486.121C192.075 483.423 193.934 481.71 196.176 481.71C197.98 481.71 199.11 482.603 199.894 484.225L201.844 482.822C200.969 480.872 198.946 479.487 196.249 479.487C192.512 479.487 189.633 482.129 189.633 486.121C189.633 490.112 192.421 492.755 196.158 492.755C198.928 492.755 200.35 491.68 201.917 489.329L200.04 487.98ZM212.572 486.394C212.572 484.462 211.332 483.205 209.364 483.205C208.033 483.205 206.903 483.806 206.229 484.881V479.742H203.932V492.5H206.229V487.907C206.229 486.376 207.158 485.355 208.453 485.355C209.674 485.355 210.275 486.103 210.275 487.287V492.5H212.572V486.394ZM223.394 488.527V487.725C223.394 485.1 221.553 483.205 218.983 483.205C216.359 483.205 214.226 485.137 214.226 487.98C214.226 490.823 216.359 492.755 218.874 492.755C220.933 492.755 222.264 491.88 223.12 490.112L221.407 489.128C220.897 490.149 220.168 490.787 218.91 490.787C217.543 490.787 216.577 489.912 216.431 488.527H223.394ZM218.91 484.954C220.222 484.954 221.061 485.683 221.28 486.85H216.431C216.778 485.775 217.671 484.954 218.91 484.954ZM231.836 488.946C231.326 490.021 230.67 490.604 229.448 490.604C228.063 490.604 227.043 489.602 227.043 487.98C227.043 486.376 228.081 485.355 229.448 485.355C230.396 485.355 231.198 485.738 231.727 486.905L233.604 485.665C232.966 484.116 231.49 483.205 229.467 483.205C226.897 483.205 224.71 485.1 224.71 487.98C224.71 490.86 226.787 492.755 229.467 492.755C231.362 492.755 232.839 491.88 233.695 490.149L231.836 488.946ZM237.573 479.742H235.276V492.5H237.573V488.946L238.266 488.272L240.963 492.5H243.606L239.869 486.686L243.168 483.46H240.325L237.573 486.194V479.742ZM253.437 487.98C253.437 484.827 250.977 483.205 248.498 483.205C246.019 483.205 243.559 484.827 243.559 487.98C243.559 491.133 246.019 492.755 248.498 492.755C250.977 492.755 253.437 491.133 253.437 487.98ZM248.498 490.604C247.149 490.604 245.892 489.657 245.892 487.98C245.892 486.303 247.149 485.355 248.498 485.355C249.847 485.355 251.104 486.303 251.104 487.98C251.104 489.657 249.847 490.604 248.498 490.604ZM255.193 489.073C255.193 491.479 256.652 492.755 258.547 492.755C259.841 492.755 260.844 492.172 261.427 491.078V492.5H263.723V483.46H261.427V488.126C261.427 489.584 260.625 490.604 259.331 490.604C258.037 490.604 257.49 489.857 257.49 488.545V483.46H255.193V489.073ZM265.251 485.319H266.654V489.875C266.654 492.117 267.985 492.755 269.552 492.755C270.081 492.755 270.664 492.646 271.083 492.5L270.865 490.604C270.664 490.659 270.445 490.714 270.099 490.714C269.388 490.714 268.951 490.368 268.951 489.438V485.319H270.919V483.46H268.951V481.018H266.654V483.46H265.251V485.319Z" fill="white"/>
<path d="M26.458 127.5H28.33V117.762C28.384 117.906 28.51 118.14 28.636 118.338C28.708 118.464 28.78 118.59 28.87 118.716L34.522 127.5H36.502V114.9H34.63V124.638C34.576 124.512 34.45 124.26 34.324 124.062C34.252 123.936 34.18 123.81 34.09 123.684L28.438 114.9H26.458V127.5ZM47.3365 123.432V122.784C47.3365 120.192 45.5905 118.32 43.0165 118.32C40.4785 118.32 38.4265 120.228 38.4265 123.036C38.4265 125.844 40.4785 127.752 42.9265 127.752C44.9605 127.752 46.2205 126.87 47.0665 125.142L45.6445 124.296C45.1225 125.358 44.4385 126.15 42.9805 126.15C41.4145 126.15 40.3165 125.016 40.2625 123.432H47.3365ZM42.9805 119.796C44.2045 119.796 45.4465 120.57 45.5905 122.028H40.2625C40.5865 120.75 41.6305 119.796 42.9805 119.796ZM57.1688 127.5C56.7548 126.834 56.6288 126.294 56.6288 125.268V121.344C56.6288 119.4 55.3688 118.32 52.9208 118.32C50.6708 118.32 49.3208 119.58 49.3208 120.966C49.3208 121.218 49.3748 121.452 49.4648 121.686L51.1028 121.128C51.0488 120.984 51.0668 120.948 51.0668 120.858C51.0668 120.228 51.6428 119.688 52.9208 119.688C54.1628 119.688 54.7928 120.21 54.7928 121.236V121.614L51.9668 122.064C50.2568 122.352 48.8168 123.18 48.8168 124.998C48.8168 126.636 50.0588 127.752 51.8588 127.752C53.1728 127.752 54.2528 127.14 54.8288 125.934C54.8828 126.78 55.1168 127.23 55.3328 127.5H57.1688ZM52.1468 126.222C51.2288 126.222 50.6528 125.7 50.6528 124.89C50.6528 124.044 51.2468 123.576 52.3808 123.378L54.7928 122.964V123.216C54.7928 124.944 53.7488 126.222 52.1468 126.222ZM63.9195 118.41C63.6855 118.356 63.4875 118.32 63.2535 118.32C62.0295 118.32 61.1655 119.022 60.6795 120.084V118.572H58.8435V127.5H60.6795V122.802C60.6795 121.218 61.5975 120.048 62.9115 120.048C63.1455 120.048 63.3795 120.084 63.6135 120.156L63.9195 118.41ZM73.3633 123.432V122.784C73.3633 120.192 71.6173 118.32 69.0433 118.32C66.5053 118.32 64.4533 120.228 64.4533 123.036C64.4533 125.844 66.5053 127.752 68.9533 127.752C70.9873 127.752 72.2473 126.87 73.0933 125.142L71.6713 124.296C71.1493 125.358 70.4653 126.15 69.0073 126.15C67.4413 126.15 66.3433 125.016 66.2893 123.432H73.3633ZM69.0073 119.796C70.2313 119.796 71.4733 120.57 71.6173 122.028H66.2893C66.6133 120.75 67.6573 119.796 69.0073 119.796ZM76.7383 120.732C76.7383 120.102 77.4583 119.724 78.3043 119.724C79.2583 119.724 80.0863 120.246 80.5003 121.326L81.8503 120.534C81.2203 119.076 80.1583 118.32 78.2683 118.32C76.5943 118.32 75.0823 119.22 75.0823 120.822C75.0823 122.406 76.4683 123.198 78.1243 123.522C79.5643 123.81 80.2303 124.134 80.2303 124.908C80.2303 125.682 79.4743 126.186 78.5383 126.186C77.3143 126.186 76.5043 125.34 76.0723 124.17L74.5783 125.106C75.1183 126.528 76.4143 127.752 78.5203 127.752C80.7163 127.752 81.9763 126.438 81.9763 124.854C81.9763 123.342 81.0043 122.568 78.9703 122.154C77.5303 121.884 76.7383 121.506 76.7383 120.732ZM82.9362 120.048H84.3762V125.106C84.3762 127.14 85.5642 127.752 86.9322 127.752C87.4542 127.752 87.9222 127.662 88.2642 127.536L88.1022 125.988C87.9042 126.042 87.6342 126.096 87.4362 126.096C86.5722 126.096 86.2122 125.664 86.2122 124.782V120.048H88.2102V118.572H86.2122V116.16H84.3762V118.572H82.9362V120.048ZM96.6129 120.732C96.6129 120.102 97.3329 119.724 98.1789 119.724C99.1329 119.724 99.9609 120.246 100.375 121.326L101.725 120.534C101.095 119.076 100.033 118.32 98.1429 118.32C96.4689 118.32 94.9569 119.22 94.9569 120.822C94.9569 122.406 96.3429 123.198 97.9989 123.522C99.4389 123.81 100.105 124.134 100.105 124.908C100.105 125.682 99.3489 126.186 98.4129 126.186C97.1889 126.186 96.3789 125.34 95.9469 124.17L94.4529 125.106C94.9929 126.528 96.2889 127.752 98.3949 127.752C100.591 127.752 101.851 126.438 101.851 124.854C101.851 123.342 100.879 122.568 98.8449 122.154C97.4049 121.884 96.6129 121.506 96.6129 120.732ZM102.811 120.048H104.251V125.106C104.251 127.14 105.439 127.752 106.807 127.752C107.329 127.752 107.797 127.662 108.139 127.536L107.977 125.988C107.779 126.042 107.509 126.096 107.311 126.096C106.447 126.096 106.087 125.664 106.087 124.782V120.048H108.085V118.572H106.087V116.16H104.251V118.572H102.811V120.048ZM118.612 123.036C118.612 119.958 116.2 118.32 113.842 118.32C111.484 118.32 109.072 119.958 109.072 123.036C109.072 126.15 111.484 127.752 113.842 127.752C116.2 127.752 118.612 126.15 118.612 123.036ZM113.842 126.06C112.276 126.06 110.944 124.854 110.944 123.036C110.944 121.218 112.276 120.012 113.842 120.012C115.408 120.012 116.74 121.218 116.74 123.036C116.74 124.854 115.408 126.06 113.842 126.06ZM125.567 118.41C125.333 118.356 125.135 118.32 124.901 118.32C123.677 118.32 122.813 119.022 122.327 120.084V118.572H120.491V127.5H122.327V122.802C122.327 121.218 123.245 120.048 124.559 120.048C124.793 120.048 125.027 120.084 125.261 120.156L125.567 118.41ZM135.011 123.432V122.784C135.011 120.192 133.265 118.32 130.691 118.32C128.153 118.32 126.101 120.228 126.101 123.036C126.101 125.844 128.153 127.752 130.601 127.752C132.635 127.752 133.895 126.87 134.741 125.142L133.319 124.296C132.797 125.358 132.113 126.15 130.655 126.15C129.089 126.15 127.991 125.016 127.937 123.432H135.011ZM130.655 119.796C131.879 119.796 133.121 120.57 133.265 122.028H127.937C128.261 120.75 129.305 119.796 130.655 119.796ZM150.789 123.036C150.789 119.958 148.377 118.32 146.019 118.32C143.661 118.32 141.249 119.958 141.249 123.036C141.249 126.15 143.661 127.752 146.019 127.752C148.377 127.752 150.789 126.15 150.789 123.036ZM146.019 126.06C144.453 126.06 143.121 124.854 143.121 123.036C143.121 121.218 144.453 120.012 146.019 120.012C147.585 120.012 148.917 121.218 148.917 123.036C148.917 124.854 147.585 126.06 146.019 126.06ZM160.66 121.434C160.66 119.418 159.292 118.32 157.546 118.32C156.25 118.32 155.134 119.004 154.504 120.066V118.572H152.668V127.5H154.504V122.784C154.504 121.11 155.566 120.012 156.844 120.012C158.122 120.012 158.824 120.75 158.824 121.974V127.5H160.66V121.434ZM162.879 127.5H164.715V114.9H162.879V127.5ZM167.022 131.1C167.364 131.226 167.832 131.298 168.318 131.298C169.398 131.298 170.244 130.758 170.82 129.3L175.14 118.572H173.106L170.604 125.016L168.084 118.572H165.978L169.614 127.554L169.2 128.652C168.858 129.462 168.606 129.606 168.12 129.606C167.814 129.606 167.526 129.516 167.31 129.426L167.022 131.1Z" fill="#111111"/>
<rect x="181.608" y="104" width="142" height="34" rx="10" fill="#111111" fill-opacity="0.1"/>
<path d="M204.668 121.2C204.668 117.258 202.346 114.648 199.088 114.648C195.83 114.648 193.508 117.258 193.508 121.2C193.508 125.142 195.83 127.752 199.088 127.752C202.346 127.752 204.668 125.142 204.668 121.2ZM199.088 125.988C196.982 125.988 195.452 124.206 195.452 121.2C195.452 118.194 196.982 116.412 199.088 116.412C201.194 116.412 202.724 118.194 202.724 121.2C202.724 124.206 201.194 125.988 199.088 125.988ZM205.861 127.5H207.913V125.412H205.861V127.5ZM213.891 127.752C216.483 127.752 218.247 126.258 218.247 124.008C218.247 122.478 217.419 121.344 216.141 120.75C217.221 120.174 217.869 119.148 217.869 117.906C217.869 115.962 216.141 114.648 213.891 114.648C211.641 114.648 209.913 115.962 209.913 117.906C209.913 119.148 210.561 120.174 211.641 120.75C210.363 121.344 209.535 122.478 209.535 124.008C209.535 126.258 211.299 127.752 213.891 127.752ZM213.891 126.168C212.487 126.168 211.407 125.214 211.407 123.882C211.407 122.55 212.523 121.596 213.891 121.596C215.259 121.596 216.375 122.55 216.375 123.882C216.375 125.214 215.295 126.168 213.891 126.168ZM211.749 118.068C211.749 116.844 212.793 116.088 213.891 116.088C214.989 116.088 216.033 116.844 216.033 118.068C216.033 119.292 215.043 120.048 213.891 120.048C212.739 120.048 211.749 119.292 211.749 118.068ZM237.729 120.966C237.729 119.382 236.685 118.32 234.975 118.32C233.751 118.32 232.761 118.824 232.131 119.904C231.753 118.842 230.907 118.32 229.683 118.32C228.603 118.32 227.613 118.914 227.055 119.85V118.572H225.219V127.5H227.055V122.586C227.055 120.804 227.991 119.94 229.071 119.94C230.061 119.94 230.547 120.642 230.547 121.65V127.5H232.383V122.586C232.383 120.714 233.265 119.94 234.345 119.94C235.425 119.94 235.893 120.57 235.893 121.596V127.5H237.729V120.966ZM240.14 127.5H241.976V118.572H240.14V127.5ZM240.014 117.15H242.102V115.08H240.014V117.15ZM244.392 127.5H246.228V114.9H244.392V127.5ZM257.014 123.432V122.784C257.014 120.192 255.268 118.32 252.694 118.32C250.156 118.32 248.104 120.228 248.104 123.036C248.104 125.844 250.156 127.752 252.604 127.752C254.638 127.752 255.898 126.87 256.744 125.142L255.322 124.296C254.8 125.358 254.116 126.15 252.658 126.15C251.092 126.15 249.994 125.016 249.94 123.432H257.014ZM252.658 119.796C253.882 119.796 255.124 120.57 255.268 122.028H249.94C250.264 120.75 251.308 119.796 252.658 119.796ZM260.389 120.732C260.389 120.102 261.109 119.724 261.955 119.724C262.909 119.724 263.737 120.246 264.151 121.326L265.501 120.534C264.871 119.076 263.809 118.32 261.919 118.32C260.245 118.32 258.733 119.22 258.733 120.822C258.733 122.406 260.119 123.198 261.775 123.522C263.215 123.81 263.881 124.134 263.881 124.908C263.881 125.682 263.125 126.186 262.189 126.186C260.965 126.186 260.155 125.34 259.723 124.17L258.229 125.106C258.769 126.528 260.065 127.752 262.171 127.752C264.367 127.752 265.627 126.438 265.627 124.854C265.627 123.342 264.655 122.568 262.621 122.154C261.181 121.884 260.389 121.506 260.389 120.732ZM280.377 127.5C279.963 126.834 279.837 126.294 279.837 125.268V121.344C279.837 119.4 278.577 118.32 276.129 118.32C273.879 118.32 272.529 119.58 272.529 120.966C272.529 121.218 272.583 121.452 272.673 121.686L274.311 121.128C274.257 120.984 274.275 120.948 274.275 120.858C274.275 120.228 274.851 119.688 276.129 119.688C277.371 119.688 278.001 120.21 278.001 121.236V121.614L275.175 122.064C273.465 122.352 272.025 123.18 272.025 124.998C272.025 126.636 273.267 127.752 275.067 127.752C276.381 127.752 277.461 127.14 278.037 125.934C278.091 126.78 278.325 127.23 278.541 127.5H280.377ZM275.355 126.222C274.437 126.222 273.861 125.7 273.861 124.89C273.861 124.044 274.455 123.576 275.589 123.378L278.001 122.964V123.216C278.001 124.944 276.957 126.222 275.355 126.222ZM287.992 118.572H286.156L284.356 125.124L282.736 118.572H280.9L283.402 127.5H285.274L287.074 120.876L288.874 127.5H290.746L293.248 118.572H291.412L289.792 125.124L287.992 118.572ZM302.24 127.5C301.826 126.834 301.7 126.294 301.7 125.268V121.344C301.7 119.4 300.44 118.32 297.992 118.32C295.742 118.32 294.392 119.58 294.392 120.966C294.392 121.218 294.446 121.452 294.536 121.686L296.174 121.128C296.12 120.984 296.138 120.948 296.138 120.858C296.138 120.228 296.714 119.688 297.992 119.688C299.234 119.688 299.864 120.21 299.864 121.236V121.614L297.038 122.064C295.328 122.352 293.888 123.18 293.888 124.998C293.888 126.636 295.13 127.752 296.93 127.752C298.244 127.752 299.324 127.14 299.9 125.934C299.954 126.78 300.188 127.23 300.404 127.5H302.24ZM297.218 126.222C296.3 126.222 295.724 125.7 295.724 124.89C295.724 124.044 296.318 123.576 297.452 123.378L299.864 122.964V123.216C299.864 124.944 298.82 126.222 297.218 126.222ZM303.789 131.1C304.131 131.226 304.599 131.298 305.085 131.298C306.165 131.298 307.011 130.758 307.587 129.3L311.907 118.572H309.873L307.371 125.016L304.851 118.572H302.745L306.381 127.554L305.967 128.652C305.625 129.462 305.373 129.606 304.887 129.606C304.581 129.606 304.293 129.516 304.077 129.426L303.789 131.1Z" fill="#111111"/>
<path d="M50.9187 37.5273C57.325 37.5273 61.1531 34.2656 61.1531 28.8555C61.1531 23.8555 57.7156 22.1953 54.3758 21.1016L51.075 20.0469C47.5008 18.8945 46.5047 17.957 46.5047 16.3359C46.5047 14.7148 47.9109 13.582 50.2352 13.582C53.4187 13.582 54.9227 15.418 55.0594 18.6602L60.2352 17.8594C60.45 12.2734 56.8953 9.12891 50.3133 9.12891C44.3172 9.12891 40.8602 12 40.8406 17.1758C40.8211 22 44.0242 23.7773 47.4422 24.9883L50.6844 26.1016C54.0047 27.2539 55.2352 28.2305 55.2352 29.9492C55.2352 31.8047 53.7117 33.0742 51.2117 33.0742C47.4422 33.0742 46.1531 31.1797 45.8406 27.3906L40.2937 28.2695C40.2352 34.3438 44.0242 37.5273 50.9187 37.5273ZM63.2828 37H69.1617V30.1055L71.0953 27.6445L74.6695 37H80.6461L75.1383 23.9531L80.568 16.4922H74.357L68.7125 24.6562L68.3805 24.5C68.9664 21.9023 69.1617 19.9297 69.1617 17V9.65625H63.2828V37ZM81.8773 14.3047H88.0297V9.85156H81.8773V14.3047ZM82.0141 37H87.893V16.4922H82.0141V37ZM102.542 16.1602C99.0461 16.1602 97.0734 18.0742 95.9602 21.3945L95.5305 21.2383C96.1945 19.0898 96.5266 17.4883 96.5656 16.4922H90.7062V43.8359H96.5852V38.4453C96.5852 36.4336 96.2922 34.6758 95.55 32.2539L95.9602 32.0781C97.1125 35.3203 99.1242 37.332 102.542 37.332C106.839 37.332 109.027 33.9531 109.027 27.3516V26.1406C109.027 19.5391 106.839 16.1602 102.542 16.1602ZM100.003 20.0859C102.073 20.0859 103.109 21.9023 103.109 25.6914V27.7617C103.109 31.5898 102.073 33.4258 100.003 33.4258C97.7766 33.4258 96.5852 31.3555 96.5852 27.4883V25.9648C96.5852 22.0977 97.7766 20.0859 100.003 20.0859ZM124.341 37.4883C125.942 37.4883 127.641 37.1172 128.872 36.5508L129.204 32.332C128.208 32.7227 127.192 32.8984 126.372 32.8984C124.946 32.8984 124.243 32.2344 124.243 30.5742V20.7109H129.087V16.4922H124.243V10.4375L118.364 12.0977V16.4922H115.649V20.7109H118.364V31.2969C118.364 35.4961 120.356 37.4883 124.341 37.4883ZM130.962 37H136.841V26.4531C136.841 22.6836 138.248 20.2812 140.455 20.2812C141.9 20.2812 142.681 21.2383 142.681 23.0742V37H148.56V21.7656C148.56 18.0547 146.744 16.1602 143.13 16.1602C139.986 16.1602 137.681 17.8398 136.099 21.6094L135.689 21.4531C136.529 19.1484 136.841 17.4883 136.841 15.5938V9.65625H130.962V37ZM160.006 33.5039C157.702 33.5039 156.471 31.9219 156.471 28.6211V28.2305H168.756C168.873 27.2539 168.913 26.4141 168.913 25.5547C168.913 19.4414 165.748 15.9844 160.006 15.9844C153.932 15.9844 150.651 19.6172 150.651 26.1797V27.3906C150.651 33.9141 153.932 37.5078 159.83 37.5078C165.065 37.5078 168.19 35.0859 168.873 30.4375L163.268 29.832C162.995 32.4883 161.901 33.5039 160.006 33.5039ZM159.928 19.9883C161.998 19.9883 163.034 21.3359 163.034 24.2461V24.5977H156.471C156.588 21.5508 157.741 19.9883 159.928 19.9883ZM177.039 9.65625V37H182.918V9.65625H177.039ZM185.595 14.3047H191.747V9.85156H185.595V14.3047ZM185.731 37H191.61V16.4922H185.731V37ZM194.423 37H200.302V26.4531C200.302 22.7031 201.709 20.2617 203.916 20.2617C205.361 20.2617 206.142 21.2383 206.142 23.0547V37H212.021V21.7656C212.021 18.0547 210.205 16.1602 206.591 16.1602C203.447 16.1602 201.142 17.8398 199.56 21.6094L199.15 21.4531C199.951 19.207 200.185 17.9766 200.224 16.4922H194.423V37ZM223.467 33.5039C221.162 33.5039 219.932 31.9219 219.932 28.6211V28.2305H232.217C232.334 27.2539 232.373 26.4141 232.373 25.5547C232.373 19.4414 229.209 15.9844 223.467 15.9844C217.393 15.9844 214.112 19.6172 214.112 26.1797V27.3906C214.112 33.9141 217.393 37.5078 223.291 37.5078C228.526 37.5078 231.651 35.0859 232.334 30.4375L226.729 29.832C226.455 32.4883 225.362 33.5039 223.467 33.5039ZM223.389 19.9883C225.459 19.9883 226.495 21.3359 226.495 24.2461V24.5977H219.932C220.049 21.5508 221.202 19.9883 223.389 19.9883ZM243.781 37H250.402L251.867 29.0117C252.219 26.9414 252.414 25.418 252.648 23.0547H253.039C253.312 25.418 253.527 26.9219 253.898 29.0117L255.363 37H262.004L267.16 16.4922H261.359L259.504 26.5898C259.23 27.957 259.035 29.3438 258.879 31.082H258.469C258.293 29.3438 258.078 27.957 257.785 26.5703L255.676 16.4922H250.285L248.352 26.5703C248.078 27.957 247.844 29.3438 247.668 31.082H247.258C247.082 29.3438 246.887 27.957 246.594 26.5898L244.621 16.4922H238.586L243.781 37ZM268.274 14.3047H274.427V9.85156H268.274V14.3047ZM268.411 37H274.29V16.4922H268.411V37ZM284.72 37.4883C286.322 37.4883 288.021 37.1172 289.252 36.5508L289.584 32.332C288.587 32.7227 287.572 32.8984 286.752 32.8984C285.326 32.8984 284.623 32.2344 284.623 30.5742V20.7109H289.466V16.4922H284.623V10.4375L278.744 12.0977V16.4922H276.029V20.7109H278.744V31.2969C278.744 35.4961 280.736 37.4883 284.72 37.4883ZM291.342 37H297.221V26.4531C297.221 22.6836 298.627 20.2812 300.834 20.2812C302.28 20.2812 303.061 21.2383 303.061 23.0742V37H308.94V21.7656C308.94 18.0547 307.123 16.1602 303.51 16.1602C300.366 16.1602 298.061 17.8398 296.479 21.6094L296.069 21.4531C296.909 19.1484 297.221 17.4883 297.221 15.5938V9.65625H291.342V37ZM38.0586 77H43.9375V66.2578C43.9375 62.625 45.168 60.2812 47.082 60.2812C48.332 60.2812 49.0547 61.2773 49.0547 62.9961V77H54.9336V66.1992C54.9336 62.7227 56.0664 60.3008 58.0391 60.3008C59.3477 60.3008 60.0312 61.2188 60.0312 62.9766V77H65.9102V61.9414C65.9102 58.0547 64.2891 56.1602 60.9102 56.1602C57.7266 56.1602 55.5391 57.8789 53.9961 61.7852L53.6055 61.6484C54.3672 58.2305 52.9219 56.1602 49.8359 56.1602C47.0625 56.1602 45.2266 57.5469 43.1758 61.5898L42.8047 61.3945C43.7031 58.8164 43.9375 57.7227 43.8789 56.4922H38.0586V77ZM77.2977 77.5273C83.2742 77.5273 86.6141 73.6602 86.6141 66.8242V66.7461C86.6141 59.8711 83.2742 55.9648 77.2977 55.9648C71.3406 55.9648 68.0203 59.8711 68.0203 66.7461V66.8242C68.0203 73.6602 71.3406 77.5273 77.2977 77.5273ZM77.2977 73.4844C75.1297 73.4844 74.075 71.668 74.075 67.8984V65.6133C74.075 61.8242 75.1297 60.0078 77.2977 60.0078C79.4852 60.0078 80.5594 61.8242 80.5594 65.6133V67.8984C80.5594 71.668 79.4852 73.4844 77.2977 73.4844ZM100.638 77.332C104.935 77.332 107.123 73.9531 107.123 67.3516V66.1406C107.123 59.5391 104.935 56.1602 100.638 56.1602C97.2203 56.1602 95.2086 58.1719 94.0563 61.4141L93.6461 61.2383C94.3883 58.8164 94.6813 57.0586 94.6813 55.0469V49.6562H88.8023V77H94.6617C94.6227 76.0039 94.2906 74.4023 93.6266 72.2539L94.0563 72.0977C95.1695 75.418 97.1422 77.332 100.638 77.332ZM98.0992 73.4062C95.8727 73.4062 94.6813 71.3945 94.6813 67.5273V66.0039C94.6813 62.1367 95.8727 60.0664 98.0992 60.0664C100.17 60.0664 101.205 61.9023 101.205 65.7305V67.8008C101.205 71.5898 100.17 73.4062 98.0992 73.4062ZM109.194 54.3047H115.346V49.8516H109.194V54.3047ZM109.33 77H115.209V56.4922H109.33V77ZM118.023 49.6562V77H123.902V49.6562H118.023ZM135.465 73.5039C133.16 73.5039 131.93 71.9219 131.93 68.6211V68.2305H144.215C144.332 67.2539 144.371 66.4141 144.371 65.5547C144.371 59.4414 141.207 55.9844 135.465 55.9844C129.391 55.9844 126.109 59.6172 126.109 66.1797V67.3906C126.109 73.9141 129.391 77.5078 135.289 77.5078C140.523 77.5078 143.648 75.0859 144.332 70.4375L138.727 69.832C138.453 72.4883 137.359 73.5039 135.465 73.5039ZM135.387 59.9883C137.457 59.9883 138.492 61.3359 138.492 64.2461V64.5977H131.93C132.047 61.5508 133.199 59.9883 135.387 59.9883ZM161.091 77.5273C166.638 77.5273 169.685 74.8516 170.212 69.5391L164.177 68.9336C164.041 72.0195 163.045 73.4648 161.13 73.4648C158.962 73.4648 157.947 71.6484 157.947 67.8008V65.5352C157.947 61.7852 159.002 60.0078 161.091 60.0078C162.986 60.0078 163.923 61.5312 164.08 64.7344L169.959 64.168C169.646 58.7383 166.736 55.9648 161.111 55.9648C155.017 55.9648 151.892 59.5586 151.892 66.6289V66.707C151.892 73.875 154.978 77.5273 161.091 77.5273ZM172.323 77H178.202V66.4531C178.202 62.6836 179.608 60.2812 181.815 60.2812C183.26 60.2812 184.041 61.2383 184.041 63.0742V77H189.92V61.7656C189.92 58.0547 188.104 56.1602 184.491 56.1602C181.346 56.1602 179.041 57.8398 177.459 61.6094L177.049 61.4531C177.889 59.1484 178.202 57.4883 178.202 55.5938V49.6562H172.323V77ZM201.366 73.5039C199.062 73.5039 197.831 71.9219 197.831 68.6211V68.2305H210.116C210.234 67.2539 210.273 66.4141 210.273 65.5547C210.273 59.4414 207.109 55.9844 201.366 55.9844C195.292 55.9844 192.011 59.6172 192.011 66.1797V67.3906C192.011 73.9141 195.292 77.5078 201.191 77.5078C206.425 77.5078 209.55 75.0859 210.234 70.4375L204.628 69.832C204.355 72.4883 203.261 73.5039 201.366 73.5039ZM201.288 59.9883C203.359 59.9883 204.394 61.3359 204.394 64.2461V64.5977H197.831C197.948 61.5508 199.101 59.9883 201.288 59.9883ZM221.113 77.5273C226.66 77.5273 229.707 74.8516 230.234 69.5391L224.199 68.9336C224.062 72.0195 223.066 73.4648 221.152 73.4648C218.984 73.4648 217.969 71.6484 217.969 67.8008V65.5352C217.969 61.7852 219.023 60.0078 221.113 60.0078C223.008 60.0078 223.945 61.5312 224.102 64.7344L229.98 64.168C229.668 58.7383 226.758 55.9648 221.133 55.9648C215.039 55.9648 211.914 59.5586 211.914 66.6289V66.707C211.914 73.875 215 77.5273 221.113 77.5273ZM232.345 77H238.223V70.1055L240.157 67.6445L243.731 77H249.708L244.2 63.9531L249.63 56.4922H243.419L237.774 64.6562L237.442 64.5C238.028 61.9023 238.223 59.9297 238.223 57V49.6562H232.345V77ZM258.498 77.5273C264.474 77.5273 267.814 73.6602 267.814 66.8242V66.7461C267.814 59.8711 264.474 55.9648 258.498 55.9648C252.541 55.9648 249.22 59.8711 249.22 66.7461V66.8242C249.22 73.6602 252.541 77.5273 258.498 77.5273ZM258.498 73.4844C256.33 73.4844 255.275 71.668 255.275 67.8984V65.6133C255.275 61.8242 256.33 60.0078 258.498 60.0078C260.685 60.0078 261.759 61.8242 261.759 65.6133V67.8984C261.759 71.668 260.685 73.4844 258.498 73.4844ZM287.522 56.4922H281.623V67.0391C281.623 70.7891 280.217 73.2305 278.03 73.2305C276.565 73.2305 275.784 72.2539 275.784 70.4375V56.4922H269.905V71.7266C269.905 75.4375 271.721 77.332 275.334 77.332C278.479 77.332 280.784 75.6328 282.366 71.8828L282.776 72.0391C281.975 74.2852 281.741 75.4961 281.702 77H287.522V56.4922ZM297.913 77.4883C299.515 77.4883 301.214 77.1172 302.445 76.5508L302.777 72.332C301.78 72.7227 300.765 72.8984 299.945 72.8984C298.519 72.8984 297.816 72.2344 297.816 70.5742V60.7109H302.659V56.4922H297.816V50.4375L291.937 52.0977V56.4922H289.222V60.7109H291.937V71.2969C291.937 75.4961 293.929 77.4883 297.913 77.4883ZM304.418 70.9453V77H311.273V70.9453H304.418Z" fill="#111111"/>
</svg>
