<svg width="74" height="64" viewBox="0 0 74 64" fill="none" xmlns="http://www.w3.org/2000/svg">
<path d="M5.96925 38.6718L6.1597 38.8318C5.95338 37.3924 5.84228 35.8251 6.25492 34.4496C6.87388 32.2426 7.65154 30.0995 8.0483 27.8124C8.36575 26.0372 8.73077 24.038 8.52442 22.3267C8.28634 23.2543 8.0483 24.1659 7.54044 24.9656C5.6201 27.9564 3.65214 31.4749 5.00115 35.2813C4.96941 35.3293 4.92179 35.3773 4.87418 35.3452C4.33458 34.0818 4.20762 32.6584 3.85846 31.315C2.9221 27.7485 0.20822 24.7577 1.00175 20.6314C0.573244 21.5271 0.414538 22.5346 0.19235 23.5102C-0.283769 26.0372 0.19235 28.708 0.874784 31.0431C1.71593 33.9379 4.52503 36.017 5.96925 38.6718Z" fill="black"/>
<path d="M5.23904 20.1515C5.87386 18.8401 6.90545 17.5925 8.14336 16.665C10.8731 14.5858 13.8567 11.8989 13.9044 8.38045C12.9839 10.9073 10.2383 11.9629 8.41314 13.6902C7.44506 14.6018 6.69913 15.7053 6.27062 16.8569L6.20714 16.8089C6.42933 15.7853 6.85784 14.8737 7.15938 13.8821C7.95291 11.1952 7.81008 7.98059 10.4129 6.17334C9.0797 6.5252 7.95291 7.38884 6.95306 8.50837C4.84227 10.8594 5.03272 14.33 5.30252 17.4007C5.39774 18.3602 5.35013 19.1759 5.23904 20.1515Z" fill="black"/>
<path d="M8.41309 12.4911C9.87313 11.1157 11.5555 10.0921 12.7934 8.46079C14.2693 6.49361 15.5548 4.28654 17.4911 2.59125C14.8724 3.61482 12.0474 4.67037 10.3493 7.38924C9.34946 8.97254 9.19071 10.8438 8.41309 12.4911Z" fill="black"/>
<path d="M9.50784 19.4475C10.1427 18.1521 10.5394 16.6807 10.7139 15.2573C10.4759 15.865 10.1109 16.4248 9.60304 16.9046C7.47637 18.9358 4.98468 20.9189 4.50856 23.7977C4.44508 24.2136 4.39747 24.6294 4.28637 25.0292C4.19115 25.0772 4.19115 24.9652 4.15941 24.9332L4.42921 21.3827C4.68314 17.9122 2.87388 14.0578 4.85771 11.003C4.79423 10.9871 4.74662 11.051 4.69901 11.0671C2.88976 13.386 1.68359 15.945 1.68359 19.0637C1.68359 22.9181 3.8896 25.6209 4.15941 29.2354C4.73075 25.461 7.87313 22.7741 9.50784 19.4475Z" fill="black"/>
<path d="M5.30287 43.1343C7.35018 44.7657 9.79426 46.0292 11.667 47.4685C11.302 46.5249 10.6989 45.6613 10.4608 44.6857C9.36578 40.2236 9.96879 35.0417 8.08023 30.9155C8.42941 33.2665 7.50889 35.3456 7.30257 37.5847C7.12799 39.4238 7.4454 41.2151 8.15958 42.7505C8.36586 43.2143 8.74683 43.6142 8.85789 44.0939C8.17545 43.4702 7.68347 42.6865 7.22322 41.9188C5.0172 38.3203 0.398853 35.9853 0.0814412 31.6031C-0.0772649 33.5543 0.0973119 35.6175 0.732136 37.3448C1.60502 39.7117 3.31905 41.551 5.30287 43.1343Z" fill="black"/>
<path d="M33.1392 54.9533C29.5683 54.9533 26.3625 56.6966 23.236 58.0081C20.3951 59.1915 16.6338 58.9677 14.1104 57.2084C15.3483 58.7757 17.0147 59.7513 18.7446 60.4071C21.9346 61.6865 25.6642 60.711 28.3939 58.9517C30.346 57.6882 32.0283 55.897 34.3612 55.897C38.1226 55.897 42.0743 59.7833 45.4548 63.3019C45.9786 62.87 46.534 62.4222 46.9625 61.9264C43.4234 58.5358 38.4241 54.9533 33.1392 54.9533Z" fill="black"/>
<path d="M26.7593 55.3368C27.3148 55.1929 27.9814 55.2408 28.4892 55.0489C26.3626 54.6171 24.3152 53.9614 22.6647 52.442C20.2999 50.2669 18.2051 47.9479 15.6816 46.2526C17.6654 48.9394 18.2209 52.8418 21.8394 54.2013C22.4742 54.4411 23.2202 54.4892 23.7756 54.841C23.0773 54.9529 22.4742 54.729 21.8235 54.5851C17.1576 53.5775 11.4759 54.873 7.98438 50.8746C9.30167 53.4975 12.0314 55.5607 14.6659 56.4243C18.7129 57.7997 22.9504 56.2804 26.7593 55.3368Z" fill="black"/>
<path d="M18.9519 53.3699C15.9207 50.907 15.4604 47.2125 14.1114 43.9819C13.2703 41.9667 11.9054 40.1594 10.4454 38.4001C12.0483 41.6308 11.3499 45.7891 13.429 48.8278C14.0797 49.7874 14.9843 50.6991 15.8255 51.4507L15.7937 51.4987C15.0319 51.1469 14.3495 50.603 13.6512 50.0273C10.0168 46.9726 4.54146 46.5887 2.36719 41.6148C2.9544 45.2613 5.82698 48.492 8.93764 50.5391C11.8895 52.4902 15.6826 52.2823 18.9519 53.3699Z" fill="black"/>
<path d="M61.1828 8.46079C62.4207 10.1081 64.103 11.1157 65.5631 12.4911C64.7854 10.8438 64.6268 8.97254 63.6428 7.38924C61.9446 4.67037 59.1196 3.61482 56.501 2.59125C58.4054 4.28654 59.691 6.47762 61.1828 8.46079Z" fill="black"/>
<path d="M66.817 13.8821C67.1027 14.8577 67.5312 15.7853 67.7692 16.8089L67.7058 16.8569C67.2772 15.7053 66.5313 14.6018 65.5632 13.6902C63.7381 11.947 60.9924 10.9073 60.0879 8.36442C60.1355 11.8989 63.1191 14.5858 65.8489 16.6489C67.071 17.5766 68.1184 18.8241 68.7532 20.1355C68.6421 19.1599 68.5945 18.3443 68.6897 17.4007C68.9754 14.3139 69.15 10.8594 67.0551 8.50837C66.0552 7.38884 64.9284 6.5092 63.5953 6.17334C66.1663 7.98059 66.0234 11.1952 66.817 13.8821Z" fill="black"/>
<path d="M69.5465 21.3673L69.8163 24.9178C69.7846 24.9498 69.7846 25.0458 69.6893 25.0138C69.5782 24.614 69.5306 24.1981 69.4672 23.7823C68.991 20.9195 66.4834 18.9203 64.3726 16.8892C63.8648 16.4094 63.4998 15.8496 63.2617 15.2419C63.4363 16.6653 63.8331 18.1367 64.4679 19.4322C66.1026 22.7588 69.2449 25.4456 69.8163 29.236C70.0861 25.6055 72.2921 22.9187 72.2921 19.0643C72.2921 15.9456 71.086 13.3867 69.2767 11.0676C69.2291 11.0357 69.1815 10.9876 69.118 11.0037C71.1018 14.0583 69.2767 17.9128 69.5465 21.3673Z" fill="black"/>
<path d="M70.1177 31.2991C69.7686 32.6425 69.6416 34.0819 69.102 35.3294C69.0544 35.3614 69.0068 35.2974 68.9751 35.2654C70.3241 31.459 68.3561 27.9564 66.4358 24.9497C65.9279 24.1661 65.6899 23.2384 65.4518 22.3108C65.2455 24.0381 65.6105 26.0213 65.9279 27.7965C66.3406 30.0836 67.1023 32.2266 67.7213 34.4337C68.1339 35.8092 68.0228 37.3606 67.8165 38.8159L68.007 38.6559C69.4353 36.0011 72.2603 33.922 73.1173 31.0112C73.7997 28.6921 74.2759 26.0053 73.7997 23.4784C73.5775 22.5027 73.403 21.4951 72.9904 20.5995C73.768 24.7418 71.0541 27.7326 70.1177 31.2991Z" fill="black"/>
<path d="M50.724 58.0081C47.5817 56.6966 44.3917 54.9533 40.8208 54.9533C35.5517 54.9533 30.5367 58.5519 27.0293 61.9264C27.4578 62.4222 28.0133 62.8861 28.5369 63.3019C31.9015 59.7993 35.8692 55.897 39.6305 55.897C41.9635 55.897 43.6458 57.6882 45.5979 58.9517C48.3118 60.6949 52.0414 61.6865 55.2472 60.4071C56.9612 59.7513 58.6276 58.7757 59.8814 57.2084C57.3421 58.9517 53.5649 59.1915 50.724 58.0081Z" fill="black"/>
<path d="M66.769 41.8866C66.2928 42.6543 65.8167 43.4539 65.1343 44.0617C65.2454 43.5979 65.6262 43.1821 65.8326 42.7182C66.5467 41.1669 66.8642 39.3916 66.6896 37.5524C66.4674 35.3134 65.5469 33.2342 65.9119 30.8832C64.0075 35.0095 64.6264 40.1913 63.5314 44.6535C63.2933 45.645 62.6902 46.5087 62.3252 47.4363C64.1979 45.9968 66.6419 44.7334 68.6893 43.1021C70.6731 41.5347 72.3872 39.6795 73.2918 37.2806C73.9425 35.5532 74.1012 33.4901 73.9425 31.5389C73.6092 35.9531 68.975 38.2881 66.769 41.8866Z" fill="black"/>
<path d="M60.294 50.0273C59.5957 50.603 58.9133 51.1469 58.1514 51.4987L58.1197 51.4507C58.9609 50.683 59.8655 49.7714 60.5162 48.8278C62.5952 45.7891 61.8969 41.6148 63.4998 38.4001C62.0398 40.1594 60.6748 41.9667 59.8338 43.9819C58.4847 47.2125 58.0245 50.907 54.9932 53.3699C58.2626 52.2823 62.0556 52.4902 64.9917 50.5551C68.0865 48.5079 70.959 45.2773 71.5621 41.6308C69.4037 46.5887 63.9442 46.9726 60.294 50.0273Z" fill="black"/>
<path d="M52.153 54.601C51.5023 54.745 50.8992 54.9529 50.2009 54.8569C50.7564 54.5051 51.4864 54.4571 52.1371 54.2172C55.7556 52.8417 56.311 48.9394 58.2949 46.2685C55.7715 47.9638 53.6765 50.2828 51.3119 52.4579C49.6613 53.9773 47.614 54.617 45.4873 55.0649C45.9952 55.2567 46.6618 55.2087 47.2172 55.3527C51.0421 56.3123 55.2636 57.8157 59.3265 56.4563C61.9451 55.5766 64.6749 53.5135 66.008 50.9065C62.5006 54.8889 56.8031 53.6094 52.153 54.601Z" fill="black"/>
<path d="M36.9805 0C22.5382 0 10.7939 11.835 10.7939 26.3889C10.7939 40.9429 22.5382 52.778 36.9805 52.778C51.4227 52.778 63.167 40.9429 63.167 26.3889C63.167 11.835 51.4227 0 36.9805 0ZM36.9805 31.4268C34.219 31.4268 31.9812 29.1718 31.9812 26.3889C31.9812 23.6061 34.219 21.351 36.9805 21.351C39.742 21.351 41.9797 23.6061 41.9797 26.3889C41.9797 29.1718 39.742 31.4268 36.9805 31.4268ZM40.7418 22.1507C39.8213 21.3191 38.631 20.7913 37.3137 20.7114V16.3931C39.8054 16.4731 42.0749 17.4807 43.7731 19.096L40.7418 22.1507ZM36.6631 20.7114C35.3458 20.7913 34.1555 21.3191 33.235 22.1507L30.2038 19.096C31.9019 17.4807 34.1714 16.4731 36.6631 16.3931V20.7114ZM32.7906 22.6145C31.9653 23.5422 31.4417 24.7416 31.3623 26.0691H27.0772C27.1566 23.5581 28.1564 21.2711 29.7593 19.5599L32.7906 22.6145ZM31.3623 26.7088C31.4417 28.0363 31.9653 29.2358 32.7906 30.1634L29.7593 33.2181C28.1564 31.5068 27.1566 29.2198 27.0772 26.7088H31.3623ZM33.235 30.6272C34.1555 31.4588 35.3458 31.9866 36.6631 32.0666V36.3848C34.1714 36.3048 31.9019 35.2973 30.2038 33.6819L33.235 30.6272ZM37.2979 32.0506C38.6151 31.9707 39.8054 31.4429 40.7259 30.6112L43.7573 33.6659C42.0591 35.2812 39.7896 36.2888 37.2979 36.3688V32.0506ZM41.1862 30.1634C42.0115 29.2358 42.5352 28.0363 42.6146 26.7088H46.8996C46.8202 29.2198 45.8204 31.5068 44.2175 33.2181L41.1862 30.1634ZM42.6146 26.0691C42.5352 24.7416 42.0115 23.5422 41.1862 22.6145L44.2175 19.5599C45.8204 21.2711 46.8202 23.5581 46.8996 26.0691H42.6146ZM44.2175 18.6482C42.3923 16.9209 39.9801 15.8334 37.2979 15.7534V10.9555C41.2814 11.0354 44.8999 12.6667 47.5821 15.2577L44.2175 18.6482ZM36.6631 15.7534C33.9968 15.8334 31.5686 16.9209 29.7435 18.6482L26.3789 15.2577C29.061 12.6667 32.6795 11.0354 36.6631 10.9555V15.7534ZM29.2991 19.096C27.585 20.9352 26.5059 23.3663 26.4265 26.0691H21.6654C21.7447 22.0548 23.3635 18.4083 25.9345 15.7055L29.2991 19.096ZM26.4424 26.7088C26.5217 29.3957 27.6009 31.8427 29.315 33.6819L25.9345 37.0725C23.3635 34.3696 21.7447 30.7231 21.6654 26.7088H26.4424ZM29.7593 34.1297C31.5845 35.857 33.9968 36.9445 36.6789 37.0245V41.8225C32.6954 41.7425 29.0769 40.1112 26.3948 37.5203L29.7593 34.1297ZM37.2979 37.0086C39.9642 36.9286 42.3923 35.841 44.2175 34.1137L47.5821 37.5043C44.8999 40.0952 41.2814 41.7266 37.2979 41.8065V37.0086ZM44.6618 33.6659C46.3759 31.8267 47.4551 29.3957 47.5345 26.6929H52.2957C52.2162 30.7072 50.5974 34.3537 48.0264 37.0565L44.6618 33.6659ZM47.5345 26.0691C47.4551 23.3822 46.3759 20.9352 44.6618 19.096L48.0264 15.7055C50.5974 18.4083 52.2162 22.0548 52.2957 26.0691H47.5345ZM48.0264 14.8098C45.2332 12.107 41.456 10.4116 37.2979 10.3317V6.07746C42.6145 6.15743 47.4392 8.33256 50.9942 11.803L48.0264 14.8098ZM36.6631 10.3157C32.505 10.3957 28.7278 12.0909 25.9345 14.7938L22.9667 11.803C26.5217 8.33256 31.3464 6.15743 36.6631 6.07746V10.3157ZM25.4902 15.2577C22.808 18.0724 21.1257 21.8788 21.0464 26.0691H16.8406C16.9201 20.7114 19.0785 15.8494 22.5223 12.2669L25.4902 15.2577ZM21.0464 26.7088C21.1257 30.8991 22.808 34.7055 25.4902 37.5203L22.5223 40.511C19.0785 36.9286 16.9201 32.0666 16.8406 26.7088H21.0464ZM25.9345 37.9681C28.7278 40.671 32.505 42.3663 36.6631 42.4462V46.6845C31.3464 46.6045 26.5217 44.4294 22.9667 40.9589L25.9345 37.9681ZM37.2979 42.4623C41.456 42.3823 45.2332 40.687 48.0264 37.9841L50.9942 40.9748C47.4392 44.4454 42.6145 46.6205 37.2979 46.7004V42.4623ZM48.4866 37.5203C51.1688 34.7055 52.8511 30.8991 52.9305 26.7088H57.1362C57.0568 32.0666 54.8984 36.9286 51.4545 40.511L48.4866 37.5203ZM52.9305 26.0691C52.8511 21.8788 51.1688 18.0724 48.4866 15.2577L51.4545 12.2669C54.8984 15.8494 57.0568 20.7114 57.1362 26.0691H52.9305ZM51.4545 11.3552C47.7725 7.75676 42.805 5.51769 37.2979 5.43773V0.639732C44.1064 0.719699 50.28 3.50253 54.8191 7.96467L51.4545 11.3552ZM36.6631 5.43773C31.1719 5.51769 26.1885 7.75676 22.5065 11.3552L19.1578 7.96467C23.6968 3.50253 29.8705 0.719699 36.6789 0.639732V5.43773H36.6631ZM22.0621 11.803C18.4912 15.5135 16.2694 20.5194 16.1899 26.0691H11.4288C11.5082 19.208 14.2696 12.9865 18.6975 8.41246L22.0621 11.803ZM16.2058 26.7088C16.2852 32.2425 18.5071 37.2644 22.078 40.9748L18.6975 44.3495C14.2696 39.7914 11.5241 33.57 11.4446 26.7088H16.2058ZM22.5223 41.4226C26.2043 45.0212 31.1719 47.2602 36.6789 47.3402V52.1382C29.8705 52.0582 23.6968 49.2754 19.1578 44.8132L22.5223 41.4226ZM37.2979 47.3402C42.7891 47.2602 47.7725 45.0212 51.4545 41.4226L54.8191 44.8132C50.28 49.2754 44.1064 52.0582 37.2979 52.1382V47.3402ZM51.8988 40.9589C55.4698 37.2484 57.6917 32.2425 57.771 26.6929H62.5322C62.4528 33.5539 59.6913 39.7753 55.2634 44.3495L51.8988 40.9589ZM57.771 26.0691C57.6917 20.5354 55.4698 15.5135 51.8988 11.803L55.2634 8.41246C59.6913 12.9865 62.4528 19.208 62.5322 26.0691H57.771Z" fill="black"/>
<path d="M38.4878 20.28L38.3291 20.2959V20.4879L38.4878 20.4718V20.28Z" fill="black"/>
<path d="M38.2981 20.0234H38.0918V20.1833H38.2981V20.0234Z" fill="black"/>
<path d="M37.71 19.9758L37.9004 20.0078L37.9163 19.8478L37.7258 19.8159L37.71 19.9758Z" fill="black"/>
<path d="M37.5515 19.9113L37.377 19.8954L37.3928 19.7354L37.5832 19.7514L37.5515 19.9113Z" fill="black"/>
<path d="M36.2347 19.7041H36.0283V19.8641H36.2347V19.7041Z" fill="black"/>
<path d="M35.5684 20.0236L35.7588 20.0555L35.7747 19.8956L35.6001 19.8636L35.5684 20.0236Z" fill="black"/>
<path d="M35.5992 20.2796L35.377 20.2156L35.4246 20.0557L35.6309 20.1196L35.5992 20.2796Z" fill="black"/>
<path d="M35.2192 20.4718L35.1875 20.3119L35.3462 20.28L35.378 20.4399L35.2192 20.4718Z" fill="black"/>
<path d="M14.5071 37.0243V37.3762H14.6658L14.6341 36.9764L14.4277 36.8964V36.7524H14.3008V37.0243H14.5071Z" fill="black"/>
<path d="M15.6182 38.0005L16.015 38.1924L16.1419 38.5603L16.3324 38.7042L16.5069 39.1041L16.4117 39.296L16.1102 39.0241L15.9038 38.7202L15.7928 38.4803L15.6182 38.0005Z" fill="black"/>
<path d="M22.2845 46.3007L22.4274 46.6525L22.2369 46.7645L22.1258 46.6045L21.8719 46.5246L21.8401 46.2847L21.6338 45.9648L21.9512 46.0128L22.2845 46.3007Z" fill="black"/>
<path d="M36.1715 22.0231H35.8858L35.8382 21.4314L35.9969 21.3195V21.0156H35.0764L35.0447 20.7117L35.1716 20.6317L34.9653 20.5518L34.8066 20.7597L34.759 20.9996L34.4892 21.0475V21.1755H34.2987V21.5274L33.5528 22.1511L32.0769 22.1031C31.9658 22.343 31.7118 22.0711 31.7118 22.0711C31.6642 21.9112 31.2834 22.0711 31.2834 22.0711C31.2834 22.375 30.7755 21.9432 30.7755 21.9432L29.855 21.2715C29.3312 20.7917 28.5377 21.3994 28.506 21.5434C28.5377 21.9272 27.9029 21.6233 27.9029 21.6233C27.9029 21.6233 27.3791 21.4634 27.2998 21.6714C27.2205 21.8793 26.8713 21.8312 26.8713 21.8312L26.8236 21.9432L26.5539 21.9911L26.5062 22.1511L26.1888 22.1991L26.9824 22.1671C27.1887 22.1351 26.9031 22.6309 26.7761 22.5989L26.411 22.6309L26.2841 22.7588H25.935L25.7762 22.9828L25.2684 22.9508C25.2684 22.9508 24.9827 23.1907 24.9986 23.2707C25.0303 23.3507 24.951 23.5905 24.8716 23.5905C24.7922 23.5905 24.6336 23.8304 24.6812 23.9104C24.7288 23.9903 24.5224 24.2622 24.5224 24.2622L24.4748 24.5341L24.3162 24.5821V25.3178L23.9988 25.5417V25.8616L23.5226 26.3733L23.5702 26.8052L23.1735 27.237L23.2211 27.6688L22.983 27.7488L22.9354 27.9407L22.8243 28.5004L23.0941 28.5324C23.2211 28.4845 23.2052 28.8843 23.0941 28.9323C22.983 28.9803 22.6973 29.0922 22.856 29.2042C23.0147 29.3161 22.4276 29.2841 22.4276 29.1242C22.4276 28.9643 22.1102 28.8203 22.0307 28.8843C21.9514 28.9323 21.8245 28.6444 21.8245 28.6444C21.5388 28.3405 20.6342 28.6764 20.6342 28.6764L20.5072 29.1082C20.2215 29.1562 20.0311 29.6519 20.0311 29.6519C19.793 29.7319 19.6026 30.0358 19.6819 30.1158C19.7613 30.1958 19.555 30.2277 19.555 30.2277V30.8195L19.428 31.0114L19.4597 31.6511C19.6185 31.6511 19.5867 31.9551 19.5867 31.9551C19.3169 31.987 19.3804 32.3389 19.3804 32.3389L18.8249 32.5308L18.7138 32.6908L18.0314 32.6587L17.8409 32.8506L17.6505 32.6587H16.3332L16.2856 32.5308L16.0158 32.4828L15.984 32.1789L15.5873 32.2109L15.508 32.3709L15.0794 32.4029C15.1111 32.6747 14.6509 33.0746 14.6033 32.9626C14.5557 32.8506 14.2542 32.5627 14.397 32.4988C14.524 32.4508 14.8731 32.3868 14.8731 32.3868V32.1949L13.8892 32.163L13.778 32.3229L13.3813 32.3548V32.7867L13.1908 32.8346C13.0639 32.9146 13.2226 33.2185 13.2226 33.2185C13.413 33.4104 13.1908 33.6983 13.1908 33.6983C13.0321 33.8582 13.3178 34.1621 13.3178 34.1621C13.5241 34.2101 13.1908 34.37 13.1908 34.37C13.2385 34.6419 13.3971 34.7218 13.3971 34.7218C13.2385 34.9938 13.5082 35.1217 13.5082 35.1217L13.54 35.5855L13.7304 35.6975V36.0013L13.8415 36.1932H14.2701L14.2383 35.5216C13.8733 35.0897 14.5557 34.9777 14.5875 35.1377C14.6192 35.2976 14.9049 35.3776 14.9049 35.3776C14.9525 35.7774 15.4127 36.0173 15.5397 35.6175C15.6666 35.2176 15.7778 35.4575 15.8571 35.6495C15.9364 35.8414 16.4443 36.3052 16.4443 36.3052H16.8411L16.8887 36.689C17.333 36.657 17.4759 36.721 17.6505 37.3288C17.8409 37.9525 18.3329 38.1124 18.3329 38.1124L18.698 38.0804C18.698 37.7606 19.063 38.1284 19.063 38.3044C19.063 38.4643 19.7771 39.0881 19.7771 39.0881L20.4913 39.248L21.1579 39.7917L21.6657 39.7438H21.8721C21.999 39.2799 22.6338 39.7758 22.6973 39.9356C22.745 40.0956 23.1735 40.3675 23.2211 40.2396C23.2687 40.1116 23.5702 40.1916 23.6178 40.5914C23.6655 40.9912 23.8559 40.9112 23.8559 40.9112L25.3636 40.8793L25.8874 40.4155L27.2363 40.3835C27.9188 40.3515 27.5062 39.4079 27.3633 39.4079C27.1252 39.216 27.4426 38.4323 27.4426 38.4323L25.5223 36.6251C25.0779 36.6251 25.4747 35.9694 25.4747 35.9694C25.8238 35.7454 25.3953 35.4096 25.3953 35.4096C25.4429 35.0897 25.2049 34.7059 25.2049 34.7059C24.7288 34.386 24.8557 33.7623 24.8557 33.7623V33.3304C24.459 32.9466 25.0145 32.8987 25.0145 32.8987C25.2049 32.5788 24.8874 32.3389 24.8874 32.3389L24.8557 31.987L24.4272 31.939L24.3796 30.6755L23.4274 29.3001C23.2369 29.2522 23.3798 28.9163 23.3798 28.9163C23.6178 28.7883 23.3321 28.4525 23.3321 28.4525L23.3004 27.8608L23.8559 27.8127L23.9829 27.6048H24.2526L24.2209 26.9011C24.3479 26.5493 24.6653 26.7412 24.6653 26.7412L25.0303 26.7732L25.2366 26.3733L25.2843 26.0535L24.9986 26.0215C24.6812 25.8296 24.8398 25.1259 24.8398 25.1259C25.3477 24.3742 25.9191 24.806 25.9191 24.806L26.2841 24.774C26.8396 25.1579 26.3317 25.8456 26.3317 25.8456C26.2206 26.0055 26.2841 26.5173 26.2841 26.5173L26.411 27.3809L26.0619 27.6848C25.7762 27.8447 25.7762 28.2286 26.0936 28.3086C26.3 28.3405 26.2206 28.8523 25.9032 28.5004C25.4271 28.5004 26.173 28.9323 25.9508 28.8203C26.4269 29.0602 26.3158 28.6124 26.3158 28.6124L26.9507 28.1006C27.1887 27.9087 27.6172 28.5004 27.6172 28.5804C27.6172 28.6604 28.6647 28.6124 28.6647 28.6124C28.9503 28.8044 29.0615 29.2841 29.0615 29.2841C29.3471 28.9003 29.966 29.2522 29.5058 29.476C29.9343 29.748 29.9343 29.9879 29.9343 29.9879C30.2834 29.8759 30.2834 30.1478 30.2834 30.2277C30.2834 30.3077 30.3946 29.8279 30.3946 29.8279C29.9979 29.524 30.9183 29.4281 30.6644 29.9559L30.5057 30.1958L30.7755 30.4037L30.8072 31.0274C31.3944 30.9794 31.2357 30.2437 31.2357 30.2437L31.5055 30.1958C31.5055 29.9559 31.696 30.0838 31.696 30.0838C31.5055 29.1722 32.1245 29.0123 32.1245 29.0123C32.4736 28.9323 32.4895 28.1966 32.4895 28.1966C32.2515 28.0846 32.3784 27.7168 32.6482 28.0367C32.918 28.3565 32.4895 27.3809 32.4895 27.3809L32.2832 27.189L31.9975 27.157L31.9658 26.8531H31.4896L31.4103 27.237L31.2357 27.3169L31.1881 27.205L31.1088 27.5089H30.6327L30.6009 27.189L30.8865 27.109L30.9977 26.9491L31.077 26.5173H31.4262L31.8705 26.3894C31.9023 25.9255 32.1403 26.0375 32.1403 26.0375L32.2991 26.1654L32.5371 26.3574L32.5689 26.5173L32.4101 26.5973L32.3784 26.8211L32.4577 27.1251H32.6641C32.7434 26.6932 33.2989 26.6932 33.4576 26.9651L33.6163 26.5812C33.2513 26.3894 33.6163 26.1015 33.7115 26.2294C33.8227 26.3574 34.0607 25.8775 34.0607 25.8775C34.0607 25.8775 34.2511 26.1174 34.0607 25.7976C33.8703 25.4777 34.1877 25.3178 34.1877 25.3178C34.1401 24.9979 34.5368 25.0459 34.5368 25.0459L34.5685 24.614L34.2035 24.5821C34.1242 24.9659 33.8068 24.6301 33.9655 24.5501C34.1242 24.4702 34.2829 24.3102 34.2829 24.3102V24.0383L34.4416 23.9903L34.4734 23.7185H34.8701L35.2192 23.5586L35.2986 23.4306L35.6636 23.3986L36.1873 22.9188L36.1397 22.7109C35.8223 22.7109 36.1397 22.471 36.1397 22.471L36.1715 22.0231Z" fill="black"/>
<path d="M25.5379 27.3648L25.0619 27.3168L25.0936 27.5087H25.2205C25.4269 27.8926 25.2523 28.8042 25.2523 28.8042C25.2523 28.8042 24.9348 28.8362 24.8872 28.6763C24.8396 28.5163 24.6969 29.0281 24.8079 29.1081C24.919 29.188 25.284 29.1081 25.3158 29.4119C25.3475 29.7158 25.5538 29.22 25.5538 29.22L25.5379 27.3648Z" fill="black"/>
<path d="M25.0615 29.5559V30.1956L25.4741 30.7714L25.6328 30.3876L25.6963 30.1477L25.5059 30.0677L25.5376 29.6678L25.6963 29.6358L25.7122 29.444L25.3154 29.7158L25.0615 29.5559Z" fill="black"/>
<path d="M25.7444 31.3627V31.0908L25.554 31.1228L25.5381 31.3307L25.7444 31.3627Z" fill="black"/>
<path d="M25.5054 32.6587V32.4668L25.2832 32.4988V32.6907L25.5054 32.6587Z" fill="black"/>
<path d="M25.823 31.827C25.8864 31.827 25.934 31.779 25.934 31.715C25.934 31.651 25.8864 31.603 25.823 31.603C25.7595 31.603 25.7119 31.651 25.7119 31.715C25.7119 31.779 25.7595 31.827 25.823 31.827Z" fill="black"/>
<path d="M25.9978 32.3864C26.0591 32.3864 26.1088 32.3363 26.1088 32.2744C26.1088 32.2126 26.0591 32.1625 25.9978 32.1625C25.9365 32.1625 25.8867 32.2126 25.8867 32.2744C25.8867 32.3363 25.9365 32.3864 25.9978 32.3864Z" fill="black"/>
<path d="M26.0135 29.3001C26.0748 29.3001 26.1246 29.25 26.1246 29.1881C26.1246 29.1263 26.0748 29.0762 26.0135 29.0762C25.9522 29.0762 25.9023 29.1263 25.9023 29.1881C25.9023 29.25 25.9522 29.3001 26.0135 29.3001Z" fill="black"/>
<path d="M34.4725 25.5253H34.6313L34.663 25.7012L34.552 25.7972L34.5044 25.9411L34.298 25.9891L33.8219 26.4529L33.7901 26.6608L33.6632 26.8527L33.5044 27.2526L32.949 27.2845L32.8379 27.7643L32.9173 28.1801L33.3934 28.3721L33.441 28.1002L33.5997 28.0202L33.6315 27.7484L33.7425 27.5564L33.9013 27.3645L33.9489 27.1566L34.2187 26.9967L34.5361 26.9327L34.663 26.7728L34.7106 26.4529L34.7424 26.213L34.8535 26.0371L35.1709 25.9091V25.3973H35.0122L34.9804 25.2055L34.6948 25.1734L34.6313 25.3174H34.5044L34.4725 25.5253Z" fill="black"/>
<path d="M35.711 27.0447V26.6609L35.6633 26.309L35.2665 26.1171L34.9809 26.389L34.9333 26.7728V27.0127L34.6634 27.0607L34.6158 27.7964L34.4096 27.8763L34.4413 28.1483L34.1556 28.2282L33.87 28.3082L33.8224 28.66L33.616 28.788L33.5049 29.1078L33.3779 29.8915C33.3779 29.8915 33.616 30.3554 33.7429 30.1314C33.87 29.9235 34.0921 29.8915 34.0921 29.8915L34.1715 29.6996L34.8857 29.7316C34.9333 29.4277 35.2824 29.5397 35.2824 29.6836C35.2824 29.8116 35.5522 29.7156 35.5522 29.7156L35.7427 29.4118H36.0284L36.0601 29.0919L36.187 29.0119V28.5321C36.6156 28.4041 36.552 27.9883 36.552 27.9883L36.6632 27.8604L36.6156 27.6684C36.4093 27.5885 36.5045 27.3966 36.6473 27.4446C36.7743 27.4925 36.4569 27.2047 36.4569 27.2047C36.2982 27.3326 36.1712 27.0447 36.1712 27.0447H35.711Z" fill="black"/>
<path d="M36.139 30.3072C36.1072 30.6271 35.7105 30.739 35.7105 30.739L35.4248 30.6591L35.2661 30.5311L35.2344 30.1472L35.4724 30.1152L35.5201 30.2752L36.139 30.3072Z" fill="black"/>
<path d="M37.5679 28.5804C37.6315 28.8203 37.6156 28.1965 37.7267 28.2286C37.8377 28.2606 37.7584 27.8447 37.7584 27.8447L37.2822 28.1965C37.5044 28.2286 37.5362 28.4685 37.5679 28.5804Z" fill="black"/>
<path d="M38.9646 27.1729C39.0758 27.4128 39.044 27.7646 39.4408 28.0366C39.5677 28.1325 39.3614 28.3084 39.2345 28.2284C39.1075 28.1485 38.7266 27.5567 38.7266 27.5567V27.2048C38.806 26.9969 38.917 27.0769 38.9646 27.1729Z" fill="black"/>
<path d="M38.9639 35.3774L39.0432 35.4574L39.1225 35.6014L39.2971 35.2974L39.1543 35.2495L38.9639 35.3774Z" fill="black"/>
<path d="M42.1226 34.5616L42.3289 34.4176L42.2496 34.2896L42.0273 34.4176L42.1226 34.5616Z" fill="black"/>
<path d="M49.7567 40.1913L49.9948 40.3033L50.0265 40.767C50.3439 41.0869 51.3755 40.8151 51.3755 40.7351C51.3755 40.6552 51.3279 39.7435 51.3279 39.7435L51.2009 39.6155L51.1691 38.9439C51.2803 38.592 50.6613 38.0802 50.6137 38.1921C50.5661 38.3041 50.2169 38.2241 50.2169 38.3201C50.2169 38.432 50.0106 38.9598 50.1058 39.1518C50.2169 39.3437 50.0265 39.3437 49.9948 39.5356C49.963 39.6955 49.6932 40.0154 49.7567 40.1913Z" fill="black"/>
<path d="M49.1693 39.1039C49.1217 39.3118 48.9313 39.4238 48.8201 39.3438C48.7091 39.2638 48.9471 39.4717 49.0106 39.5837C49.0582 39.6957 49.217 39.6957 49.2804 39.5837C49.328 39.4717 49.3122 39.2318 49.3598 39.1199C49.4074 39.0239 49.2011 38.9919 49.1693 39.1039Z" fill="black"/>
<path d="M48.1377 34.1616H47.9473V34.6734H48.1377V34.1616Z" fill="black"/>
<path d="M50.677 28.9643C50.566 28.8044 51.2008 28.5325 51.3119 28.8523C51.423 29.1722 51.3119 29.1242 51.2008 29.0922C51.1056 29.0602 50.8358 29.1722 50.677 28.9643Z" fill="black"/>
<path d="M51.2485 25.3497L51.2168 25.5096L51.5025 25.5576L51.5342 25.3977L51.2485 25.3497Z" fill="black"/>
<path d="M50.502 25.8131L50.5178 25.8611L50.6766 25.7971L50.613 25.6692L50.5813 25.5732L50.502 25.6212L50.3116 25.7331L50.1369 25.6212L50.0576 25.7651L50.2639 25.8931L50.3116 25.9251L50.3433 25.8931L50.502 25.8131Z" fill="black"/>
<path d="M51.5016 19.2402H51.1049C51.1049 19.2402 51.2318 19.2882 50.8668 18.9364C50.5018 18.5845 50.2637 19.0163 50.2637 19.0163L49.8353 19.0643V19.4962L49.6289 19.5761L49.6606 19.848L49.9463 19.816C49.9463 19.816 49.9463 20.1358 50.0257 20.0079C50.1051 19.88 50.7716 20.0399 50.7082 20.3598C50.6923 20.4877 51.3747 20.8395 51.2954 21.2714C51.6445 21.3194 51.5651 21.6712 51.5651 21.6712L52.0095 21.7192L52.1365 21.4473L52.2635 21.4793V21.3194L51.9778 21.2394L51.9302 20.3758L51.7397 20.2478L51.7873 20.0239L51.581 19.944L51.6921 19.5921L51.5016 19.2402Z" fill="black"/>
<path d="M52.6605 21.9908L52.4541 21.9589L51.9781 22.0388L51.7083 22.5506C51.7083 22.5506 51.8352 22.6305 51.9463 22.8225C52.0574 23.0144 52.105 24.1179 51.7876 24.3098C51.4702 24.5018 51.8193 24.3898 51.8193 24.3898L51.7717 24.9816C51.8511 25.2535 51.9781 25.1096 52.0574 24.9816C52.1367 24.8536 52.2161 24.8217 52.3272 24.6777C52.4383 24.5498 52.597 24.2939 52.6129 24.1179C52.6446 23.926 52.7716 23.6382 52.6922 23.5582C52.6129 23.4782 52.7716 23.0943 52.7716 23.0943C52.7716 23.0943 52.8826 22.8705 52.7716 22.6626C52.6605 22.4386 52.8033 22.1988 52.8826 22.1028L52.6605 21.9908Z" fill="black"/>
<path d="M52.9775 23.0946L52.9934 22.8867L53.1521 22.9027L53.1362 23.1266L52.9775 23.0946Z" fill="black"/>
<path d="M52.9621 23.8463L52.8193 23.7663L52.8987 23.6064L53.0415 23.6864L52.9621 23.8463Z" fill="black"/>
<path d="M52.7397 21.7032L52.6285 21.4633C52.6285 21.4633 52.6285 21.2554 52.6761 21.1435C52.7238 21.0315 52.5651 20.9355 52.4857 20.9036C52.4064 20.8716 52.4382 20.6637 52.4064 20.5517C52.3746 20.4397 52.2001 20.3597 52.2001 20.3597C52.2001 20.3597 52.1525 19.96 52.1525 19.88C52.1525 19.8 51.9144 19.6881 51.9937 19.6081C52.0731 19.5281 52.1207 19.4161 52.2001 19.3682C52.2794 19.3202 52.1207 18.9364 52.2477 19.0164C52.3746 19.0963 52.3746 19.2402 52.4382 19.3362C52.4858 19.4481 52.4063 19.816 52.5492 19.896C52.6761 19.9759 52.5175 20.2479 52.7397 20.2479C52.946 20.2479 52.819 20.7596 52.819 20.7596C52.819 20.7596 52.7714 21.1435 52.8984 21.1595C53.0253 21.1915 52.946 21.8311 52.946 21.8311L52.7397 21.7032Z" fill="black"/>
<path d="M51.0254 17.3363C51.1047 17.4483 51.2634 17.5282 51.2634 17.6402C51.2634 17.7522 51.2158 17.8322 51.3745 17.8481C51.5332 17.8801 51.6443 17.8161 51.6919 17.9601C51.7395 18.088 51.7395 18.3119 51.7237 18.4239C51.6919 18.5359 51.7554 18.6958 51.8823 18.6958C52.0094 18.6958 52.0411 18.7277 52.0411 18.8077C52.0411 18.8877 52.1998 18.5039 52.1998 18.5039C52.0728 18.3919 51.9618 18.152 51.9618 18.152C51.9618 18.152 51.8347 17.7682 51.8347 17.7202C51.8347 17.6722 51.6443 17.6082 51.5649 17.5923C51.4856 17.5603 51.3587 17.3203 51.3587 17.3203L51.0254 17.3363Z" fill="black"/>
<path d="M51.2799 17.0808C51.2005 16.9688 51.1212 16.8889 51.0101 16.8409C50.899 16.7929 50.8196 16.729 50.7244 16.729C50.6133 16.729 50.5181 16.617 50.5657 16.4891C50.6133 16.3611 50.4863 16.2971 50.4863 16.1852C50.4863 16.0732 50.5657 16.0732 50.6927 16.1532C50.8196 16.2331 50.8037 16.2651 50.8989 16.3931C51.0101 16.521 51.0577 16.665 51.1688 16.633C51.2799 16.601 51.3592 16.8729 51.4544 16.7929C51.5656 16.713 51.5338 16.9849 51.5338 16.9849L51.2799 17.0808Z" fill="black"/>
<path d="M48.2007 20.1357C48.3436 20.2797 47.4072 20.2477 47.4072 20.1357C47.4072 20.0238 47.4866 19.656 47.7246 19.7359C47.9627 19.8159 47.9944 19.2562 47.9944 19.2562C47.9944 19.2562 47.7881 19.2881 47.9627 19.1762C48.1531 19.0642 47.9627 18.9043 47.8833 18.8243C47.804 18.7443 47.7246 18.6004 47.7246 18.6004H48.0897C48.2484 18.4885 48.296 17.9767 48.296 17.9767C48.6134 18.0886 48.7721 17.8647 48.7721 17.8647C48.7721 17.8647 48.8197 18.0247 48.9308 18.1686C49.0419 18.2965 48.661 18.3605 48.8038 18.4405C48.9308 18.5205 48.9943 18.7604 48.9308 18.8404C48.8832 18.9203 48.5817 18.8723 48.5817 18.7604C48.5817 18.6484 48.4705 18.8883 48.5817 19.0322C48.6927 19.1601 48.4547 19.3521 48.3912 19.3521C48.3436 19.3521 47.9944 19.4 48.2801 19.576C48.5658 19.7359 48.8832 19.656 48.8832 19.656C48.8832 19.656 49.1212 19.624 49.2006 19.7679C49.28 19.8958 49.1689 19.9278 49.0419 19.9278C48.915 19.9278 48.2801 19.8799 48.2801 19.8799C48.2801 19.8799 48.1214 20.0558 48.2007 20.1357Z" fill="black"/>
<path d="M46.5027 20.3753C46.6297 20.3434 46.9471 20.3273 47.0105 20.4073C47.0581 20.4873 46.8201 20.5992 46.8201 20.5992L46.5027 20.6472C46.4074 20.5193 46.3757 20.4073 46.5027 20.3753Z" fill="black"/>
<path d="M49.915 18.1203C50.1214 18.0085 50.5817 18.0085 50.5499 17.8485C50.5181 17.6886 50.8197 17.6406 50.8197 17.6406L50.899 17.9604L51.1371 18.1203L51.1688 18.4243C51.1688 18.4243 51.2482 18.3763 50.9626 18.4562C50.6769 18.5362 50.8514 18.6642 50.8514 18.6642L50.2166 18.6961L50.1373 18.4243L49.915 18.1203Z" fill="black"/>
<path d="M48.8833 16.649C49.0421 16.649 48.8357 17.2728 49.2483 17.2087C49.6769 17.1608 49.2801 17.4007 49.5975 17.4166C49.915 17.4487 49.8356 17.1768 49.9467 16.9849C50.0578 16.7929 49.9943 16.681 49.8197 16.633C49.6293 16.585 49.6293 16.585 49.5816 16.3612C49.534 16.1532 49.3119 16.0892 49.3119 16.0892L49.2325 15.7694L48.8833 15.9773L48.5342 16.4411C48.5342 16.8249 48.7247 16.649 48.8833 16.649Z" fill="black"/>
<path d="M49.582 18.9363L49.6614 18.7764L49.8042 18.8403L49.7248 19.0163L49.582 18.9363Z" fill="black"/>
<path d="M49.4703 18.6802H49.3115V18.8722H49.4703V18.6802Z" fill="black"/>
<path d="M49.439 15.082L49.4708 15.3219L49.312 15.338L49.2803 15.0981L49.439 15.082Z" fill="black"/>
<path d="M49.1529 17.5928H48.9941V17.7208H49.1529V17.5928Z" fill="black"/>
<path d="M48.5657 17.5924L48.5498 17.4325L48.8196 17.4164L48.8355 17.5764L48.5657 17.5924Z" fill="black"/>
<path d="M46.3918 20.2L46.249 20.1359L46.3284 19.944L46.4712 20.008L46.3918 20.2Z" fill="black"/>
<path d="M45.5666 19.7041L45.5508 19.5441L45.8206 19.5121L45.8365 19.6721L45.5666 19.7041Z" fill="black"/>
<path d="M40.9954 19.6562L40.4082 19.6722L40.4241 19.8322L40.9954 19.8161V19.6562Z" fill="black"/>
<path d="M40.0273 19.88L39.9639 19.6401L40.1225 19.6081L40.1702 19.848L40.0273 19.88Z" fill="black"/>
<path d="M39.9167 20.0553L39.8691 19.8954L39.9485 19.8794L39.9961 20.0233L39.9167 20.0553Z" fill="black"/>
<path d="M41.2339 19.5924L41.2021 19.7843L41.4878 19.8163C41.4878 19.8163 41.6148 19.9282 41.6148 20.0082C41.6148 20.0881 41.8052 20.1681 41.9004 20.1681C42.0115 20.1681 42.2972 19.9442 42.2972 19.9442C42.2972 19.9442 42.4241 19.5604 42.3289 19.5924C42.2179 19.6244 42.0115 19.7843 41.9798 19.6244C41.948 19.4644 41.6306 19.5444 41.6306 19.5444L41.2339 19.5924Z" fill="black"/>
<path d="M42.5516 19.3041C42.5516 19.3841 42.504 19.4959 42.6628 19.5279C42.8214 19.56 43.1071 19.416 43.1388 19.5759C43.1706 19.7358 43.1706 19.8478 43.3769 19.9278C43.5832 20.0078 43.7261 20.0398 43.8847 20.0398C44.0435 20.0398 44.3926 19.9918 44.3926 19.9918C44.3926 19.9918 44.7735 20.0557 44.837 20.1198C45.1226 20.4236 45.3131 20.5036 45.3925 20.3596C45.4718 20.2316 45.3607 19.9278 45.3449 19.8158C45.3131 19.7039 44.9481 19.1921 44.8211 19.3041C44.6942 19.416 44.6624 19.3041 44.4243 19.3841C44.1863 19.464 43.6785 19.416 43.6626 19.3041C43.6309 19.1921 43.2658 19.1441 43.2658 19.0322C43.2658 18.9202 42.996 18.7922 43.0278 18.9522C43.0595 19.1121 42.8373 19.1921 42.7897 19.1441C42.7104 19.0801 42.5516 19.3041 42.5516 19.3041Z" fill="black"/>
<path d="M48.6139 15.8493L48.8044 15.2576C48.5346 15.2096 48.5981 14.9057 48.5981 14.9057C48.5663 14.6658 48.2013 14.394 48.0743 14.4739C47.9474 14.5539 47.995 13.9141 47.995 13.9141C47.995 13.9141 48.233 13.7542 48.3441 13.8342C48.4553 13.9141 47.4395 12.4907 47.2332 12.6187C47.0269 12.7466 46.5508 12.4907 46.5667 12.2348C46.5984 11.9949 45.6144 11.1793 45.6144 11.1793C45.6144 11.1793 45.297 10.9714 45.2493 11.1313C45.2017 11.2912 45.0907 11.4032 45.2493 11.4832C45.4081 11.5632 45.3763 11.3552 45.5667 11.5312C45.7572 11.7231 46.0905 11.9629 45.9636 12.1229C45.8365 12.2828 45.6779 12.3468 45.6779 12.3468L45.8683 12.5707H46.154L46.2016 13.0345C46.2016 13.0345 46.519 13.1944 46.5984 13.3864C46.6777 13.5783 46.6777 13.6903 46.5984 13.7862C46.519 13.8982 46.3603 14.09 46.392 14.266C46.4238 14.4579 46.6301 14.5379 46.6301 14.5379L46.8364 14.5699L46.9951 14.6498V15.0017C47.2015 14.9537 47.5506 15.2416 47.5189 15.4335C47.4871 15.6255 47.5665 15.5135 47.8363 15.7054C48.106 15.8973 48.0267 15.9293 48.2013 16.0572C48.3758 16.1692 48.5346 16.0892 48.6139 15.8493Z" fill="black"/>
<path d="M44.2648 12.1711C44.233 12.0592 44.1854 11.6913 44.3441 11.7073C44.5028 11.7393 44.3917 11.7073 44.5822 11.7872C44.7727 11.8672 44.7885 11.6593 44.7885 11.6593H45.0742L45.4392 11.9631L45.3916 12.203L45.1218 12.2351C44.9948 12.0272 44.725 12.1071 44.7727 12.283C44.8203 12.475 44.6456 12.8268 44.5346 12.8428C44.4234 12.8748 44.0901 12.8748 44.106 12.7149C44.1537 12.5549 44.2648 12.1711 44.2648 12.1711Z" fill="black"/>
<path d="M44.0585 11.4518V11.2439C44.0585 11.2439 44.0268 11.036 43.8999 11.036C43.7729 11.036 43.5349 10.876 43.5825 10.7641C43.6301 10.6522 43.1381 10.5402 43.1381 10.5402C43.1381 10.5402 42.6937 10.1084 42.8524 10.1564C43.0111 10.2043 42.9318 9.9644 42.9318 9.9644C42.9318 9.9644 42.6143 10.0124 42.535 9.99638C42.4556 9.9644 42.4873 9.72452 42.4873 9.72452C42.4873 9.72452 42.1699 9.64453 42.1699 9.72452C42.1699 9.80451 42.2811 9.80451 42.3287 9.9644C42.3763 10.1244 42.3604 10.3963 42.5985 10.4443C42.8366 10.4922 42.8842 10.5561 42.9159 10.6681C42.9476 10.7801 43.2333 10.7961 43.2333 10.7961L43.4396 10.908L44.0585 11.4518Z" fill="black"/>
<path d="M41.2017 8.70036L41.1224 8.47642L40.916 8.42841V8.66838L41.2017 8.70036Z" fill="black"/>
<path d="M41.1225 7.56511C40.8526 7.35719 41.4875 7.72504 41.4875 7.72504C41.6938 7.72504 41.8366 7.88497 41.8366 7.96493C41.8366 8.0449 42.1223 8.01292 42.1223 8.01292L42.154 7.821L41.9478 7.54911L41.7573 7.42117C41.7573 7.42117 41.4716 7.38918 41.4716 7.30921C41.4716 7.24524 41.2335 7.64507 41.1225 7.56511Z" fill="black"/>
<path d="M45.9795 7.72491C45.9001 7.9648 45.8684 8.2847 45.7414 8.2847C45.6144 8.2847 45.6621 8.63656 45.6621 8.63656C45.6621 8.63656 46.0112 8.63656 46.1064 8.66854C46.2175 8.70052 46.2175 8.97238 46.2175 8.97238C46.6143 8.9404 46.773 9.48414 46.7254 9.62809C46.6778 9.75609 46.8841 9.75609 46.8841 9.75609C46.8841 9.75609 46.8841 10.1879 46.8365 10.2998C46.7889 10.4118 47.1856 10.4918 47.2809 10.6517C47.3919 10.8116 47.2333 11.3554 47.1539 11.3874C47.0745 11.4194 47.3602 11.4993 47.3443 11.6273C47.3126 11.7552 47.4237 11.6273 47.4554 11.8512C47.4871 12.0591 47.5347 12.5229 47.5347 12.5229L47.8998 12.5549C47.9474 12.2031 48.6299 12.187 48.7409 12.235C49.1854 12.3949 49.5345 13.0987 49.5345 13.2586C49.5345 13.4185 49.2488 13.4505 49.2488 13.4505L49.2964 14.2342C49.7408 14.3621 50.1217 15.0178 50.0582 15.1298C50.0106 15.2418 50.3756 15.2098 50.3756 15.2098C50.4233 14.7299 50.8835 14.8899 50.8993 15.0498C50.9311 15.2098 51.0104 15.5617 51.0104 15.5617L51.1374 15.8015L51.3278 15.9934L51.6135 15.9614L51.6929 16.1214L52.0421 16.1694C52.0421 16.1694 52.3277 16.4892 52.3595 16.5692C52.3912 16.6491 52.7879 16.6172 52.8831 16.6491C52.9943 16.6812 53.153 16.7611 53.1688 16.8891C53.2006 17.017 53.3593 17.241 53.3593 17.241C53.3593 17.241 53.6767 17.3209 53.7085 17.4328C53.7402 17.5448 53.8671 17.7847 53.8671 17.7847L54.1369 18.0086L54.1687 18.2485L54.4543 18.2805L54.5337 18.6004L55.0098 18.5684L55.2796 18.3764C55.6288 18.1846 55.8669 17.9446 55.8827 17.8327C55.9145 17.7207 55.9621 17.3209 56.2319 17.4009C56.5017 17.4808 56.3112 16.8091 56.3112 16.8091C56.3112 16.8091 55.9462 16.5372 55.9621 16.4092C55.9938 16.2813 55.5971 16.0095 55.6129 15.8975C55.6447 15.7855 55.2638 15.5776 55.2955 15.4656C55.3272 15.3538 55.105 15.0659 55.105 15.0659L54.7083 14.682L54.6607 14.4421L54.3433 14.4101L53.7085 13.6264L53.7402 13.4025L53.5497 13.3705V13.0667L53.3593 12.9547L53.0736 12.9227L52.4864 12.283L52.4388 11.9791H52.1531L52.2007 11.4194C52.3912 11.1795 52.2801 10.7156 52.2801 10.7156C52.2801 10.7156 51.915 10.9076 51.7246 10.8276C51.5342 10.7476 51.804 10.5557 51.804 10.5557V10.3478L51.6452 10.1879C51.6452 10.1879 51.2009 10.2359 51.1692 10.1559C51.1374 10.0759 51.0581 9.72403 51.0581 9.72403L51.0263 9.26028L50.8359 9.18029L50.8041 9.0204L50.5185 9.05237V8.7325L50.3597 8.68449L50.2011 8.60458L50.1693 8.2847L49.5821 8.25272L49.3916 7.98079L49.1854 7.66093L48.5188 7.61296L48.36 7.45302L48.0902 7.40504L47.8998 7.32507L47.8204 7.45302L47.3126 7.485L47.2809 7.64494C47.0587 7.75689 46.0112 7.64493 45.9795 7.72491Z" fill="black"/>
<path d="M48.7567 7.02118C48.7091 6.81326 49.2805 6.62134 49.4233 6.78128C49.5503 6.94121 49.9312 6.9732 49.9788 7.77286C49.9946 8.06075 49.5027 7.46899 49.5027 7.46899L49.1059 7.34105C48.8837 7.29306 48.7726 7.16512 48.7567 7.02118Z" fill="black"/>
<path d="M41.011 7.35716L40.8682 7.29319L40.9793 7.03729L41.1221 7.11726L41.011 7.35716Z" fill="black"/>
<path d="M39.647 4.70195L39.2978 4.3501V4.04623L39.1867 3.93428L39.0757 3.55043L38.7265 3.43848L38.3774 3.56643L38.0123 3.80632L37.6155 3.8543L37.4092 4.09421L38.2503 4.17417L38.4091 4.44606L39.0122 4.49403L39.4089 4.89387C39.7739 5.0538 39.8533 4.89387 39.647 4.70195Z" fill="black"/>
<path d="M39.5991 3.37506C39.5356 3.13516 39.2023 3.67893 39.5515 3.77489C39.9006 3.88684 40.2339 3.77489 40.2339 3.77489L40.3133 3.61496L41.6306 3.64694C41.7416 3.53499 41.7892 3.37506 41.7892 3.37506C41.7892 3.37506 42.1066 3.26311 42.2336 3.32708C42.3606 3.37506 42.2654 2.94324 42.1225 3.00721C41.9956 3.05519 41.7258 3.0392 41.7258 3.0392H41.2497C41.2179 2.84728 40.8052 2.92725 40.7735 3.0392C40.7577 3.13516 40.599 3.16714 40.599 3.16714L39.9959 3.21513C39.9324 3.37506 39.6309 3.48701 39.5991 3.37506Z" fill="black"/>
<path d="M36.9803 7.93268C37.3929 8.06062 37.5357 7.96467 37.5675 7.85271C37.5992 7.74076 37.6151 7.72476 37.7738 7.69277C37.9325 7.66079 37.742 7.34092 37.5834 7.37291C37.4246 7.4049 37.266 7.32493 37.2342 7.18099C37.2024 7.05304 36.9486 6.70119 36.9167 6.97308C36.885 7.24496 36.7263 7.24496 36.7581 7.43688C36.8057 7.61281 36.885 7.90069 36.9803 7.93268Z" fill="black"/>
<path d="M33.9496 8.23652C33.9337 8.14054 34.4733 8.12456 34.5527 8.20452C34.632 8.28453 34.5844 8.42839 34.8225 8.42839C35.0605 8.42839 34.9494 8.58837 34.9335 8.66836C34.9018 8.74827 34.6479 8.71629 34.6161 8.6363C34.5844 8.5564 34.1876 8.52441 34.1876 8.52441C34.1876 8.52441 33.9813 8.36443 33.9496 8.23652Z" fill="black"/>
<path d="M42.6462 2.783L42.7098 2.84697L42.7574 2.79899L43.0272 2.57509L42.916 2.44714L42.7098 2.62306L42.5827 2.47913L42.4717 2.60707L42.6462 2.783Z" fill="black"/>
<path d="M41.4717 2.15947L41.5035 2.12748L41.805 1.93556L41.7098 1.80762L41.4717 1.96755L41.2972 1.85559L41.2178 1.99954L41.4241 2.12748L41.4717 2.15947Z" fill="black"/>
<path d="M40.5191 7.66079L40.6936 7.93268L40.8206 7.83671L40.646 7.54884L40.6143 7.51685H40.5826L40.3127 7.48486L40.2969 7.64479L40.5191 7.66079Z" fill="black"/>
<path d="M31.8863 15.0337L31.9181 15.3375H32.3148C32.4735 15.3375 32.1879 15.1457 32.1879 15.1457C32.1879 15.1457 31.8705 15.1776 31.8863 15.0337Z" fill="black"/>
<path d="M32.3936 15.0499L32.4888 14.922L32.6475 15.0499L32.5522 15.1778L32.3936 15.0499Z" fill="black"/>
<path d="M27.585 9.99625L27.6961 9.88428L27.8548 10.0442L27.7437 10.1561L27.585 9.99625Z" fill="black"/>
<path d="M35.0281 44.8777L35.1392 44.9897L35.2661 44.8617L35.3455 44.7818L35.2503 44.7178L34.9805 44.5898L34.917 44.7338L35.0757 44.8138L35.0281 44.8777Z" fill="black"/>
<path d="M32.9494 42.9262L33.1399 43.0542L33.2351 42.9262L33.1241 42.8463L33.2034 42.7824L33.1082 42.6544L32.9494 42.7983L32.8701 42.8623L32.9494 42.9262Z" fill="black"/>
<path d="M52.835 37.664C52.8033 37.5202 52.6445 37.4722 52.6287 37.4722L52.5811 37.6321C52.5969 37.6321 52.6128 37.6481 52.6287 37.664L52.6604 37.808C52.6445 37.824 52.6287 37.84 52.6287 37.856L52.7398 37.968C52.8191 37.84 52.8509 37.7601 52.835 37.664Z" fill="black"/>
<path d="M53.0732 37.1526L52.8193 37.1367L52.8352 36.8968L53.0891 36.9288L53.0732 37.1526Z" fill="black"/>
<path d="M59.1836 35.0573C59.2947 34.9934 59.4376 34.8494 59.4217 35.1533C59.4058 35.4571 59.2788 35.3612 59.1836 35.4571C59.0883 35.5531 59.0249 35.1533 59.1836 35.0573Z" fill="black"/>
<path d="M60.5323 33.906V33.874C60.5323 33.826 60.5163 33.7621 60.4846 33.6981L60.3418 33.7781C60.3577 33.8101 60.3577 33.8581 60.3735 33.8901C60.3735 33.938 60.3894 33.986 60.4211 34.018C60.4529 34.0339 60.4846 34.05 60.5323 34.0339L60.5005 33.874C60.5005 33.8901 60.5163 33.8901 60.5323 33.906Z" fill="black"/>
<path d="M60.1836 34.0339C60.2312 34.1938 60.2789 34.3538 60.2789 34.3697L60.4217 34.3058C60.4217 34.3058 60.3582 34.1459 60.3265 33.9859L60.1836 34.0339Z" fill="black"/>
<path d="M59.5961 34.6737L59.4374 34.6577C59.4215 34.7857 59.4532 34.9456 59.5802 34.9616L59.612 34.8017C59.612 34.8017 59.5961 34.7377 59.5961 34.6737Z" fill="black"/>
<path d="M58.9139 31.4591C58.898 31.4112 58.8821 31.3632 58.8345 31.3471C58.7234 31.2992 58.5171 31.3792 58.4219 31.4431L58.5171 31.5711C58.6124 31.5071 58.7552 31.4751 58.771 31.4911C58.771 31.4911 58.771 31.4911 58.771 31.4751L58.9139 31.4591Z" fill="black"/>
<path d="M51.5974 22.8382C51.4863 22.9502 51.2483 22.9981 51.2483 22.9981L51.1689 23.3021L51.0419 23.414C51.0419 23.414 51.0737 23.4939 51.0419 23.6859C51.0102 23.8778 50.7722 23.9898 50.7722 23.9898L50.661 24.1177C50.661 24.1177 50.0262 24.1497 49.9469 24.1177C49.7088 24.0058 49.8676 23.6859 50.0262 23.7179C50.185 23.7499 49.9945 23.2541 49.9945 23.2541L50.2008 23.2221C50.2008 23.2221 50.2326 22.7423 50.3119 22.7423C50.3912 22.7423 50.2802 22.5823 50.185 22.5023C50.0738 22.4224 49.9469 22.1506 49.8358 22.1825C49.7247 22.2145 49.3121 22.1825 49.3121 22.1825L49.2327 22.3424L48.9471 22.3904C48.9471 22.3904 48.9788 22.5984 48.9153 22.6623C48.7566 22.8542 48.1535 23.2541 48.4074 22.5823L48.4868 22.4224V22.1825L48.0107 22.1506C48.0107 22.1506 47.7726 22.0706 47.7726 21.9586C47.7726 21.8466 47.7409 21.7187 47.7409 21.7187L47.1854 21.095L46.5188 21.015L46.4712 20.8871L46.0745 20.8391C45.5983 20.5992 45.1698 20.8071 45.2492 21.2229C45.3285 21.6228 45.4555 21.7827 45.2016 21.7827C44.9318 21.7827 44.8842 21.5748 44.8842 21.5748C44.8842 21.5748 44.6778 21.4948 44.6778 21.6067C44.6778 21.7187 44.5985 21.9266 44.6778 22.0386C44.7571 22.1506 44.5667 22.3105 44.4874 22.2305C44.408 22.1506 44.2017 21.9106 44.2493 21.8307C44.2969 21.7507 43.8843 21.2389 44.2969 21.1589C44.7254 21.079 44.2652 20.8391 44.4239 20.7751L44.6302 20.6631H44.8366L44.9635 20.5512L44.6143 20.5032L44.408 20.4713L44.0113 20.4392C43.6145 20.7111 43.5352 21.031 43.5352 21.031C43.3288 21.4308 42.8209 20.871 43.0114 20.6472C43.2019 20.4232 42.4242 20.6151 42.2973 20.7271C42.1703 20.8391 41.7735 20.7751 41.7735 20.7751C41.6942 21.015 41.3292 20.7431 41.4244 20.5831C41.5354 20.4232 41.5354 20.3113 41.5354 20.3113L41.4085 20.2793L41.2497 20.5831C40.8847 20.5831 40.7737 20.7911 40.853 20.935C40.9323 21.063 40.7419 20.903 40.6943 21.095C40.6467 21.2869 40.7261 21.2869 40.8847 21.3669C41.0435 21.4468 40.8054 21.4468 40.9165 21.5748C41.0276 21.7027 41.345 21.5748 41.1545 21.7667C40.9641 21.9586 40.5991 21.8786 40.5991 21.8786C40.5673 22.1185 40.0754 22.0706 40.0118 21.9906C39.9642 21.9106 39.5675 21.4308 39.5675 21.4308L39.0596 21.3988C39.012 21.015 39.2977 21.207 39.4087 20.9191C39.5199 20.6151 39.5675 20.1354 39.5675 20.1354C39.5675 20.1354 39.139 20.1034 39.1231 20.2473C39.0913 20.3752 38.8375 20.4713 38.8375 20.4713C38.8375 20.4713 38.6311 20.5512 38.7105 20.6631C38.7899 20.7751 38.5518 20.823 38.5518 20.823C38.5518 20.823 38.5994 20.999 38.5201 21.063C38.3137 21.2869 37.7741 21.095 37.6948 21.015L37.3773 20.8871L37.0599 20.6792L36.6949 20.8391L36.5839 20.951H36.187L36.1553 21.2709L36.8694 21.3508L36.9171 22.0226L36.6315 21.9266H36.441L36.3616 21.7667L36.2029 21.7347V22.3265L36.3616 22.4544L36.4886 22.5823L36.7584 22.6143L36.806 22.9342L37.4725 22.9662L37.552 23.0942L37.9487 23.1261L38.7105 23.9098L38.6629 24.1497L38.5359 24.2296C38.5835 24.4216 38.1868 24.3096 38.1868 24.3096V24.4695L38.3772 24.5015L38.5677 24.6135L38.8375 24.1497C39.1231 23.9578 39.2659 24.2296 39.2818 24.3896C39.3135 24.5495 39.1549 24.5175 39.1549 24.5175V24.9014L39.3135 24.9494C39.5834 25.2692 39.2025 25.4611 39.2025 25.4611L39.1231 25.733C39.0437 25.9729 38.7581 25.925 38.7581 25.925L38.647 26.0849L38.3296 26.1649L38.9485 26.2448C39.012 26.0209 39.1707 25.9729 39.2501 26.0849C39.3294 26.1968 39.3294 26.3887 39.3294 26.3887L39.4882 26.4207L39.4564 26.7246L39.6151 26.7726V27.6363L39.8056 27.8442C40.123 27.7162 40.123 27.9241 39.9642 28.036C39.8056 28.148 39.9166 28.6278 39.9166 28.6278L39.7897 28.7558V28.9796L39.631 29.0916V29.3955C39.3611 29.2675 39.0437 29.3155 38.9644 29.3955C38.7263 29.2356 38.2185 29.2836 38.2185 29.4274C38.3772 29.6354 38.028 29.6994 38.028 29.6994L37.8376 29.9073C37.9646 30.1792 37.7106 30.2111 37.7106 30.2111V30.7229L37.3932 31.0268L37.4249 31.7305C37.4249 31.9224 37.8217 31.9385 37.9011 31.8424C37.9804 31.7305 38.2978 32.0664 38.2978 32.0664H38.5359L38.5835 31.5866L38.4248 31.5066V30.7229L38.6946 30.4191C39.012 30.3071 38.9009 31.1228 38.9009 31.2028C38.9327 31.5066 39.0596 31.4746 39.1866 31.4107C39.4564 31.2987 39.2342 31.7145 39.0279 31.6825C38.8216 31.6506 38.9485 31.9544 38.9485 31.9544L39.0755 32.0024L38.8375 32.1943L38.6311 32.4343L38.3613 32.3543L38.0439 32.3223L37.9328 32.1303L37.7424 32.0984L37.7106 32.4822L37.5837 32.6422L37.2663 32.962C37.6948 32.962 37.2187 33.2659 37.1075 33.2659C37.3456 33.3458 37.0758 33.5858 36.4727 33.3938V33.5858L36.2664 33.6178L36.4568 33.8257L36.6632 33.8576L36.5839 34.3215C36.5839 34.6733 35.7109 34.4334 35.6316 34.3534L35.5998 34.8332L35.4411 34.8652L35.4729 35.1851L35.4411 35.6489L35.7268 35.6009V35.7929L36.441 35.8248L37.4725 34.7213L38.0756 34.5933C38.1232 34.3215 38.393 34.6413 38.393 34.6413C38.6629 34.6093 38.7105 34.8012 38.7105 34.8012L39.0596 34.8493C39.3453 34.9292 39.1707 34.9611 39.1866 35.0731C39.2183 35.2331 39.3453 35.1851 39.3453 35.1851L39.3929 34.8332L39.5516 34.8652L39.3929 34.6733L39.1073 34.5453L38.7899 34.4174C38.5835 34.1136 38.8375 34.1775 39.0596 34.2095H39.4087C39.4087 34.2095 39.8056 34.7532 39.8056 34.8812C39.8056 35.0092 39.996 35.0411 39.996 35.0411L40.234 35.0092L40.3134 35.201H40.5515L40.6308 35.361H41.107L41.1387 35.1211L40.6943 35.0411L40.6625 34.7693L40.3451 34.6893C40.234 34.2254 40.4245 34.0975 40.5515 34.3054L40.7102 34.3374L40.6625 33.9376L40.853 33.8896L40.8054 33.3299L40.6467 33.2818V33.09L41.3133 33.1219C41.2656 32.7701 41.345 32.6102 41.345 32.6102H41.5354L41.5672 32.7381L42.3766 32.8181L42.948 32.1623C42.9162 32.1144 43.0114 32.0824 42.948 32.0184C42.8685 31.9385 42.7575 32.0184 42.6305 31.9385C42.5035 31.8585 42.6305 31.3946 42.5988 31.2987C42.5671 31.1867 43.0432 31.0268 42.9638 31.2667C42.8844 31.5066 42.9638 31.6186 42.9638 31.6186C43.313 31.2987 43.5986 31.6506 43.5669 31.7305C43.5352 31.8105 43.7573 31.8904 43.8843 31.8105C44.0113 31.7305 44.17 32.0504 44.1223 32.2103C44.0747 32.3702 43.5986 32.3382 43.5669 32.1783C43.5352 32.0184 43.4558 32.0664 43.4082 32.1464C43.3606 32.2263 43.1225 32.2743 42.9797 32.1943C42.948 32.1783 42.948 32.1623 42.9321 32.1464L42.3607 32.8021H42.3925C42.7099 32.994 42.5511 33.2339 42.4401 33.2818C42.329 33.3299 42.1544 33.3299 42.1544 33.3299L42.1068 33.4418L41.4244 33.4898L41.3768 33.7617C41.0276 33.7137 40.9006 34.0815 40.9799 34.2735C41.0594 34.4653 40.9799 34.6253 40.9799 34.6253L41.2656 34.7532L41.6307 34.6413C41.6783 34.3694 41.9163 34.3215 42.1385 34.1615C42.3449 34.0016 42.694 34.4653 42.5829 34.6733C42.4718 34.8812 42.4718 34.9772 42.4718 34.9772L42.5035 35.2171L42.2337 35.329L42.0275 35.441L41.9957 35.5689H41.2815L41.1545 35.6968L40.8054 35.7288L40.6943 35.8888L40.4563 35.9208C40.4563 35.9208 40.0595 36.1127 40.2182 36.3206C40.3769 36.5445 39.5516 36.5125 39.377 36.2087C39.3294 36.4805 39.0279 36.2407 39.0279 36.2407L38.7422 36.1607L38.7105 35.7608C38.6629 35.4889 38.155 35.4889 38.1868 35.6809C38.2185 35.8728 37.2345 35.7608 37.2345 35.7608L36.9171 35.9208L36.6315 36.0967L36.5997 36.2246L36.1236 36.2726L35.9172 36.3846L35.8379 36.2246H35.6316L35.4253 36.5285C34.8698 36.5605 34.346 36.8803 34.3937 37.0083C34.4413 37.1362 34.1874 37.2802 34.1874 37.2802L33.9493 37.3602L33.7906 37.6001L33.4732 37.712L33.4256 38.2718L33.2669 38.3837V38.6237L33.0764 38.6716V38.7996L32.8066 38.8316L32.9653 39.2314L33.1717 39.3433C33.5367 39.3913 33.3779 39.8551 33.3779 39.8551L33.5843 39.8871L33.6953 40.191L33.9017 40.6228C33.981 40.9426 34.2191 40.8627 34.3302 40.8467C34.4413 40.8147 34.5365 41.1666 34.5365 41.1666L35.5839 41.1986C35.5839 41.1986 35.5363 41.3105 35.7109 41.3585C35.9013 41.4065 37.1075 41.4704 37.1551 41.3904C37.1075 41.1506 37.8217 41.0866 38.1074 41.3105C38.393 41.5184 38.7899 41.3904 38.7899 41.3904L39.1866 41.8703L39.4564 42.462L39.9008 42.59L40.2182 42.67L40.3292 43.1338L40.5673 43.1658L40.6467 43.4696C40.9323 43.6775 40.5673 44.1413 40.5673 44.1413V44.7331L40.7737 44.8451L40.7419 45.0689L41.0911 45.4208L41.4878 45.4528L42.4877 46.5244L43.2812 46.7642L43.4082 47.196L43.6145 47.164L43.7732 47.0361L44.408 47.0041L44.7254 46.7003L45.0746 46.6523L48.0107 44.1413L47.7409 43.9814V43.3896C48.2169 43.0378 48.2487 42.414 47.7885 42.3661C47.4552 42.3181 47.598 41.9662 47.9154 41.9023L48.1059 41.8223V41.5824L48.709 41.0226V40.5908L47.3917 39.4873C46.8045 39.2794 47.3917 37.9839 47.7885 37.9999C48.1852 38.0319 47.7567 36.0008 47.7567 36.0008L47.5504 35.8888L47.598 35.2331H47.3124L46.8362 35.8568L46.7093 36.2886C46.6616 36.8483 45.027 36.7524 44.9476 36.6724C44.8683 36.5925 44.3128 36.3526 44.3128 36.3526C44.3128 36.3526 43.8843 36.0008 43.8049 36.1127C43.7256 36.2246 43.3606 35.9847 43.3606 36.0647C43.3606 36.1446 43.0114 35.8728 43.0114 35.8728L42.4877 35.6809L42.8844 35.6009L42.8051 35.281L43.4875 35.6329C43.5669 35.7448 43.9161 35.7129 43.9161 35.7129L44.0271 35.8408C44.0271 35.8408 44.2335 35.8088 44.3763 35.9687C44.5033 36.1287 45.2016 36.0008 45.2016 36.0008L45.392 36.1607L45.6776 36.2726L46.503 36.3046L46.5347 35.7929L46.6934 35.6329L46.6617 35.313L46.8521 35.1531V34.8812L47.0108 34.8332L47.0426 34.2415L47.1695 34.2095V32.914L46.7728 32.5302C46.741 32.6581 46.3283 32.6581 46.3283 32.6581C46.3283 32.6581 46.2173 32.8501 46.1379 32.8501C46.0586 32.8501 46.249 33.09 46.1855 33.2499C46.1379 33.4098 45.9157 33.4098 45.9157 33.4098L45.519 33.5217L45.4078 33.6497H44.9794L44.9318 33.2979L45.4078 33.17L45.6776 33.042L45.8047 32.7701C45.8364 32.4982 46.1538 32.5302 46.1538 32.5302C46.1538 32.5302 46.7569 32.0184 46.7886 31.7785C46.8204 31.5386 47.0267 30.8668 47.3917 30.8668H48.0741C48.344 30.755 48.2646 30.4031 48.2646 30.4031L48.6138 30.3551L48.6614 30.547C48.6614 30.547 49.1374 30.595 49.185 30.515C49.2327 30.4351 49.3438 30.2431 49.4707 30.3231C49.5977 30.4031 50.0262 30.1312 50.0262 30.1312C50.058 29.9393 50.7086 30.0193 50.7086 30.0193L50.7881 29.7793C50.7881 29.7793 50.3436 29.1556 50.2643 29.1556C50.185 29.1556 49.7564 28.7717 49.7088 28.9157C49.2803 28.8037 49.3121 28.212 49.3121 28.212L49.1533 27.8281C49.1533 27.6043 48.7566 27.1564 48.6772 27.2044C48.2805 26.9006 48.5661 26.5646 48.6772 26.5327C48.7883 26.5007 49.0422 26.1329 49.0422 26.1329L49.1692 25.749L49.6136 25.621L49.6612 25.2692L49.4231 25.2372C49.4231 25.2372 49.6929 24.7574 49.82 24.7574C49.9469 24.7574 50.8198 24.7574 50.8991 24.7094C50.9785 24.6615 51.1372 24.2296 51.1372 24.1497C51.1372 24.0697 51.3435 24.0378 51.4229 24.0217C51.5022 23.9898 51.6926 23.7818 51.7403 23.6699C51.8831 23.398 51.7085 22.7263 51.5974 22.8382Z" fill="black"/>
<path d="M36.9802 32.5624C37.0119 32.5305 37.0595 32.6904 37.1388 32.6585C37.2182 32.6424 37.25 32.8023 37.1706 32.8023C37.0912 32.8023 37.0912 32.8984 37.0912 32.9463C37.0912 32.9943 37.0912 33.0902 37.0278 33.1542C36.9643 33.2182 36.9167 33.1702 36.8373 33.1382C36.758 33.0902 36.7262 33.0902 36.6152 33.0902C36.5199 33.0902 36.5993 33.2502 36.5993 33.2502C36.5993 33.2502 36.1866 33.2342 36.266 33.1702C36.3453 33.1063 36.4247 33.0902 36.3612 33.0423C36.2977 32.9943 36.3612 32.9623 36.3612 32.8823C36.3612 32.8023 36.5517 32.8344 36.504 32.7864C36.4405 32.7224 36.504 32.4985 36.5993 32.6264L36.6628 32.4825C36.5993 32.4185 36.6469 32.4025 36.52 32.3545C36.4088 32.3066 36.504 32.0666 36.504 32.0666L36.52 31.9067C36.5517 31.6988 36.9484 31.6828 36.9802 31.8587C36.996 32.0347 36.9802 32.1627 36.9802 32.1627L37.0912 32.2106C37.0912 32.2106 37.0754 32.3386 36.9802 32.3386C36.885 32.3386 36.9802 32.4025 36.9167 32.4665L36.9802 32.5624Z" fill="black"/>
<path d="M35.6787 32.7705C35.7422 32.6426 35.8692 32.1309 36.0279 32.2908C36.1865 32.4508 36.2818 32.2908 36.2818 32.2908C36.2818 32.2908 36.3611 32.3708 36.3135 32.5307C36.2818 32.6906 36.2342 32.8505 36.1389 32.8825C36.0437 32.8985 35.9644 32.9625 35.8374 32.9785C35.7422 32.9945 35.6787 32.7705 35.6787 32.7705Z" fill="black"/>
</svg>
