<svg width="206" height="38" viewBox="0 0 206 38" fill="none" xmlns="http://www.w3.org/2000/svg">
<path d="M198.571 15.1991C197.68 15.1991 196.809 14.9406 196.068 14.4563C195.328 13.9721 194.75 13.2838 194.409 12.4785C194.068 11.6731 193.979 10.787 194.153 9.93213C194.327 9.07722 194.756 8.29195 195.386 7.6756C196.016 7.05924 196.818 6.6395 197.692 6.46944C198.566 6.2994 199.471 6.38669 200.295 6.72024C201.118 7.05381 201.821 7.61869 202.316 8.34343C202.811 9.06818 203.075 9.92027 203.075 10.7919C203.074 11.9604 202.599 13.0807 201.755 13.907C200.91 14.7332 199.765 15.1979 198.571 15.1991ZM198.571 7.28687C197.862 7.28687 197.169 7.49258 196.579 7.878C195.99 8.2634 195.53 8.8112 195.259 9.45212C194.988 10.093 194.917 10.7983 195.055 11.4787C195.193 12.159 195.535 12.784 196.036 13.2746C196.537 13.7651 197.176 14.0992 197.872 14.2345C198.567 14.3698 199.288 14.3004 199.943 14.0349C200.598 13.7694 201.158 13.3199 201.552 12.7431C201.946 12.1662 202.156 11.4881 202.156 10.7944C202.156 10.3336 202.064 9.87731 201.883 9.45155C201.703 9.02579 201.439 8.6389 201.106 8.31301C200.774 7.9871 200.378 7.72859 199.943 7.55219C199.508 7.37581 199.042 7.28502 198.571 7.28502V7.28687Z" fill="black"/>
<path d="M51.9213 31.9938L50.1381 27.0137H41.6678L39.9217 31.9933H33.0469L42.745 6.55029H49.0609L58.7572 31.9938H51.9213ZM43.5627 21.635H48.2432L45.903 15.0194L43.5627 21.635Z" fill="black"/>
<path d="M87.1348 31.9938V6.55029H93.7844V31.9938H87.1348Z" fill="black"/>
<path d="M103.872 31.9938V12.0755H96.4434V6.55029H117.916V12.0755H110.484V31.9938H103.872Z" fill="black"/>
<path d="M134.47 31.9941L132.687 27.014H124.217L122.47 31.9934H115.598L125.294 6.5498H131.61L141.305 31.9934L134.47 31.9941ZM126.111 21.6352H130.792L128.452 15.0195L126.111 21.6352Z" fill="black"/>
<path d="M143.865 31.9938V6.55029H150.812L159.989 21.744V6.55029H166.601V31.9938H159.652L150.478 16.799V31.9938H143.865Z" fill="black"/>
<path d="M171.709 31.9938V6.55029H190.024V12.0755H178.322V16.2913H187.535V21.8166H178.322V26.4691H190.433V31.9938H171.709Z" fill="black"/>
<path d="M78.0163 20.7491L78.003 20.7564V20.7374C78.0074 20.7417 78.0126 20.7453 78.0163 20.7497C78.1515 20.6734 78.2861 20.5946 78.4201 20.5097C79.5968 19.7651 80.266 19.0636 80.9466 18.0624C81.7867 16.8256 81.8572 15.5936 81.8572 14.801C81.8572 10.0395 78.5867 6.5498 72.8673 6.5498H61.4219V31.9941H68.0723V23.2818H69.1483C69.966 23.3292 70.7629 23.4665 71.5063 23.7433C73.6352 24.5175 74.8962 26.3051 75.5672 28.4471C75.9232 29.5967 76.0974 30.7928 76.0843 31.9941H82.6252C82.5107 27.4675 80.8924 23.4294 78.0163 20.7491ZM68.0748 11.8572H72.4188C74.5365 11.8572 75.5389 13.2387 75.5389 14.8017C75.5389 15.1044 75.5219 16.1358 74.6829 16.9493C74.061 17.5535 73.3138 17.7203 72.8268 17.7609H68.0723V11.8572H68.0748Z" fill="black"/>
<path d="M24.0185 18.4074C25.8424 16.7902 29.7004 12.9437 30.1355 6.55078H23.4762C23.3819 9.966 21.3329 12.5197 19.7568 13.7227C18.0939 14.9953 16.7731 15.6537 13.9511 15.7601V6.55078H7.41016V31.9944H13.9511V22.2139C17.0479 22.1666 19.392 22.8785 20.9146 24.3344C23.0291 26.3571 23.4657 29.6155 23.4657 31.9925H30.1815C30.2558 29.4214 29.7408 26.8664 28.6743 24.5152C27.6077 22.1641 26.0167 20.0765 24.0178 18.4055L24.0185 18.4074Z" fill="black"/>
<path d="M200.222 12.3893C200.18 11.9167 199.989 11.417 199.593 11.1112C199.537 11.068 199.479 11.0281 199.418 10.9918L199.631 10.8885C199.974 10.7149 200.187 10.4319 200.187 10.0153C200.187 9.28055 199.678 8.76611 198.815 8.76611H197.117V12.8145H197.903V11.3654C198.124 11.3631 198.345 11.3837 198.561 11.4269C198.885 11.4977 199.137 11.6164 199.298 11.8749C199.462 12.1506 199.474 12.4933 199.473 12.8145H200.243C200.242 12.6761 200.237 12.5351 200.222 12.3893ZM197.904 9.40792H198.779C199.24 9.40792 199.429 9.6916 199.429 10.0153C199.429 10.3389 199.24 10.6337 198.779 10.6337H197.904V9.40792Z" fill="black"/>
</svg>
