<svg width="153" height="48" viewBox="0 0 153 48" fill="none" xmlns="http://www.w3.org/2000/svg">
<path d="M63.6758 12.751C63.768 11.2097 64.3078 9.85501 65.3496 8.73507C66.5804 7.41267 68.0487 6.74351 69.7509 6.72498C70.1508 6.72498 70.5381 6.76514 70.9081 6.83025C70.9677 6.84141 71.0249 6.85567 71.0854 6.86755C71.4155 6.93908 71.7341 7.03508 72.0394 7.16031C72.0898 7.17718 72.1363 7.19049 72.1872 7.21069C72.5427 7.36515 72.8812 7.55382 73.2024 7.7798L73.2244 7.79691C73.5539 8.02741 73.8653 8.30425 74.1568 8.61412C75.0758 9.59076 75.6506 10.6858 75.8807 11.8984C75.8882 11.929 75.8894 11.9673 75.8954 12.0008C75.9386 12.2465 75.9482 12.4969 75.9643 12.751H63.6758ZM76.4437 7.54622C76.386 7.47754 76.3234 7.41552 76.2622 7.34637C76.1435 7.20807 76.0192 7.07001 75.8882 6.93908C75.7969 6.8464 75.7032 6.76015 75.6095 6.67246C75.5521 6.6228 75.5051 6.5679 75.4418 6.51777L75.3958 6.47167C75.3556 6.43626 75.3227 6.40061 75.2806 6.37257C75.2542 6.34834 75.2267 6.32933 75.2005 6.30984C75.1302 6.25542 75.0587 6.19816 74.9889 6.1435C74.9356 6.10073 74.8882 6.05487 74.8289 6.01186C74.7735 5.97217 74.7128 5.94817 74.6558 5.90754C74.3687 5.70793 74.0702 5.52401 73.7565 5.35933C73.7119 5.33367 73.6672 5.30491 73.6224 5.28139C73.5808 5.25953 73.5383 5.23339 73.4972 5.21153C73.1578 5.04709 72.8102 4.91212 72.4601 4.79782C72.4365 4.78807 72.4129 4.78308 72.39 4.77382C72.0039 4.64978 71.6114 4.55686 71.2143 4.4927C71.1856 4.48771 71.1557 4.48035 71.1288 4.47631C70.7366 4.42142 70.3435 4.37793 69.9443 4.37793C69.921 4.37793 69.8957 4.38102 69.8726 4.38102L69.8357 4.37793C69.0564 4.37793 68.3181 4.47868 67.6122 4.66641C66.1822 5.02618 64.9217 5.73359 63.8311 6.80506C62.0367 8.56326 61.1406 10.6572 61.1406 13.0915C61.1406 13.6114 61.1831 14.114 61.2577 14.6002V14.6199H61.2607C61.5158 16.2481 62.1899 17.701 63.2903 18.9806C63.3576 19.0586 63.4324 19.1256 63.5017 19.2018C63.5321 19.2351 63.5566 19.2734 63.5882 19.3088C63.6596 19.3853 63.7379 19.4499 63.8108 19.5234C63.8759 19.5866 63.9418 19.6541 64.0105 19.7168C65.5858 21.201 67.49 21.9552 69.7322 21.9745C69.757 21.9745 69.7829 21.9795 69.8074 21.9795H69.8186L69.832 21.9764C70.2998 21.9764 70.75 21.9343 71.1914 21.8654C71.2167 21.8623 71.2382 21.858 71.2608 21.8547C72.2078 21.7007 73.0933 21.3932 73.919 20.9337L73.9275 20.9263C74.2038 20.7719 74.4701 20.5974 74.7294 20.4121C74.8793 20.3071 75.0361 20.2286 75.183 20.1189V20.0692C75.3871 19.8998 75.5887 19.7208 75.7831 19.5331C76.834 18.5018 77.5326 17.3246 77.9585 16.0305H75.3367C75.1335 16.491 74.8957 16.9384 74.5649 17.3436C73.9772 18.0684 73.2648 18.6306 72.4222 19.0305C72.2155 19.1348 72.0039 19.2185 71.789 19.2921C71.7497 19.3088 71.7084 19.3161 71.6673 19.3323C71.5016 19.3874 71.3351 19.4378 71.1685 19.4775C70.7159 19.5809 70.2601 19.6327 69.8002 19.6358C69.4173 19.6358 69.0476 19.5975 68.689 19.5331C68.4377 19.4858 68.1985 19.4041 67.9588 19.3256C67.8691 19.2971 67.7783 19.2784 67.6916 19.2475C67.0446 18.9944 66.433 18.622 65.8575 18.1178C64.8568 17.2576 64.2039 16.2481 63.8806 15.0453H75.7371L75.735 15.05H78.2708V15.0453H78.3114C78.3114 15.0453 78.3114 14.9571 78.3114 14.8335C78.4053 14.2977 78.4581 13.7374 78.4581 13.1628C78.4581 11.0365 77.7875 9.16589 76.4437 7.54622Z" fill="black"/>
<path d="M94.5421 6.01186C93.0212 4.924 91.3541 4.37793 89.551 4.37793C87.2361 4.37793 85.2439 5.19798 83.574 6.84141C81.791 8.57301 80.8984 10.6858 80.8984 13.1766C80.8984 15.5429 81.6996 17.5848 83.3009 19.3088C84.9748 21.0886 87.0504 21.9795 89.5339 21.9795C91.4629 21.9795 93.251 21.3597 94.8971 20.1189V17.0513C93.1828 18.776 91.3821 19.6358 89.4994 19.6358C88.0434 19.6358 86.7328 19.1301 85.5711 18.1178C84.0911 16.8486 83.3534 15.1976 83.3534 13.1766C83.3534 11.4431 83.9227 9.96431 85.0633 8.73507C86.3163 7.39057 87.8091 6.71999 89.551 6.71999C90.6313 6.71999 91.6706 7.01298 92.6652 7.59897C94.0625 8.42354 94.9894 9.62403 95.4418 11.1988C95.6892 12.0341 95.8121 13.3783 95.8121 15.2261V21.6487H98.1986V15.1928C98.1986 13.4707 98.0856 12.1108 97.8597 11.1128C97.3647 8.94014 96.2575 7.24182 94.5421 6.01186Z" fill="black"/>
<path d="M123.05 7.01298C122.475 6.18366 121.729 5.54064 120.814 5.07584C119.902 4.61176 118.925 4.37793 117.887 4.37793C115.685 4.37793 113.913 5.34769 112.57 7.2872C111.217 5.34769 109.433 4.37793 107.221 4.37793C106.06 4.37793 104.97 4.67615 103.954 5.27141C102.758 5.98596 101.896 6.99088 101.363 8.28738C100.972 9.25143 100.773 10.6503 100.773 12.4865V21.6487H103.159V12.4865C103.159 10.767 103.441 9.44486 104.007 8.52738C104.739 7.32261 105.808 6.71999 107.205 6.71999C107.839 6.71999 108.449 6.87017 109.041 7.16839C109.634 7.46566 110.106 7.86773 110.455 8.37102C111.052 9.2089 111.352 10.581 111.352 12.4865V21.6487H113.757V13.0395C113.757 11.9839 113.802 11.1456 113.891 10.5239C114.06 9.33246 114.49 8.42354 115.179 7.80381C115.968 7.08189 116.872 6.71999 117.887 6.71999C118.62 6.71999 119.293 6.91056 119.902 7.2872C120.566 7.71351 121.058 8.27074 121.374 8.95891C121.779 9.85501 121.984 11.1912 121.984 12.9703V21.6487H124.37V13.004C124.37 11.8249 124.314 10.8003 124.199 9.94031C124.067 8.89475 123.682 7.92072 123.05 7.01298Z" fill="black"/>
<path d="M126.893 21.6487H129.281V4.60059H126.893V21.6487Z" fill="black"/>
<path d="M129.223 0.619444C128.903 0.276785 128.53 0.10498 128.094 0.10498C127.68 0.10498 127.327 0.238289 127.029 0.503244C126.694 0.824992 126.525 1.21209 126.525 1.66572C126.525 2.07753 126.657 2.42993 126.917 2.73005C127.222 3.072 127.605 3.24451 128.06 3.24451C128.463 3.24451 128.811 3.11121 129.108 2.84673C129.444 2.53734 129.615 2.14406 129.615 1.66572C129.615 1.26769 129.481 0.917429 129.223 0.619444Z" fill="black"/>
<path d="M92.8468 26.5932C92.5377 26.2598 92.1712 26.0933 91.7433 26.0933C91.3413 26.0933 90.9967 26.2199 90.7085 26.4815C90.3789 26.794 90.2168 27.1728 90.2168 27.6181C90.2168 28.0161 90.3441 28.3612 90.5978 28.6518C90.8951 28.9888 91.2684 29.1544 91.7122 29.1544C92.1058 29.1544 92.4455 29.0256 92.7342 28.7659C93.061 28.4636 93.2266 28.0803 93.2266 27.6181C93.2266 27.2275 93.099 26.8872 92.8468 26.5932Z" fill="black"/>
<path d="M74.4057 32.3748C72.9194 31.3118 71.2948 30.7803 69.5335 30.7803C67.2759 30.7803 65.332 31.5818 63.7046 33.1824C61.965 34.8736 61.0938 36.9339 61.0938 39.3662C61.0938 41.6722 61.8758 43.6656 63.4387 45.3468C65.0685 47.0813 67.0946 47.951 69.5165 47.951C71.3989 47.951 73.1452 47.3491 74.7521 46.1355V43.1462C73.0768 44.826 71.3237 45.6641 69.4833 45.6641C68.0635 45.6641 66.7847 45.1741 65.6525 44.1872C64.2096 42.9439 63.4878 41.3359 63.4878 39.3662C63.4878 37.6746 64.0461 36.2284 65.1563 35.0307C66.3787 33.7181 67.8386 33.0658 69.5335 33.0658C70.591 33.0658 71.6017 33.3512 72.5739 33.9231C73.9371 34.7254 74.8404 35.8992 75.2802 37.4348C75.5222 38.2508 75.6456 39.5592 75.6456 41.3671V47.6316H77.9747V41.3307C77.9747 39.6495 77.8618 38.3223 77.6423 37.3507C77.1597 35.2303 76.0789 33.5752 74.4057 32.3748Z" fill="black"/>
<path d="M82.6902 26.0737H80.3613V39.9017C80.3613 41.1933 80.4265 42.2697 80.558 43.1461C80.7563 44.3565 81.3111 45.3857 82.2272 46.2381C83.4045 47.324 84.9406 47.8675 86.8329 47.8675C87.2195 47.8675 87.6656 47.8333 88.1725 47.7648V45.4456C87.7088 45.5233 87.3073 45.5644 86.9665 45.5644C84.8724 45.5644 83.554 44.7063 83.0037 42.9961C82.7955 42.3339 82.6902 41.298 82.6902 39.8853V33.2988H88.1725V30.9978H82.6902V26.0737Z" fill="black"/>
<path d="M90.582 47.6317H92.9093V30.998H90.582V47.6317Z" fill="black"/>
<path d="M108.266 43.4294C107.69 44.1371 106.995 44.6879 106.174 45.0778C105.353 45.4714 104.504 45.6641 103.622 45.6641C102.05 45.6641 100.667 45.0992 99.4767 43.9703C98.2023 42.7455 97.5604 41.2126 97.5604 39.3662C97.5604 37.9108 97.9904 36.6176 98.8505 35.4855C99.4326 34.7237 100.137 34.1299 100.956 33.7036C101.776 33.277 102.632 33.0658 103.524 33.0658C105.264 33.0658 106.713 33.6822 107.868 34.9136C109.067 36.1882 109.667 37.6746 109.667 39.3662C109.667 40.9215 109.199 42.2767 108.266 43.4294ZM107.223 31.5932C106.111 31.0526 104.954 30.7803 103.755 30.7803C101.387 30.7803 99.3999 31.5699 97.7937 33.1489C96.0411 34.8639 95.168 36.9051 95.168 39.2826C95.168 41.4885 95.8669 43.4038 97.2654 45.0287C98.0689 45.9599 99.0233 46.6768 100.129 47.1861C101.237 47.6955 102.4 47.951 103.622 47.951C105.878 47.951 107.824 47.1561 109.455 45.5645C111.193 43.8633 112.063 41.7881 112.063 39.3491C112.063 37.2742 111.41 35.4506 110.097 33.8713C109.294 32.8966 108.336 32.1386 107.223 31.5932Z" fill="black"/>
<path d="M127.008 33.1627C125.611 31.5768 123.826 30.7803 121.657 30.7803C120.455 30.7803 119.35 31.0478 118.339 31.5863C116.918 32.3241 115.864 33.435 115.183 34.9136C114.698 35.9449 114.457 37.4348 114.457 39.3824V47.6316H116.769V39.1804C116.769 37.3773 117.092 36.0221 117.742 35.1148C118.206 34.477 118.784 33.9726 119.487 33.6083C120.186 33.2468 120.908 33.0658 121.657 33.0658C123.032 33.0658 124.218 33.5964 125.209 34.6586C126.112 35.6352 126.562 37.1411 126.562 39.1804V47.6316H128.875V39.3824C128.875 38.1607 128.782 37.1126 128.592 36.2379C128.363 35.1429 127.835 34.1199 127.008 33.1627Z" fill="black"/>
<path d="M144.668 32.3748C143.179 31.3118 141.555 30.7803 139.795 30.7803C137.536 30.7803 135.594 31.5818 133.963 33.1824C132.223 34.8736 131.354 36.9339 131.354 39.3662C131.354 41.6722 132.136 43.6656 133.701 45.3468C135.327 47.0813 137.357 47.951 139.778 47.951C141.661 47.951 143.406 47.3491 145.012 46.1355V43.1462C143.34 44.826 141.584 45.6641 139.744 45.6641C138.325 45.6641 137.047 45.1741 135.912 44.1872C134.471 42.9439 133.749 41.3359 133.749 39.3662C133.749 37.6746 134.303 36.2284 135.418 35.0307C136.641 33.7181 138.097 33.0658 139.795 33.0658C140.851 33.0658 141.864 33.3512 142.832 33.9231C144.198 34.7254 145.101 35.8992 145.544 37.4348C145.784 38.2508 145.903 39.5592 145.903 41.3671V47.6316H148.233V41.3307C148.233 39.6495 148.125 38.3223 147.905 37.3507C147.418 35.2303 146.341 33.5752 144.668 32.3748Z" fill="black"/>
<path d="M150.6 47.6315H152.928V26.1162H150.6V47.6315Z" fill="black"/>
<path d="M55.2206 2.65113C53.8917 1.71749 52.4428 1.25293 50.8686 1.25293C49.5538 1.25293 48.3069 1.58656 47.1305 2.25572C45.5382 3.15894 44.4097 4.48538 43.7512 6.24121C43.3737 7.26538 43.1836 8.71087 43.1836 10.577V21.7984H45.6351V11.1542C45.6351 9.76427 45.6951 8.74746 45.8157 8.09922C46.0745 6.6763 46.7077 5.56682 47.7143 4.76697C48.65 4.01392 49.7023 3.64251 50.8686 3.64251C51.8163 3.64251 52.7021 3.90438 53.5299 4.43286C54.6656 5.14052 55.4182 6.1837 55.7864 7.5636C55.9849 8.29383 56.0858 9.49005 56.0858 11.1542V21.7984H58.5382V10.577C58.5382 9.06375 58.4287 7.87276 58.2094 7.00328C57.7403 5.17901 56.7436 3.72568 55.2206 2.65113Z" fill="black"/>
<path d="M55.227 28.4038C53.9007 27.4704 52.4515 27.0068 50.8764 27.0068C49.5609 27.0068 48.3149 27.3388 47.1393 28.0058C45.5453 28.9109 44.4182 30.2381 43.7597 31.9915C43.3806 33.0181 43.1914 34.461 43.1914 36.3266V47.5485H45.6427V36.905C45.6427 35.5163 45.7041 34.4973 45.8242 33.8491C46.083 32.4266 46.7155 31.3191 47.7223 30.5192C48.6588 29.7664 49.7092 29.3933 50.8764 29.3933C51.825 29.3933 52.7087 29.654 53.5393 30.1827C54.6748 30.8932 55.426 31.9367 55.7963 33.3158C55.9953 34.0439 56.0932 35.2428 56.0932 36.905V47.5485H58.5472V36.3266C58.5472 34.8167 58.4351 33.625 58.2179 32.7536C57.7488 30.9284 56.7526 29.4777 55.227 28.4038Z" fill="black"/>
<path d="M4.15234 47.5517H10.6409V43.3896H4.15234V47.5517Z" fill="black"/>
<path d="M15.0209 43.3894H10.6406V19.6547C11.3965 19.4209 12.186 19.3037 13.0097 19.3037C13.7006 19.3037 14.3717 19.3909 15.0234 19.5651L15.0209 43.3894Z" fill="black"/>
<path d="M25.9925 43.3848H21.8421V32.7445C21.8421 29.7668 21.6723 27.627 21.3378 26.3193C20.7127 23.8558 19.4385 21.989 17.5137 20.7196C16.7153 20.1797 15.8861 19.7962 15.0234 19.5655V19.4022C15.0234 17.8581 15.0655 16.3898 15.1482 15.2202C17.0017 15.5512 18.7433 16.3211 20.3759 17.5345C22.9556 19.4571 24.6414 22.0508 25.4344 25.317C25.8063 26.8749 25.9925 29.0043 25.9925 31.7056V43.3848Z" fill="black"/>
<path d="M4.15187 43.3898H0.00195312V31.7056C0.00195312 28.3732 0.322436 25.789 0.964101 23.9566C2.07831 20.8173 3.98276 18.4422 6.6835 16.8302C7.98738 16.0467 9.34196 15.5187 10.7472 15.2476C10.6764 16.2359 10.6407 17.285 10.6407 18.3638V19.6551C9.58466 19.9818 8.59471 20.5357 7.67064 21.3206C5.96685 22.7514 4.89562 24.7334 4.45881 27.2725C4.25559 28.4347 4.15187 30.2571 4.15187 32.7445V43.3898Z" fill="black"/>
<path d="M25.9922 47.5554H33.7144V43.3848H25.9922V47.5554Z" fill="black"/>
<path d="M38.1 43.3844H33.7156V19.4019C33.7156 16.4241 33.5383 13.8157 33.1823 12.5126C32.524 10.0431 31.1765 8.178 29.1452 6.90788C27.6624 5.96212 26.0793 5.49281 24.3849 5.49281C22.2971 5.49281 20.4158 6.16458 18.7428 7.5086C16.9421 8.94007 15.8099 10.9238 15.3465 13.4635C15.2654 13.9039 15.1995 14.5065 15.1491 15.2199C14.452 15.0956 13.7394 15.0328 13.0106 15.0328C12.2423 15.0328 11.4881 15.1046 10.748 15.2472C10.8961 13.182 11.1989 11.3841 11.6562 10.1448C12.8335 7.00626 14.8473 4.63284 17.6994 3.02077C19.8014 1.82242 22.032 1.22217 24.3849 1.22217C27.2003 1.22217 29.7925 2.05577 32.1671 3.72272C34.8924 5.64845 36.6742 8.24192 37.5139 11.5067C37.9045 13.0658 38.1 15.6621 38.1 18.3634V43.3844Z" fill="black"/>
<path d="M10.6406 47.5517H15.0209V43.3896H10.6406V47.5517Z" fill="black"/>
<path d="M0.0136719 47.5517H4.15168V43.3896H0.0136719V47.5517Z" fill="black"/>
<path d="M15.1484 15.2202C14.4511 15.0959 13.7385 15.0332 13.0097 15.0332C12.2414 15.0332 11.4871 15.105 10.7471 15.2475C10.6764 16.2356 10.6406 17.285 10.6406 18.3638V19.6551C11.3963 19.4212 12.186 19.3041 13.0097 19.3041C13.7006 19.3041 14.3717 19.3913 15.0234 19.5655V19.4022C15.0234 17.8581 15.0655 16.3898 15.1484 15.2202Z" fill="black"/>
<path d="M33.7148 47.5554H38.0993V43.3848H33.7148V47.5554Z" fill="black"/>
<path d="M21.8418 47.5554H25.9922V43.3848H21.8418V47.5554Z" fill="black"/>
</svg>
