<svg width="314" height="186" viewBox="0 0 314 186" fill="none" xmlns="http://www.w3.org/2000/svg">
<path d="M40.4 185.6L52 174.6C29.2 153.4 16.8 124.8 16.8 92.9999C16.8 61.1999 29.2 32.5999 52 11.3999L40.4 0.399902C14 24.9999 0 57.3999 0 92.9999C0 128.6 14 161 40.4 185.6Z" fill="#FF3D00"/>
<path d="M273.6 185.6L262 174.6C284.8 153.4 297.2 124.8 297.2 92.9999C297.2 61.1999 284.8 32.5999 262 11.3999L273.6 0.399902C300 24.9999 314 57.3999 314 92.9999C314 128.6 300 161 273.6 185.6Z" fill="#FF3D00"/>
<path fill-rule="evenodd" clip-rule="evenodd" d="M114.014 1H189.403C200.509 1 210.381 3.24174 219.02 7.74392C220.437 8.48269 221.801 9.26725 223.112 10.0977H223.152C223.152 10.0977 225.089 11.1851 227.921 13.5431C230.679 15.774 233.141 18.2588 235.309 20.9987C235.463 21.1859 235.618 21.3755 235.773 21.5679C236.396 22.3431 236.923 23.09 237.367 23.8068C237.931 24.6399 238.472 25.494 238.988 26.3691C243.663 34.2899 246 43.1074 246 52.803C246 65.1326 242.466 76.3226 235.417 86.3731C228.368 96.4236 218.664 104.344 206.324 110.154C202.114 112.136 197.738 113.782 193.198 115.089L215.336 186H170.369L151.232 118.878H126.972L110.312 186H68L114.014 1ZM186.486 81.4786C191.59 78.5644 195.61 74.8281 198.527 70.2512C201.444 65.6743 202.884 60.6491 202.884 55.1942C202.884 50.9722 202.005 47.3481 200.247 44.3591C198.49 41.3701 196.059 38.9789 192.974 37.2229C189.889 35.4668 186.411 34.5888 182.522 34.5888H148.137L135.442 85.85H169.303C175.66 85.85 181.382 84.3929 186.486 81.4973V81.4786Z" fill="#0E0E0E"/>
</svg>
