<svg width="143" height="28" viewBox="0 0 143 28" fill="none" xmlns="http://www.w3.org/2000/svg">
<g clip-path="url(#clip0_78_153)">
<path d="M18.6957 2.21395V5.01395H5.47114V7.19535H18.6957V9.53954H20.9466V1.04186V0H1.40686L2.28224 2.21395H18.6957Z" fill="#121212"/>
<path d="M43.0501 17.3536H45.7075V0.0327148H25.6987V2.63737H43.0501V17.3536Z" fill="#121212"/>
<path d="M22.6349 11.5908H0V13.8048H22.6349V11.5908Z" fill="#121212"/>
<path d="M3.22016 25.2326V18.5907L0.687805 17.2559V28H47.5208C47.5208 27.0884 47.5208 26.1442 47.5208 25.2326C40.3301 25.8838 32.483 26.2745 24.1043 26.2093C16.6635 26.1768 9.69174 25.8186 3.22016 25.2326Z" fill="#121212"/>
<path d="M71.5313 0H68.9364V13.8372H71.5313V0Z" fill="#121212"/>
<path d="M74.8765 6.41378L75.9707 8.79052H86.1939V13.8045H88.4449V0.0649414H74.6889V2.44169H86.1939V6.41378H74.8765Z" fill="#121212"/>
<path d="M50.991 28H71.5313V15.7256H50.991V28ZM53.1482 17.9395H69.1865V25.8186H53.1482V17.9395Z" fill="#121212"/>
<path d="M75.0641 27.9997H95.6043V15.7578H75.0641V27.9997ZM77.19 17.9392H93.2282V25.8183H77.19V17.9392Z" fill="#121212"/>
<path d="M93.1345 13.8046H95.5418V0.0976562H93.1345V6.38138H90.0394V8.8558H93.1345V13.8046Z" fill="#121212"/>
<path d="M111.799 2.5068H114.456V0.0649414H98.7619V2.5068H109.423V25.4929H104.421V6.28355L101.857 4.55797V25.4929H98.418V27.9998H114.8V25.4929H111.799V2.5068Z" fill="#121212"/>
<path d="M116.426 12.0789H113.831V14.7812H116.426V27.9998H118.833V0.0649414H116.426V12.0789Z" fill="#121212"/>
<path d="M124.992 0.0649414H122.272V27.9998H135.497V25.4603H124.992V0.0649414Z" fill="#121212"/>
<path d="M143 0.0649414H140.218V27.9998H143V0.0649414Z" fill="#121212"/>
<path d="M63.2151 2.24634V5.56727H53.1482H51.0536V5.59982H51.0223V11.558L53.1482 13.7394H65.3098V11.558H53.117V7.74866H65.3098V0.0649414H51.0223L52.7731 2.24634H63.2151Z" fill="#121212"/>
</g>
<defs>
<clipPath id="clip0_78_153">
<rect width="143" height="28" fill="white"/>
</clipPath>
</defs>
</svg>
